<svg xmlns="http://www.w3.org/2000/svg" viewBox="0 0 53.667 61.5" enable-background="new 0 0 53.667 61.5"><path fill="#1E0F00" d="M52.591 30.749c-9.703 0-17.597-7.894-17.597-17.597 0-.272-.221-.493-.493-.493l-.134.027c-.206.059-.359.242-.359.466v.005c-.001 4.794-1.934 9.141-5.055 12.317v-13.802h8.305v-1.972h-8.305v-1.809h-4.237v1.809h-8.306v1.973h8.305v13.801c-3.122-3.177-5.055-7.526-5.055-12.322 0-.272-.221-.493-.493-.493l-.134.027c-.206.059-.359.242-.359.466v.005c-.003 9.7-7.896 17.592-17.597 17.592-.272 0-.493.221-.493.494 0 .272.221.493.493.493 8.806 0 16.184-6.162 18.09-14.397.859 3.712 2.832 6.993 5.549 9.486v1.833c-2.476 1.331-5.302 2.09-8.305 2.09-.272 0-.493.221-.493.494 0 .272.221.493.493.493 2.987 0 5.802-.725 8.305-1.983v23.856h4.237v-23.855c2.503 1.258 5.318 1.983 8.305 1.983.273 0 .493-.221.493-.493 0-.273-.22-.494-.493-.494-3.002 0-5.83-.759-8.305-2.09v-1.833c2.716-2.494 4.689-5.774 5.548-9.487 1.906 8.235 9.285 14.397 18.091 14.397.272 0 .493-.221.493-.493-.001-.273-.222-.494-.494-.494z"/></svg>