<svg xmlns="http://www.w3.org/2000/svg" viewBox="0 0 61.833 50.406" enable-background="new 0 0 61.833 50.406"><path d="M17.461 8.363h-.094s-.748 3.271-1.308 5.139l-2.99 8.877h8.643l-2.943-8.877c-.56-1.868-1.308-5.139-1.308-5.139z" fill="none"/><path fill="#1E0F00" d="M14.238 2.617l-11.634 33.171h6.167l2.803-8.503h11.633l2.85 8.503h6.167l-11.632-33.171h-6.354zm-1.168 19.762l2.99-8.877c.561-1.869 1.308-5.139 1.308-5.139h.094s.748 3.271 1.308 5.139l2.943 8.877h-8.643zM44.325 42.604c-1.542 0-2.476.094-2.476.094v-.094s1.121-1.074 2.43-2.99l14.717-21.164v-3.831h-23.968v5.186h13.922c1.542 0 2.476-.094 2.476-.094v.094s-1.121 1.074-2.429 2.99l-14.717 21.117v3.878h24.949v-5.186h-14.904zM27.557 5.284c4.303 0 8.433 1.603 11.61 4.444l-4.199.375.237 2.657 8.569-.765-.704-7.893-2.656.237.284 3.182c-3.629-3.139-8.289-4.905-13.14-4.905-.836 0-1.677.052-2.501.155l.329 2.646c.714-.088 1.445-.133 2.171-.133zM27.557 42.789c-3.464 0-6.823-1.046-9.674-2.951l2.775-.275-.263-2.654-7.298.723.723 7.299 2.654-.263-.272-2.746c3.328 2.284 7.281 3.535 11.355 3.535 1.231 0 2.463-.112 3.663-.333l-.483-2.624c-1.041.191-2.111.289-3.18.289z"/></svg>