<svg xmlns="http://www.w3.org/2000/svg" viewBox="0 0 51.333 50.406" enable-background="new 0 0 51.333 50.406"><path d="M18.941 27.525c-.728-.126-1.49-.054-2.234-.098-.301-.018-.482.095-.663.325-1.001 1.272-2.018 2.532-3.078 3.856-.752-.94-1.458-1.829-2.171-2.712-.39-.484-.703-1.149-1.212-1.385-.528-.245-1.251-.083-1.889-.077-1.659.016-3.081 1.077-3.549 2.67-.108.368-.16.765-.161 1.149-.012 3.413-.004 6.826-.011 10.239-.001.493.111.93.485 1.265.471.423 1.02.541 1.604.289.615-.266.93-.757.93-1.436l.001-10.613v-.512h1.494v11.152h8.997v-11.153h1.456v.547c0 3.506-.002 7.013.001 10.519.001.946.632 1.614 1.505 1.615.872.001 1.507-.67 1.508-1.612.003-3.46.006-6.919-.001-10.379-.004-1.797-1.249-3.343-3.012-3.649zM29.402 37.906c-.423.011-.753.365-.736.789.017.42.379.748.802.726.402-.021.721-.363.713-.766-.008-.425-.357-.76-.779-.749zM42.129 12.491c.423.007.769-.334.77-.757.001-.422-.345-.762-.77-.758-.405.003-.736.329-.746.733-.01.424.324.776.746.782zM36.168 21.467c.421-.004.761-.36.745-.781-.015-.406-.343-.729-.747-.735-.425-.006-.768.332-.768.757 0 .424.345.764.77.759zM12.999 25.958c2.434-.001 4.475-2.04 4.466-4.462-.009-2.54-2.016-4.548-4.534-4.536-2.484.011-4.474 2.043-4.465 4.557.01 2.45 2.042 4.442 4.533 4.441zM12.966 29.254l1.437-1.79h-2.874l1.437 1.79zM29.414 16.232c.425.004.775-.348.768-.773-.007-.408-.339-.737-.749-.741-.433-.004-.772.337-.765.77.006.409.338.74.746.744zM12.982 15.457c2.635.186 4.582 1.393 5.537 3.863.958 2.476.31 4.672-1.535 6.577l.13.055 1.028.006c1.976.039 3.504.887 4.534 2.575.198.325.403.426.768.426 7.324-.01 14.647-.008 21.971-.009l.447-.021v-22.413h-32.879c-.001 2.998-.001 5.966-.001 8.941zm7.506-7.435h1.406v1.43h-1.406v-1.43zm2.663 12.771c.362.088.554.012.783-.256 1.063-1.243 2.144-2.471 3.229-3.695.192-.216.261-.387.155-.696-.309-.899-.071-1.7.63-2.329.704-.632 1.532-.76 2.39-.368.855.39 1.3 1.097 1.307 2.04.002.278.073.454.288.629.979.796 1.937 1.618 2.919 2.409.124.1.349.106.525.101.412-.012.825-.041 1.233-.097.171-.023.399-.083.483-.206 1.088-1.595 2.149-3.208 3.233-4.806.16-.235.088-.374-.04-.573-.524-.813-.502-1.745.034-2.498.516-.724 1.418-1.082 2.254-.896.939.209 1.6.894 1.769 1.83.236 1.307-.814 2.562-2.182 2.573-.287.002-.445.089-.599.323-1.086 1.652-2.182 3.298-3.289 4.937-.158.234-.172.419-.065.68.375.919.113 1.906-.638 2.53-.751.624-1.774.687-2.611.161-.8-.503-1.192-1.448-.961-2.387.067-.274.033-.441-.201-.629-.969-.781-1.917-1.59-2.905-2.415-.683.515-1.393.68-2.19.44-.097-.029-.272.035-.344.116-1.179 1.328-2.353 2.661-3.509 4.008-.091.106-.106.343-.061.49.399 1.283-.276 2.566-1.541 2.894-1.268.329-2.504-.468-2.756-1.776-.289-1.519 1.143-2.904 2.66-2.534zm-5.671-12.754h1.421v1.413h-1.421v-1.413zm-2.98-.004h1.423v1.42h-1.423v-1.42zM22.666 23.711c.402.015.751-.297.78-.698.031-.422-.29-.791-.709-.816-.422-.025-.785.299-.804.72-.02.422.309.778.733.794zM11.48 4.982h35.88v-1.451h-35.88v1.451z" fill="none"/><path fill="#1E0F00" d="M10.022 2.059v4.449h1.429l.026.219c.002 2.883-.002 5.766.01 8.649.001.298-.159.345-.381.421-3.015 1.028-4.69 4.078-3.923 7.139.287 1.147.901 2.108 1.851 3.024-.563 0-.98-.006-1.397.001-2.802.044-5.112 2.342-5.128 5.148-.021 3.522-.018 7.044-.001 10.566.01 2.112 2.12 3.511 4.079 2.734l.415-.151v4.081h1.486v-5.166h8.998v5.168h1.467v-4.083l.424.166c1.615.628 3.438-.249 3.907-1.918.124-.441.137-.923.138-1.386.011-3.549.006-7.098.006-10.657h5.257c0 1.971.006 3.903-.013 5.834-.001.135-.154.318-.286.395-.946.552-1.379 1.512-1.116 2.534.246.958 1.132 1.657 2.119 1.67 1.008.014 1.92-.678 2.18-1.653.271-1.017-.145-2.009-1.104-2.526-.254-.137-.309-.29-.308-.546.008-1.792.004-3.584.006-5.376l.04-.388h17.179v-23.934h1.456v-4.415c-12.962.001-25.899.001-38.816.001zm-1.556 19.457c-.009-2.514 1.982-4.546 4.465-4.557 2.518-.011 4.524 1.996 4.534 4.536.009 2.423-2.032 4.462-4.466 4.462-2.491.002-4.523-1.99-4.533-4.441zm5.937 5.948l-1.437 1.79-1.438-1.79h2.875zm6.043 15.699c-.873-.001-1.504-.668-1.505-1.615-.004-3.506-.001-7.013-.001-10.519v-.547h-1.456v11.153h-8.997v-11.152h-1.494v.512c0 3.538 0 7.075-.001 10.613 0 .678-.315 1.17-.93 1.436-.584.252-1.133.133-1.604-.289-.373-.335-.485-.772-.485-1.265.007-3.413-.002-6.826.011-10.239.001-.384.053-.781.161-1.149.468-1.593 1.89-2.654 3.549-2.67.638-.006 1.36-.168 1.889.077.509.236.822.901 1.212 1.385.712.883 1.418 1.771 2.171 2.712 1.06-1.324 2.077-2.584 3.078-3.856.181-.23.361-.342.663-.325.745.044 1.506-.028 2.234.098 1.763.306 3.008 1.853 3.012 3.648.006 3.46.004 6.919.001 10.379-.002.943-.636 1.614-1.508 1.613zm9.735-4.508c.007.403-.312.745-.713.766-.423.022-.785-.305-.802-.726-.017-.424.313-.778.736-.789.422-.011.771.324.779.749zm15.68-9.727l-.447.021c-7.324.001-14.647-.001-21.971.009-.365.001-.57-.101-.768-.426-1.03-1.688-2.558-2.536-4.534-2.575l-1.028-.006-.13-.055c1.845-1.905 2.493-4.101 1.535-6.577-.955-2.47-2.902-3.677-5.537-3.863v-8.941h32.879c.001 7.46.001 14.915.001 22.413zm1.498-23.946h-35.88v-1.451h35.88v1.451zM12.246 48.347h1.431v-2.153h-1.431v2.153zM23.25 25.104c1.265-.328 1.94-1.611 1.541-2.894-.046-.147-.03-.384.061-.49 1.157-1.347 2.33-2.681 3.509-4.008.072-.081.247-.145.344-.116.797.24 1.507.075 2.19-.44.988.825 1.936 1.633 2.905 2.415.234.188.268.356.201.629-.231.939.161 1.885.961 2.387.837.526 1.861.463 2.611-.161.75-.624 1.012-1.611.638-2.53-.107-.261-.093-.446.065-.68 1.106-1.639 2.202-3.285 3.289-4.937.154-.234.311-.321.599-.323 1.368-.011 2.418-1.266 2.182-2.573-.169-.936-.831-1.621-1.769-1.83-.836-.187-1.738.172-2.254.896-.536.753-.558 1.685-.034 2.498.129.2.2.338.04.573-1.084 1.597-2.145 3.211-3.233 4.806-.084.124-.313.183-.483.206-.408.055-.821.085-1.233.097-.176.005-.401-.002-.525-.101-.982-.791-1.94-1.613-2.919-2.409-.215-.175-.286-.35-.288-.629-.007-.942-.452-1.649-1.307-2.04-.858-.392-1.686-.264-2.39.368-.701.629-.939 1.43-.63 2.329.106.309.037.48-.155.696-1.085 1.224-2.166 2.452-3.229 3.695-.229.268-.421.344-.783.256-1.517-.37-2.949 1.015-2.657 2.535.248 1.307 1.485 2.104 2.753 1.775zm18.879-14.128c.425-.004.77.336.77.758-.001.423-.347.764-.77.757-.421-.006-.756-.358-.745-.783.009-.404.34-.729.745-.732zm-5.963 8.976c.404.006.732.328.747.735.015.421-.324.776-.745.781-.425.004-.77-.336-.77-.758 0-.425.343-.764.768-.758zm-6.733-5.234c.41.004.742.333.749.741.007.425-.343.777-.768.773-.408-.004-.739-.334-.746-.744-.008-.433.331-.774.765-.77zm-6.695 7.479c.419.025.74.394.709.816-.03.401-.378.713-.78.698-.424-.016-.753-.372-.733-.794.019-.421.381-.745.804-.72zM21.894 8.022h-1.406v1.43h1.406v-1.43zM18.901 8.039h-1.421v1.413h1.421v-1.413zM15.923 8.035h-1.423v1.42h1.423v-1.42z"/></svg>