<svg xmlns="http://www.w3.org/2000/svg" viewBox="0 0 48.5 50.406" enable-background="new 0 0 48.5 50.406"><path d="M4.906 32.995l.02.031 1.738 1.738c.732.732 1.924.732 2.656 0l24.49-24.49c.732-.732.732-1.924 0-2.656l-1.756-1.756-.031-.02-.02-.031-1.721-1.721c-.732-.732-1.924-.732-2.656 0l-24.49 24.49c-.732.732-.732 1.924 0 2.656l1.738 1.738.032.021zm-1.095-2.796c-.238-.238-.238-.624 0-.862l24.28-24.28c.238-.238.624-.238.862 0s.238.624 0 .862l-24.28 24.28c-.238.238-.624.238-.862 0z" fill="none"/><path fill="#1E0F00" d="M46.217 39.321l-10.489-10.489c-1.199-1.199-3.15-1.199-4.349 0l-1.089 1.089-.905-.905c-.965-.965-2.748-.876-4.059.203l-13.994 11.511c-.804.661-2.106.598-2.843-.138l-3.84-3.84c-.793-.793-.975-1.663-.747-1.891l.577-.578 1.332 1.332c1.202 1.202 3.158 1.202 4.36 0l24.49-24.49c1.202-1.202 1.202-3.158 0-4.36l-1.35-1.35.886-.886c.238-.238.238-.624 0-.862s-.624-.239-.861-.001l-.886.886-1.314-1.315c-1.202-1.202-3.158-1.202-4.36 0l-24.49 24.492c-1.202 1.202-1.202 3.158 0 4.36l1.332 1.332-.577.577c-.804.804-.476 2.392.747 3.615l3.84 3.84c1.181 1.181 3.19 1.278 4.479.217l13.994-11.51c.79-.65 1.923-.782 2.422-.282l1.33 1.33c.238.238.624.238.862 0l.025-.039 1.488-1.488c.73-.731 1.919-.731 2.65 0l10.488 10.488c.731.731.731 1.92 0 2.65l-3.5 3.5c-.73.731-1.919.731-2.65 0l-10.487-10.487c-.73-.731-.73-1.92 0-2.65.235-.234.235-.615 0-.849-.234-.235-.615-.235-.85 0-1.199 1.199-1.199 3.15 0 4.349l10.488 10.488c1.199 1.199 3.15 1.199 4.349 0l3.5-3.5c1.2-1.199 1.2-3.15.001-4.349zm-43.08-8.084c-.732-.732-.732-1.924 0-2.656l24.49-24.49c.732-.732 1.924-.732 2.656 0l1.721 1.721.02.031.031.02 1.756 1.756c.733.732.733 1.924 0 2.656l-24.491 24.489c-.732.732-1.924.732-2.656 0l-1.738-1.738-.02-.031-.031-.02-1.738-1.738zM43.536 41.646c.238-.238.238-.624 0-.862l-10.157-10.156c-.238-.238-.624-.238-.862 0s-.238.624 0 .862l10.156 10.156c.239.238.625.238.863 0zM28.953 5.058c-.238-.238-.624-.238-.862 0l-24.28 24.28c-.238.238-.238.624 0 .862s.624.238.862 0l24.28-24.28c.237-.239.237-.624 0-.862z"/></svg>