<svg xmlns="http://www.w3.org/2000/svg" viewBox="0 0 46.222 61.5" enable-background="new 0 0 46.222 61.5"><path d="M7.078 38.524l-1.533.1v1.721l1.533-.086v-1.735zM11.549 36.859v-1.771l-3.043.24-2.96.234v1.722l2.96-.209 3.043-.216zM7.078 41.542l-1.533.077v1.723l1.533-.065v-1.735zM7.078 32.128l-1.533.144v1.723l1.533-.133v-1.734zM7.078 28.592l-1.533.171v1.723l1.533-.159v-1.735zM7.078 25.317l-1.533.195v1.722l1.533-.182v-1.735zM7.078 47.326l-1.533.035v1.722l1.533-.022v-1.735zM8.062 47.304v1.743l3.032-.045 3.12-.045v-1.793l-3.12.071-3.032.069zM12.591 46.081l1.64-.046v-1.794l-1.64.059v1.781zM5.545 50.419v1.719h6.005v-1.768l-3.045.025-2.96.024zM12.575 52.138h1.639v-1.79l-1.639.014v1.776zM11.549 23.375v-1.777l-3.043.431-2.96.418v1.729l2.96-.395 3.043-.406zM10.053 46.152l1.601-.045-.001-1.772-1.6.057v1.76zM14.214 38.065l-3.12.201-3.032.195v1.742l3.032-.17 3.12-.175v-1.793zM14.214 21.22l-1.639.232v1.787l1.639-.219v-1.8zM7.976 43.239l1.57-.066v-1.755l-1.57.079v1.742zM12.71 29.745l1.642-.17v-1.794l-1.642.183v1.781zM7.976 33.784l1.57-.136v-1.754l-1.57.148v1.742zM10.506 28.21l-1.584.177v1.749l1.584-.164v-1.762zM11.73 33.46l1.625-.141v-1.787l-1.625.155v1.773zM14.214 34.877l-1.639.129v1.78l1.639-.116v-1.793zM14.214 24.412l-3.12.395-3.032.385v1.743l3.032-.36 3.12-.371v-1.792zM28.837 46.839l4.063.059 3.948.057v-2.269l-3.948-.09-4.063-.093v2.336zM32.308 28.778v2.307l3.964.28 3.852.273v-2.242l-3.852-.304-3.964-.314zM38.13 35.512l1.994.113v-2.243l-1.994-.129v2.259zM38.13 39.442l1.994.084v-2.243l-1.994-.1v2.259zM38.13 46.974l1.994.029v-2.242l-1.994-.046v2.259zM32.307 48.679v2.303h7.817v-2.239l-3.852-.032-3.965-.032zM38.13 18.314l1.994.237v-2.243l-1.994-.253v2.259zM32.308 11.212v2.314l3.964.528 3.852.515v-2.25l-3.852-.546-3.964-.561zM30.971 11.022l-2.134-.302v2.343l2.134.285v-2.326zM38.13 27.182l1.994.172v-2.242l-1.994-.189v2.259zM28.837 50.982h2.134v-2.314l-2.134-.018v2.332zM38.13 22.578l1.994.206v-2.242l-1.994-.223v2.259zM35.729 20.052l-2.064-.23v2.295l2.064.213v-2.278zM36.96 37.124l-2.045-.102v2.285l2.045.086v-2.269zM34.256 40.895l-2.083-.076-.003 2.308 2.086.058v-2.29zM36.96 24.813l-2.045-.195v2.286l2.045.177v-2.268zM30.951 40.776l-2.136-.079v2.336l2.136.06v-2.317zM36.848 18.161v-2.269l-3.948-.501-4.063-.516v2.335l4.063.483 3.948.468zM30.795 19.502l-2.138-.238v2.336l2.138.221v-2.319zM29.955 26.475l2.117.183v-2.309l-2.117-.201v2.327zM28.837 28.503v2.336l2.134.151v-2.318l-2.134-.169zM28.837 32.654v2.336l4.063.228 3.948.222v-2.269l-3.948-.254-4.063-.263z" fill="none"/><path fill="#1E0F00" d="M26.16 5.531l-9.852 3.633v8.091l-.039-.019-12.547 2.436v36.296h12.585v.001h26.193v-47.265l-16.34-3.173zm-13.585 15.921l1.639-.232v1.8l-1.639.219v-1.787zm-1.481 18.581l-3.032.17v-1.742l3.032-.195 3.12-.201v1.793l-3.12.175zm.56 6.074l-1.601.045v-1.76l1.6-.057.001 1.772zm-2.108-4.689v1.755l-1.57.066v-1.742l1.57-.079zm3.029-4.632v-1.78l1.639-.129v1.793l-1.639.116zm.78-3.467l-1.625.141v-1.773l1.625-.155v1.787zm-2.261-6.744l-3.032.36v-1.743l3.032-.385 3.12-.395v1.792l-3.12.371zm-2.172 3.561v-1.749l1.584-.177v1.762l-1.584.164zm.624 1.758v1.754l-1.57.136v-1.742l1.57-.148zm-4.001-9.447l2.96-.418 3.043-.431v1.777l-3.043.406-2.96.395v-1.729zm0 3.065l1.533-.195v1.735l-1.533.182v-1.722zm0 3.251l1.533-.171v1.735l-1.533.159v-1.723zm0 3.509l1.533-.144v1.734l-1.533.133v-1.723zm0 3.29l2.96-.234 3.043-.24v1.771l-3.043.216-2.96.209v-1.722zm0 3.062l1.533-.1v1.735l-1.533.086v-1.721zm0 2.995l1.533-.077v1.735l-1.533.065v-1.723zm0 5.742l1.533-.035v1.735l-1.533.022v-1.722zm6.005 4.777h-6.005v-1.719l2.96-.024 3.045-.025v1.768zm2.664 0h-1.639v-1.776l1.639-.014v1.79zm0-3.181l-3.12.045-3.032.045v-1.743l3.032-.069 3.12-.071v1.793zm.017-2.922l-1.64.046v-1.781l1.64-.059v1.794zm.121-16.46l-1.642.17v-1.781l1.642-.183v1.794zm14.485-18.855l2.134.302v2.326l-2.134-.285v-2.343zm0 4.155l4.063.516 3.948.501v2.269l-3.948-.468-4.063-.483v-2.335zm6.078 9.743l2.045.195v2.268l-2.045-.177v-2.286zm-1.25-2.501v-2.295l2.064.23v2.278l-2.064-.213zm-.765 22.479l3.948.09v2.269l-3.948-.057-4.063-.059v-2.336l4.063.093zm-.73-1.469l.003-2.308 2.083.076v2.29l-2.086-.058zm2.745-3.82v-2.285l2.045.102v2.269l-2.045-.086zm1.933-3.867l-3.948-.222-4.063-.228v-2.336l4.063.263 3.948.254v2.269zm-8.011-4.601v-2.336l2.134.169v2.318l-2.134-.151zm3.235-4.181l-2.117-.183v-2.327l2.117.201v2.309zm-3.415-7.394l2.138.238v2.319l-2.138-.221v-2.336zm.158 21.433l2.136.079v2.317l-2.136-.06v-2.336zm2.156 10.285h-2.134v-2.332l2.134.018v2.314zm9.153 0h-7.817v-2.303l3.965.032 3.852.032v2.239zm0-3.979l-1.994-.029v-2.259l1.994.046v2.242zm0-7.477l-1.994-.084v-2.259l1.994.1v2.243zm0-3.901l-1.994-.113v-2.259l1.994.129v2.243zm0-3.987l-3.852-.273-3.964-.28v-2.307l3.964.314 3.852.304v2.242zm0-4.284l-1.994-.172v-2.259l1.994.189v2.242zm0-4.57l-1.994-.206v-2.259l1.994.223v2.242zm0-4.233l-1.994-.237v-2.259l1.994.253v2.243zm0-3.982l-3.852-.515-3.964-.528v-2.314l3.964.561 3.852.546v2.25z"/></svg>