<svg xmlns="http://www.w3.org/2000/svg" viewBox="0 0 56.901 61.5" enable-background="new 0 0 56.901 61.5"><path d="M9.9 42.945h8.347v-7.227h-8.347v7.227zm4.484-6.323h2.783v5.42h-2.783v-5.42zM32.16 23.07h-.928v-.398c0-.757-.23-1.467-.777-1.999-.546-.53-1.203-.822-1.976-.822-.776 0-1.475.292-2.02.822-.548.532-.792 1.242-.792 1.999v.398h-.927v5.421h7.42v-5.421zm-.927 5.27h-2.783v-4.743h2.783v4.743zM46.072 23.07h-7.42v7.228h7.42v-7.228zm-.927 6.324h-2.782v-5.42h2.782v5.42zM17.32 23.07h-6.493v7.228h6.493v-7.228zm-.927 6.324h-2.783v-5.42h2.783v5.42zM47 35.718h-8.347v7.227h8.347v-7.227zm-.927 6.324h-2.783v-5.42h2.783v5.42z" fill="none"/><path fill="#1E0F00" d="M42.363 23.974h2.782v5.42h-2.782zM13.61 23.974h2.783v5.42h-2.783zM14.384 36.622h2.783v5.42h-2.783zM43.29 36.622h2.783v5.42h-2.783zM28.45 23.597h2.783v4.743h-2.783zM4.336 41.139h1.855v5.42h-1.855zM51.638 41.139h1.855v5.42h-1.855zM26.132 37.525h4.637v9.034h-4.637zM.626 33.911h3.709v7.227h.927v-7.227h46.375v7.227h.926v-7.227h3.711l-6.492-2.255v-8.586h2.833l-7.928-1.806h-7.009l-9.228-6.323-9.228 6.323h-7.315l-7.623 1.806h2.834v8.456l-6.492 2.385zm38.026-10.841h7.42v7.228h-7.42v-7.228zm-13.912 0h.927v-.398c0-.757.244-1.467.792-1.999.545-.53 1.244-.822 2.02-.822.773 0 1.43.292 1.976.822.547.532.777 1.242.777 1.999v.398h.928v5.421h-7.42v-5.421zm-13.913 0h6.493v7.228h-6.493v-7.228zM36.927 33.911h-29.808999999999997v12.648h17.622000000000003v-10.841h7.42v10.841h17.622v-12.648h-12.855zm-18.68 9.034h-8.347v-7.227h8.347v7.227zm20.406-7.227h8.347v7.227h-8.347v-7.227z"/></svg>