<svg xmlns="http://www.w3.org/2000/svg" viewBox="0 0 52.084 61.5" enable-background="new 0 0 52.084 61.5"><g fill="#1E0F00"><path d="M16.363 45.044c1.914 1.505 4.365 2.369 6.756 2.369-2.959-3.005-.538-6.261-.538-6.261s-.198 2.535 1.973 2.871c-.737-1.915-.409-4.024.61-5.663l-8.801 6.684zM12.844 37.061c-.166 1.548.075 2.976.61 4.248l4.487-3.407c-3.477-8.849.498-14.763.498-14.763s.104 3.538.723 5.079c3.682-2.728 4.898-9.418 4.898-9.418s.559 5.873-2.699 10.029c-1.942 2.478-2.447 5.979-2.538 8.401l16.452-12.493c-.184-1.91.063-4.168 1.178-7.138-3.474.297-4.607 3.197-4.777 4.002.034-1.263-.513-8.194-9.753-12.578h-.001c2.828 6.375-1.644 12.671-1.644 12.671s.657-5.029-3.616-7.097c1.841 5.205-4.97 6.848-1.86 16.368-2.348-4.022-4.778-3.49-4.78-3.49.002.002 3.472 3.494 2.822 9.586zM26.757 37.15c-.403 4.207 2.688 3.681.315 8.457 3.212-1.942 3.398-6.724 3.398-6.724s2.366 4.916-2.498 8.529c0 0 10.09-2.038 10.125-11.416v-.116c-.013-2.486-.744-4.361-1.467-6.229l-9.873 7.499zM38.097 27.188l10.884-8.275-1.515-2.092-9.369 7.125-2.642 2.006-16.643 12.638-.442.335-4.428 3.363-3.919 2.977-6.92 5.12 1.515 2.092 6.845-5.064 4.073-3.092 20.697-15.718z"/></g></svg>