<?xml version="1.0" encoding="utf-8"?>
<!-- Generator: Adobe Illustrator 18.1.1, SVG Export Plug-In . SVG Version: 6.00 Build 0)  -->
<svg version="1.1" id="Слой_1" xmlns="http://www.w3.org/2000/svg" xmlns:xlink="http://www.w3.org/1999/xlink" x="0px" y="0px"
	 viewBox="0 0 51.333 50.406" enable-background="new 0 0 51.333 50.406" xml:space="preserve">
<g>
	<path fill="none" d="M17.377,15.701c0.134,0.004,0.344,0.09,0.384,0.191c0.385,0.969,0.74,1.949,1.169,3.1
		c-0.435,0.395-0.994,0.903-1.517,1.378c0.726,0.716,1.406,1.386,2.163,2.132c0.484-0.518,1.001-1.071,1.426-1.527
		c0.996,0.386,1.891,0.765,2.809,1.072c0.317,0.106,0.395,0.233,0.385,0.536c-0.021,0.619-0.006,1.239-0.006,1.864
		c1.01,0,1.962,0,2.951,0c0-0.668-0.011-1.306,0.009-1.943c0.004-0.135,0.09-0.345,0.192-0.386c0.969-0.385,1.949-0.741,3.1-1.171
		c0.392,0.439,0.896,1.002,1.35,1.509c0.731-0.73,1.406-1.404,2.143-2.139c-0.509-0.491-1.053-1.016-1.506-1.452
		c0.382-0.983,0.759-1.878,1.069-2.796c0.106-0.316,0.237-0.394,0.539-0.385c0.619,0.02,1.238,0.006,1.86,0.006
		c0-1.015,0-1.966,0-2.95c-0.669,0-1.308,0.011-1.945-0.009c-0.134-0.004-0.344-0.09-0.384-0.192
		c-0.385-0.969-0.741-1.949-1.167-3.094c0.436-0.401,0.991-0.913,1.493-1.376c-0.71-0.719-1.38-1.397-2.114-2.14
		c-0.503,0.526-1.026,1.072-1.46,1.525c-0.988-0.385-1.882-0.765-2.8-1.074c-0.317-0.107-0.394-0.232-0.384-0.535
		c0.022-0.619,0.006-1.239,0.006-1.861c-1.013,0-1.965,0-2.952,0c0,0.668,0.011,1.306-0.009,1.943
		c-0.004,0.134-0.09,0.344-0.192,0.385c-0.969,0.385-1.949,0.741-3.014,1.138c-0.422-0.448-0.932-0.99-1.412-1.5
		c-0.756,0.755-1.43,1.429-2.188,2.186c0.52,0.479,1.077,0.991,1.533,1.411c-0.39,1.004-0.77,1.898-1.078,2.816
		c-0.106,0.317-0.234,0.394-0.536,0.384c-0.619-0.021-1.238-0.006-1.86-0.006c0,1.014,0,1.965,0,2.952
		C16.102,15.692,16.74,15.681,17.377,15.701z M25.74,9.103c2.775,0.021,5.058,2.356,5.038,5.154
		c-0.02,2.809-2.352,5.099-5.167,5.073c-2.792-0.025-5.073-2.339-5.06-5.132C20.565,11.359,22.885,9.081,25.74,9.103z"/>
	<path fill="none" d="M8.409,15.508c-0.24,0.287-0.337,0.576-0.335,0.949c0.012,3.966,0.007,7.931,0.007,11.897
		c0,0.159,0,0.319,0,0.517c-1.258,0-2.441,0-3.642,0c0,2.933,0,5.826,0,8.755c2.215,0,4.387,0,6.57,0c0-8.307,0-16.583,0-25.018
		c-0.258,0.175-0.464,0.257-0.588,0.407C9.741,13.839,9.093,14.688,8.409,15.508z"/>
	<path fill="none" d="M25.655,17.888c2.024,0.003,3.676-1.635,3.682-3.652c0.006-2.028-1.626-3.682-3.641-3.692
		c-2.032-0.01-3.691,1.615-3.703,3.628C21.98,16.225,23.616,17.885,25.655,17.888z"/>
	<path fill="none" d="M43.248,28.277c0-3.981,0.002-7.961-0.006-11.942c-0.001-0.198-0.043-0.438-0.158-0.587
		c-0.724-0.943-1.468-1.871-2.224-2.789c-0.108-0.13-0.319-0.175-0.534-0.286c0,8.397,0,16.671,0,24.954c2.2,0,4.372,0,6.555,0
		c0-2.934,0-5.837,0-8.779c-1.212,0-2.395,0-3.632,0C43.248,28.611,43.248,28.444,43.248,28.277z"/>
	<path fill="#1E0F00" d="M44.692,27.394c0-0.186,0-0.335,0-0.483c0-3.676,0.003-7.351-0.008-11.027
		c-0.001-0.226-0.052-0.499-0.185-0.67c-0.962-1.241-1.95-2.462-2.936-3.685c-0.079-0.097-0.207-0.216-0.316-0.218
		c-0.787-0.019-1.574-0.01-2.414-0.01c0,5.889,0,11.72,0,17.534c-8.815,0-17.576,0-26.358,0c0-5.845,0-11.654,0-17.536
		c-0.767,0-1.481-0.02-2.193,0.013c-0.192,0.009-0.433,0.131-0.556,0.28c-0.969,1.177-1.923,2.367-2.86,3.57
		c-0.135,0.174-0.22,0.436-0.22,0.658C6.634,19.51,6.638,23.2,6.638,26.891c0,0.161,0,0.323,0,0.538c-1.256,0-2.451,0-3.623,0
		c0,3.92,0,7.786,0,11.636c3.171,0,6.304,0,9.475,0c0-0.486,0-0.938,0-1.404c2.698,0,5.358,0,8.071,0c0,3.416,0,6.807,0,10.194
		c0.504,0,0.953,0,1.403,0c0-3.896,0-7.762,0-11.682c-3.176,0-6.322,0-9.453,0c0-1.983,0-3.91,0-5.825c8.798,0,17.559,0,26.309,0
		c0,1.964,0,3.892,0,5.857c-3.171,0-6.306,0-9.461,0c0,3.904,0,7.769,0,11.657c0.473,0,0.922,0,1.426,0c0-3.412,0-6.803,0-10.198
		c2.714,0,5.374,0,8.089,0c0,0.492,0,0.954,0,1.4c3.188,0,6.322,0,9.444,0c0-3.902,0-7.767,0-11.671
		C47.101,27.394,45.918,27.394,44.692,27.394z M11.009,37.627c-2.183,0-4.355,0-6.57,0c0-2.929,0-5.822,0-8.755
		c1.201,0,2.384,0,3.642,0c0-0.198,0-0.358,0-0.517c0-3.966,0.004-7.932-0.007-11.897c-0.001-0.374,0.096-0.662,0.335-0.949
		c0.684-0.82,1.332-1.668,2.012-2.491c0.124-0.15,0.329-0.232,0.588-0.407C11.009,21.043,11.009,29.319,11.009,37.627z
		 M46.881,37.627c-2.183,0-4.355,0-6.555,0c0-8.283,0-16.557,0-24.954c0.215,0.111,0.427,0.156,0.534,0.286
		c0.756,0.917,1.5,1.846,2.224,2.789c0.115,0.15,0.157,0.389,0.158,0.587c0.009,3.981,0.006,7.961,0.006,11.942
		c0,0.167,0,0.333,0,0.571c1.237,0,2.42,0,3.632,0C46.881,31.79,46.881,34.694,46.881,37.627z"/>
	<path fill="#1E0F00" d="M15.404,17.122c0.896-0.131,1.456,0.133,1.661,1.077c0.059,0.272,0.083,0.431-0.127,0.628
		c-0.541,0.508-1.062,1.038-1.522,1.491c1.399,1.405,2.757,2.768,4.128,4.145c0.286-0.287,0.651-0.579,0.922-0.941
		c0.527-0.703,1.088-0.927,1.899-0.429c0.275,0.169,0.396,0.293,0.388,0.607c-0.02,0.726-0.006,1.454-0.006,2.196
		c1.966,0,3.879,0,5.782,0c0.022-0.052,0.043-0.078,0.043-0.105c0.005-0.488,0.059-0.982-0.002-1.462
		c-0.097-0.765,0.086-1.292,0.923-1.427c0.029-0.005,0.06-0.018,0.084-0.035c0.314-0.237,0.534-0.111,0.77,0.149
		c0.471,0.518,0.971,1.01,1.44,1.493c1.414-1.414,2.768-2.769,4.177-4.178c-0.31-0.29-0.625-0.65-1.002-0.925
		c-0.721-0.525-0.91-1.102-0.414-1.899c0.154-0.247,0.247-0.393,0.564-0.381c0.74,0.027,1.482,0.009,2.229,0.009
		c0-1.972,0-3.885,0-5.835c-0.498,0-0.976-0.058-1.435,0.012c-0.887,0.137-1.418-0.147-1.632-1.055
		C34.206,9.97,34.176,9.8,34.407,9.588c0.544-0.501,1.062-1.03,1.539-1.498c-1.409-1.419-2.759-2.779-4.15-4.181
		c-0.297,0.314-0.651,0.616-0.916,0.982c-0.531,0.732-1.113,0.949-1.933,0.435c-0.253-0.158-0.379-0.263-0.37-0.57
		c0.024-0.74,0.008-1.481,0.008-2.214c-1.981,0-3.894,0-5.836,0c0,0.487-0.056,0.951,0.012,1.396
		c0.136,0.896-0.122,1.457-1.066,1.674c-0.295,0.068-0.459,0.07-0.664-0.149c-0.497-0.533-1.017-1.045-1.473-1.509
		c-1.401,1.4-2.764,2.761-4.163,4.159c0.287,0.273,0.591,0.625,0.954,0.896c0.72,0.536,0.949,1.119,0.419,1.934
		c-0.149,0.229-0.239,0.369-0.531,0.361c-0.743-0.019-1.486-0.006-2.24-0.006c0,1.969,0,3.893,0,5.835
		C14.492,17.133,14.956,17.187,15.404,17.122z M15.434,12.74c0.622,0,1.241-0.014,1.86,0.006c0.302,0.01,0.43-0.067,0.536-0.384
		c0.308-0.918,0.688-1.812,1.078-2.816c-0.456-0.42-1.013-0.932-1.533-1.411c0.758-0.757,1.432-1.431,2.188-2.186
		c0.48,0.51,0.99,1.052,1.412,1.5c1.064-0.397,2.045-0.753,3.014-1.138c0.102-0.04,0.188-0.25,0.192-0.385
		c0.02-0.637,0.009-1.275,0.009-1.943c0.987,0,1.938,0,2.952,0c0,0.622,0.015,1.242-0.006,1.861
		c-0.011,0.304,0.066,0.429,0.384,0.535c0.918,0.309,1.812,0.689,2.8,1.074c0.433-0.453,0.957-1,1.46-1.525
		c0.734,0.743,1.404,1.422,2.114,2.14c-0.502,0.463-1.057,0.974-1.493,1.376c0.427,1.145,0.783,2.125,1.167,3.094
		c0.04,0.102,0.25,0.188,0.384,0.192c0.637,0.02,1.276,0.009,1.945,0.009c0,0.984,0,1.936,0,2.95c-0.622,0-1.242,0.014-1.86-0.006
		c-0.301-0.01-0.432,0.069-0.539,0.385c-0.31,0.918-0.687,1.812-1.069,2.796c0.453,0.437,0.997,0.962,1.506,1.452
		c-0.737,0.735-1.412,1.409-2.143,2.139c-0.454-0.507-0.957-1.07-1.35-1.509c-1.151,0.429-2.132,0.785-3.1,1.171
		c-0.102,0.041-0.188,0.251-0.192,0.386c-0.02,0.637-0.009,1.275-0.009,1.943c-0.989,0-1.94,0-2.951,0
		c0-0.625-0.015-1.245,0.006-1.864c0.01-0.303-0.068-0.43-0.385-0.536c-0.918-0.308-1.813-0.686-2.809-1.072
		c-0.425,0.455-0.942,1.008-1.426,1.527c-0.757-0.746-1.436-1.416-2.163-2.132c0.523-0.475,1.082-0.983,1.517-1.378
		c-0.429-1.151-0.784-2.131-1.169-3.1c-0.04-0.102-0.25-0.187-0.384-0.191c-0.637-0.02-1.275-0.009-1.944-0.009
		C15.434,14.706,15.434,13.754,15.434,12.74z"/>
	<path fill="#1E0F00" d="M24.976,31.821c0,0.5,0,0.947,0,1.393c0.481,0,0.928,0,1.386,0c0-0.477,0-0.924,0-1.393
		C25.89,31.821,25.443,31.821,24.976,31.821z"/>
	<path fill="#1E0F00" d="M24.976,36.142c0.481,0,0.928,0,1.393,0c0-0.464,0-0.901,0-1.378c-0.49,0-0.948,0-1.393,0
		C24.976,35.249,24.976,35.697,24.976,36.142z"/>
	<path fill="#1E0F00" d="M26.361,39.086c0-0.494,0-0.941,0-1.392c-0.486,0-0.944,0-1.384,0c0,0.486,0,0.933,0,1.392
		C25.447,39.086,25.884,39.086,26.361,39.086z"/>
	<path fill="#1E0F00" d="M24.97,42.006c0.474,0,0.921,0,1.383,0c0-0.503,0-0.95,0-1.391c-0.483,0-0.93,0-1.383,0
		C24.97,41.094,24.97,41.541,24.97,42.006z"/>
	<path fill="#1E0F00" d="M26.367,43.553c-0.465,0-0.933,0-1.392,0c0,0.481,0,0.928,0,1.375c0.479,0,0.926,0,1.392,0
		C26.367,44.465,26.367,44.028,26.367,43.553z"/>
	<path fill="#1E0F00" d="M24.979,47.854c0.484,0,0.931,0,1.393,0c0-0.468,0-0.905,0-1.388c-0.488,0-0.935,0-1.393,0
		C24.979,46.949,24.979,47.407,24.979,47.854z"/>
	<path fill="#1E0F00" d="M25.611,19.329c2.815,0.026,5.147-2.264,5.167-5.073c0.02-2.798-2.263-5.133-5.038-5.154
		c-2.855-0.021-5.175,2.257-5.188,5.094C20.538,16.99,22.82,19.304,25.611,19.329z M25.696,10.544
		c2.015,0.01,3.647,1.664,3.641,3.692c-0.006,2.017-1.657,3.655-3.682,3.652c-2.04-0.003-3.675-1.663-3.662-3.716
		C22.005,12.159,23.664,10.534,25.696,10.544z"/>
</g>
</svg>
