<?xml version="1.0" encoding="utf-8"?>
<!-- Generator: Adobe Illustrator 18.1.1, SVG Export Plug-In . SVG Version: 6.00 Build 0)  -->
<svg version="1.1" id="Слой_1" xmlns="http://www.w3.org/2000/svg" xmlns:xlink="http://www.w3.org/1999/xlink" x="0px" y="0px"
	 viewBox="0 0 53.667 61.5" enable-background="new 0 0 53.667 61.5" xml:space="preserve">
<g>
	<path fill="#1E0F00" d="M26.451,36.212l-5.666,5.667c-1.238,1.237-3.264,1.237-4.502,0l-0.576-0.576
		c-1.238-1.238-1.238-3.264,0-4.502l5.667-5.667l-3.227-3.226c-1.238-1.238-3.264-1.238-4.501,0l-9.443,9.442
		c-1.238,1.238-2.121,3.677-1.963,5.42l0.175,1.913c0.158,1.744,1.301,4.184,2.538,5.421L7.48,52.63
		c1.238,1.239,3.677,2.381,5.42,2.539l1.913,0.174c1.744,0.159,4.183-0.724,5.421-1.962l9.442-9.443
		c1.238-1.237,1.238-3.263,0-4.501L26.451,36.212z"/>
	<path fill="#1E0F00" d="M44.417,6.138l-2.325,2.326l1.581,1.582L16.782,36.937c-1.238,1.238-1.381,3.121-0.318,4.184
		s2.946,0.92,4.184-0.318l26.891-26.891l1.582,1.581l2.325-2.326L44.417,6.138z"/>
</g>
</svg>
