<?xml version="1.0" encoding="utf-8"?>
<!-- Generator: Adobe Illustrator 18.1.1, SVG Export Plug-In . SVG Version: 6.00 Build 0)  -->
<svg version="1.1" id="Слой_1" xmlns="http://www.w3.org/2000/svg" xmlns:xlink="http://www.w3.org/1999/xlink" x="0px" y="0px"
	 viewBox="0 0 18.167 26.167" enable-background="new 0 0 18.167 26.167" xml:space="preserve">
<g>
	<path fill="none" d="M9.083,5.078c-1.907,0-3.459,1.611-3.459,3.592c0,1.981,1.552,3.593,3.459,3.593s3.459-1.611,3.459-3.593
		C12.542,6.689,10.991,5.078,9.083,5.078z"/>
	<path fill="none" d="M9.083,1.432c-4.198,0-7.614,3.447-7.614,7.685c0,5.073,6.07,12.961,7.71,14.999
		c1.573-2.176,7.519-10.683,7.519-14.999C16.698,4.88,13.282,1.432,9.083,1.432z M9.083,13.263c-2.459,0-4.459-2.061-4.459-4.593
		s2-4.592,4.459-4.592s4.459,2.06,4.459,4.592S11.542,13.263,9.083,13.263z"/>
	<path fill="#1E0F00" d="M9.083,0.432c-4.75,0-8.614,3.896-8.614,8.685c0,6.198,8.009,15.735,8.35,16.139l0.405,0.479L9.6,25.233
		c0.331-0.44,8.098-10.834,8.098-16.116C17.698,4.328,13.833,0.432,9.083,0.432z M9.179,24.116c-1.64-2.038-7.71-9.926-7.71-14.999
		c0-4.237,3.416-7.685,7.614-7.685s7.614,3.447,7.614,7.685C16.698,13.433,10.752,21.94,9.179,24.116z"/>
	<path fill="#1E0F00" d="M9.083,4.078c-2.459,0-4.459,2.06-4.459,4.592s2,4.593,4.459,4.593s4.459-2.061,4.459-4.593
		S11.542,4.078,9.083,4.078z M9.083,12.263c-1.907,0-3.459-1.611-3.459-3.593c0-1.98,1.552-3.592,3.459-3.592
		s3.459,1.611,3.459,3.592C12.542,10.651,10.991,12.263,9.083,12.263z"/>
</g>
</svg>
