<?xml version="1.0" encoding="utf-8"?>
<!-- Generator: Adobe Illustrator 18.1.1, SVG Export Plug-In . SVG Version: 6.00 Build 0)  -->
<svg version="1.1" id="Слой_1" xmlns="http://www.w3.org/2000/svg" xmlns:xlink="http://www.w3.org/1999/xlink" x="0px" y="0px"
	 viewBox="0 0 23.048 23.458" enable-background="new 0 0 23.048 23.458" xml:space="preserve">
<g>
	<g>
		<g>
			<path fill="#1E0F00" d="M11.394,15.773c-3.872,0-7.022-3.15-7.022-7.022s3.15-7.021,7.022-7.021s7.022,3.149,7.022,7.021
				S15.266,15.773,11.394,15.773z M11.394,2.729c-3.32,0-6.022,2.701-6.022,6.021s2.702,6.022,6.022,6.022s6.022-2.702,6.022-6.022
				S14.714,2.729,11.394,2.729z"/>
		</g>
	</g>
	<g>
		<path fill="#1E0F00" d="M2.506,21.729c-0.14,0-0.276-0.059-0.373-0.167C2,21.413,1.969,21.2,2.053,21.018l3.314-7.131
			c0.115-0.25,0.415-0.36,0.664-0.242c0.25,0.116,0.358,0.413,0.242,0.664l-2.825,6.078l3.228-1.076
			c0.132-0.043,0.275-0.032,0.397,0.036l2.178,1.188l2.149-4.63c0.115-0.251,0.413-0.36,0.664-0.242
			c0.25,0.116,0.358,0.413,0.242,0.664L9.933,21.44c-0.058,0.125-0.165,0.221-0.297,0.264c-0.131,0.042-0.275,0.03-0.396-0.036
			l-2.455-1.339l-4.121,1.375C2.613,21.72,2.559,21.729,2.506,21.729z"/>
	</g>
	<g>
		<path fill="#1E0F00" d="M13.568,21.248c-0.059,0-0.116-0.01-0.172-0.03c-0.13-0.048-0.233-0.146-0.288-0.272l-1.442-3.366
			c-0.108-0.254,0.009-0.548,0.263-0.657c0.253-0.106,0.547,0.008,0.657,0.263l1.233,2.879l2.411-1.205
			c0.113-0.058,0.244-0.068,0.364-0.032l3.047,0.896l-2.682-5.983c-0.113-0.252,0-0.548,0.252-0.66
			c0.251-0.116,0.547-0.001,0.66,0.252l3.126,6.974c0.08,0.178,0.049,0.386-0.079,0.533c-0.129,0.147-0.33,0.206-0.518,0.15
			l-3.899-1.146l-2.71,1.354C13.721,21.23,13.645,21.248,13.568,21.248z"/>
	</g>
</g>
</svg>
