<?xml version="1.0" encoding="utf-8"?>
<!-- Generator: Adobe Illustrator 18.1.1, SVG Export Plug-In . SVG Version: 6.00 Build 0)  -->
<svg version="1.1" id="Слой_1" xmlns="http://www.w3.org/2000/svg" xmlns:xlink="http://www.w3.org/1999/xlink" x="0px" y="0px"
	 viewBox="0 0 16.684 16.684" enable-background="new 0 0 16.684 16.684" xml:space="preserve">
<g>
	<path fill="none" d="M12.203,6.502c0-3.144-2.558-5.701-5.701-5.701S0.801,3.358,0.801,6.502s2.558,5.701,5.701,5.701
		S12.203,9.646,12.203,6.502z"/>
	<path fill="#1E0F00" d="M11.344,10.826l4.773,4.773l0.566-0.566l-4.837-4.837c0.728-1.05,1.157-2.322,1.157-3.693
		C13.004,2.917,10.087,0,6.502,0S0,2.917,0,6.502s2.917,6.502,6.502,6.502c1.372,0,2.643-0.429,3.693-1.157l4.837,4.837l0.566-0.566
		l-4.773-4.773C11.008,11.181,11.181,11.008,11.344,10.826z M0.801,6.502c0-3.144,2.558-5.701,5.701-5.701s5.701,2.558,5.701,5.701
		s-2.558,5.701-5.701,5.701S0.801,9.646,0.801,6.502z"/>
</g>
</svg>
