<?xml version="1.0" encoding="utf-8"?>
<!-- Generator: Adobe Illustrator 18.1.1, SVG Export Plug-In . SVG Version: 6.00 Build 0)  -->
<svg version="1.1" id="Слой_1" xmlns="http://www.w3.org/2000/svg" xmlns:xlink="http://www.w3.org/1999/xlink" x="0px" y="0px"
	 viewBox="0 0 52.084 61.5" enable-background="new 0 0 52.084 61.5" xml:space="preserve">
<g>
	<path fill="none" d="M42.842,29.812c-0.18,0.299-0.54,0.463-0.904,0.41c-0.363-0.052-0.654-0.308-0.73-0.643l-0.465-2.073
		l-2.847,9.386c-0.108,0.355-0.457,0.597-0.849,0.597c-0.02,0-0.041,0-0.061-0.002c-0.417-0.026-0.756-0.321-0.814-0.706
		l-2.347-15.802l-3.021,6.834c-0.136,0.308-0.459,0.509-0.817,0.509h-1.983h-4.021H23.3l-0.899,1.49
		c-0.179,0.299-0.539,0.463-0.903,0.41c-0.364-0.052-0.655-0.308-0.73-0.643l-0.466-2.073l-2.847,9.386
		c-0.108,0.355-0.456,0.597-0.848,0.597c-0.021,0-0.041,0-0.062-0.002c-0.416-0.026-0.756-0.321-0.813-0.706l-2.347-15.802
		l-3.022,6.834c-0.136,0.308-0.458,0.509-0.816,0.509H6.189v10.702h39.707V28.322H43.74L42.842,29.812z"/>
	<path fill="none" d="M6.189,26.681h2.767l4.04-9.137c0.151-0.343,0.534-0.545,0.927-0.502c0.396,0.047,0.708,0.335,0.763,0.702
		l2.217,14.925l2.677-8.828c0.111-0.365,0.481-0.619,0.88-0.598c0.406,0.013,0.75,0.282,0.833,0.653l0.72,3.203
		c0.157-0.258,0.451-0.418,0.77-0.418h1.2h4.021h1.392l4.04-9.137c0.152-0.343,0.534-0.545,0.927-0.502
		c0.396,0.047,0.709,0.335,0.763,0.702l2.217,14.925l2.678-8.828c0.11-0.365,0.479-0.619,0.88-0.598
		c0.406,0.013,0.75,0.282,0.833,0.653l0.72,3.203c0.156-0.258,0.45-0.418,0.769-0.418h2.673V15.502H6.189V26.681z"/>
	<rect x="18.13" y="42.99" fill="#1E0F00" width="15.823" height="3.282"/>
	<rect x="11.778" y="47.366" fill="#1E0F00" width="28.53" height="1.641"/>
	<path fill="#1E0F00" d="M46.337,12.493H5.748c-1.618,0-2.942,1.231-2.942,2.735v24.069c0,1.505,1.324,2.735,2.942,2.735h40.589
		c1.618,0,2.941-1.23,2.941-2.735V15.228C49.278,13.724,47.955,12.493,46.337,12.493z M45.896,39.024H6.189V28.322h3.358
		c0.358,0,0.68-0.201,0.816-0.509l3.022-6.834l2.347,15.802c0.057,0.385,0.397,0.68,0.813,0.706
		c0.021,0.002,0.041,0.002,0.062,0.002c0.392,0,0.74-0.242,0.848-0.597l2.847-9.386l0.466,2.073c0.075,0.335,0.366,0.591,0.73,0.643
		c0.364,0.053,0.724-0.111,0.903-0.41l0.899-1.49h0.683h4.021h1.983c0.358,0,0.681-0.201,0.817-0.509l3.021-6.834l2.347,15.802
		c0.058,0.385,0.397,0.68,0.814,0.706c0.02,0.002,0.041,0.002,0.061,0.002c0.392,0,0.741-0.242,0.849-0.597l2.847-9.386l0.465,2.073
		c0.076,0.335,0.367,0.591,0.73,0.643c0.364,0.053,0.724-0.111,0.904-0.41l0.898-1.49h2.156V39.024z M45.896,26.681h-2.673
		c-0.319,0-0.613,0.16-0.769,0.418l-0.72-3.203c-0.083-0.371-0.427-0.64-0.833-0.653c-0.401-0.021-0.77,0.233-0.88,0.598
		l-2.678,8.828l-2.217-14.925c-0.054-0.367-0.367-0.655-0.763-0.702c-0.393-0.043-0.775,0.159-0.927,0.502l-4.04,9.137h-1.392
		h-4.021h-1.2c-0.319,0-0.613,0.16-0.77,0.418l-0.72-3.203c-0.083-0.371-0.427-0.64-0.833-0.653
		c-0.399-0.021-0.769,0.233-0.88,0.598l-2.677,8.828l-2.217-14.925c-0.055-0.367-0.367-0.655-0.763-0.702
		c-0.393-0.043-0.776,0.159-0.927,0.502l-4.04,9.137H6.189V15.502h39.707V26.681z"/>
</g>
</svg>
