<?xml version="1.0" encoding="utf-8"?>
<!-- Generator: Adobe Illustrator 18.1.1, SVG Export Plug-In . SVG Version: 6.00 Build 0)  -->
<svg version="1.1" id="Слой_1" xmlns="http://www.w3.org/2000/svg" xmlns:xlink="http://www.w3.org/1999/xlink" x="0px" y="0px"
	 viewBox="0 0 42.428 61.5" enable-background="new 0 0 42.428 61.5" xml:space="preserve">
<g>
	<path fill="none" d="M21.048,24.771c-3.392,0-6.167,2.775-6.167,6.167c0,3.391,2.775,6.167,6.167,6.167s6.167-2.776,6.167-6.167
		C27.215,27.546,24.44,24.771,21.048,24.771z"/>
	<path fill="none" d="M21.214,17.875c-7.1,0-12.876,5.775-12.876,12.875c0,7.099,5.776,12.875,12.876,12.875
		c7.099,0,12.874-5.776,12.874-12.875C34.088,23.65,28.313,17.875,21.214,17.875z M21.214,42.5c-6.479,0-11.75-5.271-11.75-11.75
		c0-6.479,5.271-11.75,11.75-11.75s11.75,5.271,11.75,11.75C32.964,37.229,27.693,42.5,21.214,42.5z"/>
	<path fill="#1E0F00" d="M21.214,19c-6.479,0-11.75,5.271-11.75,11.75c0,6.479,5.271,11.75,11.75,11.75s11.75-5.271,11.75-11.75
		C32.964,24.271,27.693,19,21.214,19z M21.048,37.105c-3.392,0-6.167-2.776-6.167-6.167c0-3.392,2.775-6.167,6.167-6.167
		s6.167,2.775,6.167,6.167C27.215,34.329,24.44,37.105,21.048,37.105z"/>
	<path fill="#1E0F00" d="M39.999,30.357c-1.047-0.218-1.964-0.655-2.225-1.92c-0.219-1.266,0.785-1.746,1.789-2.313
		c0.305-0.174,0.523-0.349,0.611-0.523c-0.088-0.306-0.175-0.611-0.262-0.917c-0.218-0.131-0.48-0.218-0.917-0.174
		c-1.091,0.131-2.094,0-2.705-1.135c-0.611-1.134,0.218-1.876,0.96-2.749c0.218-0.262,0.349-0.48,0.393-0.611
		c-0.175-0.262-0.393-0.567-0.568-0.829c-0.218-0.044-0.523,0-0.872,0.131c-1.004,0.436-2.008,0.655-2.924-0.262
		c-0.916-0.873-0.393-1.876,0.087-2.924c0.131-0.261,0.175-0.523,0.175-0.654c-0.262-0.218-0.567-0.436-0.873-0.655
		c-0.218,0.044-0.436,0.175-0.698,0.393c-0.786,0.742-1.702,1.222-2.836,0.655c-1.135-0.568-0.96-1.659-0.83-2.793
		c0.044-0.306,0-0.524,0-0.655c-0.349-0.131-0.698-0.261-1.047-0.392c-0.174,0.087-0.349,0.305-0.524,0.567
		c-0.523,0.916-1.221,1.702-2.487,1.527c-1.265-0.174-1.396-1.265-1.658-2.356c-0.044-0.262-0.131-0.48-0.218-0.611
		c-0.349-0.044-0.742-0.044-1.135-0.044c-0.131,0.175-0.261,0.393-0.305,0.698c-0.218,1.048-0.655,1.964-1.92,2.226
		c-1.266,0.218-1.746-0.785-2.313-1.789c-0.131-0.218-0.262-0.393-0.393-0.524c-0.392,0.087-0.741,0.218-1.091,0.306
		c-0.087,0.174-0.13,0.436-0.087,0.741c0.131,1.091,0,2.095-1.134,2.706c-1.135,0.611-1.877-0.218-2.749-0.96
		c-0.219-0.175-0.393-0.306-0.524-0.349c-0.306,0.218-0.655,0.436-0.96,0.654c0,0.219,0.044,0.437,0.174,0.742
		c0.437,1.004,0.655,2.007-0.261,2.924c-0.873,0.916-1.877,0.393-2.924-0.087c-0.262-0.131-0.48-0.175-0.611-0.175
		c-0.262,0.305-0.48,0.567-0.698,0.873c0.044,0.218,0.174,0.436,0.393,0.654c0.741,0.786,1.221,1.702,0.654,2.837
		c-0.567,1.134-1.658,0.96-2.793,0.829c-0.305-0.044-0.523,0-0.698,0c-0.131,0.349-0.262,0.654-0.392,1.003
		c0.13,0.262,0.305,0.48,0.61,0.655c0.917,0.524,1.702,1.222,1.528,2.487c-0.175,1.266-1.266,1.397-2.4,1.658
		c-0.306,0.088-0.524,0.175-0.698,0.262c-0.044,0.349-0.044,0.698-0.044,1.048c0.174,0.174,0.393,0.305,0.785,0.392
		c1.048,0.218,1.964,0.655,2.226,1.92c0.218,1.266-0.786,1.746-1.789,2.313c-0.306,0.175-0.48,0.349-0.611,0.48
		c0.087,0.305,0.174,0.611,0.262,0.916c0.218,0.131,0.48,0.219,0.916,0.131c1.091-0.131,2.095,0,2.705,1.135
		c0.611,1.134-0.218,1.876-0.96,2.749c-0.261,0.305-0.392,0.524-0.436,0.698c0.175,0.262,0.306,0.48,0.48,0.742
		c0.218,0.044,0.567,0.044,0.96-0.131c1.004-0.436,2.007-0.655,2.924,0.262c0.916,0.873,0.392,1.876-0.088,2.923
		c-0.174,0.393-0.218,0.655-0.218,0.873c0.218,0.175,0.437,0.349,0.655,0.48c0.262,0,0.567-0.087,0.916-0.436
		c0.786-0.742,1.702-1.222,2.837-0.655c1.134,0.568,0.96,1.658,0.829,2.793c-0.044,0.48,0,0.742,0.087,0.916
		c0.218,0.088,0.436,0.175,0.698,0.262c0.262-0.043,0.567-0.262,0.829-0.698c0.524-0.916,1.222-1.702,2.487-1.527
		c1.266,0.174,1.397,1.265,1.659,2.4c0.087,0.48,0.261,0.742,0.392,0.872c0.219,0,0.437,0,0.699,0.044
		c0.218-0.131,0.48-0.393,0.567-0.916c0.218-1.048,0.654-1.964,1.92-2.226c1.265-0.218,1.745,0.786,2.313,1.789
		c0.261,0.437,0.48,0.611,0.654,0.699c0.218-0.044,0.436-0.131,0.611-0.175c0.175-0.174,0.349-0.524,0.306-1.091
		c-0.131-1.091,0-2.094,1.134-2.705c1.135-0.611,1.876,0.218,2.749,0.96c0.349,0.349,0.655,0.436,0.829,0.48
		c0.175-0.131,0.349-0.262,0.568-0.393c0.087-0.218,0.174-0.611-0.088-1.091c-0.436-1.004-0.654-2.007,0.262-2.924
		c0.873-0.916,1.876-0.392,2.924,0.088c0.436,0.174,0.742,0.218,0.916,0.174c0.131-0.174,0.306-0.393,0.436-0.567
		c0-0.262-0.043-0.611-0.436-1.004c-0.742-0.785-1.222-1.701-0.654-2.836c0.567-1.135,1.658-0.96,2.792-0.829
		c0.437,0.043,0.742,0,0.917-0.087c0.087-0.262,0.174-0.48,0.261-0.742c-0.087-0.262-0.261-0.524-0.698-0.786
		c-0.916-0.523-1.702-1.222-1.527-2.487c0.175-1.266,1.265-1.396,2.4-1.658c0.393-0.087,0.655-0.218,0.785-0.306
		c0-0.305,0-0.567,0.044-0.872C40.741,30.662,40.479,30.444,39.999,30.357z M21.214,43.625c-7.1,0-12.876-5.776-12.876-12.875
		c0-7.1,5.776-12.875,12.876-12.875c7.099,0,12.874,5.775,12.874,12.875C34.088,37.849,28.313,43.625,21.214,43.625z"/>
</g>
</svg>
