<?xml version="1.0" encoding="utf-8"?>
<!-- Generator: Adobe Illustrator 18.1.1, SVG Export Plug-In . SVG Version: 6.00 Build 0)  -->
<svg version="1.1" id="Слой_1" xmlns="http://www.w3.org/2000/svg" xmlns:xlink="http://www.w3.org/1999/xlink" x="0px" y="0px"
	 viewBox="0 0 39.875 50.406" enable-background="new 0 0 39.875 50.406" xml:space="preserve">
<g>
	<path fill="none" d="M15.021,7.687H7.185v9.78H1.833v4.995h5.352v19.745c0,1.551,0.253,2.809,0.75,3.74
		c0.492,0.923,1.172,1.643,2.021,2.14c0.872,0.511,1.901,0.861,3.06,1.041c1.967,0.304,4.161,0.318,6.464,0.216
		c0.722-0.034,1.396-0.095,2.012-0.182v-5.917c-0.248,0.037-0.502,0.067-0.762,0.091c-0.473,0.043-0.97,0.065-1.476,0.065
		c-1.648,0-2.742-0.296-3.344-0.905c-0.599-0.607-0.89-1.713-0.89-3.381V22.463h6.471v-4.995h-6.471V7.687z"/>
	<path fill="none" d="M30.888,4.279c-1.054,0-1.863,0.363-2.476,1.11c-0.636,0.777-0.944,1.695-0.944,2.807s0.309,2.03,0.944,2.808
		c0.611,0.747,1.421,1.11,2.476,1.11c1.057,0,1.878-0.365,2.511-1.116c0.654-0.776,0.972-1.693,0.972-2.802
		s-0.317-2.024-0.972-2.801C32.766,4.644,31.944,4.279,30.888,4.279z"/>
	<path fill="none" d="M35.95,3.095c-0.657-0.646-1.423-1.165-2.276-1.539c-0.845-0.37-1.783-0.558-2.786-0.558
		c-0.963,0-1.891,0.188-2.759,0.56c-0.87,0.374-1.634,0.889-2.267,1.531c-0.637,0.647-1.146,1.413-1.515,2.275
		c-0.365,0.859-0.551,1.813-0.551,2.832c0,0.979,0.186,1.924,0.553,2.807c0.366,0.879,0.876,1.653,1.513,2.302
		c0.637,0.645,1.399,1.16,2.268,1.531c1.767,0.758,3.89,0.726,5.545,0.002c0.85-0.372,1.615-0.89,2.276-1.539
		c0.654-0.646,1.172-1.419,1.537-2.297c0.367-0.882,0.554-1.825,0.554-2.806c0-1.021-0.186-1.974-0.552-2.832
		C37.123,4.503,36.605,3.739,35.95,3.095z M34.164,11.643c-0.823,0.977-1.926,1.472-3.276,1.472c-1.354,0-2.448-0.497-3.249-1.478
		c-0.777-0.95-1.171-2.107-1.171-3.44c0-1.332,0.394-2.489,1.171-3.439c0.802-0.98,1.896-1.478,3.249-1.478
		c1.35,0,2.452,0.495,3.275,1.472c0.801,0.951,1.207,2.11,1.207,3.445S34.964,10.691,34.164,11.643z"/>
	<path fill="#1E0F00" d="M16.021,6.687H6.185v9.78H0.833v6.995h5.352v18.745c0,1.717,0.292,3.134,0.868,4.211
		c0.58,1.088,1.387,1.939,2.397,2.532c0.981,0.574,2.129,0.967,3.412,1.166c1.244,0.191,2.578,0.289,3.964,0.289
		c0.878,0,1.777-0.021,2.699-0.063c0.93-0.042,1.787-0.129,2.549-0.258l0.417-0.07v-7.977l-0.601,0.122
		c-0.393,0.081-0.813,0.142-1.252,0.181c-0.442,0.041-0.904,0.062-1.385,0.062c-1.679,0-2.357-0.331-2.631-0.608
		c-0.275-0.278-0.603-0.969-0.603-2.678V23.463h6.471v-6.995h-6.471V6.687z M21.491,17.468v4.995h-6.471v16.653
		c0,1.668,0.291,2.773,0.89,3.381c0.602,0.609,1.695,0.905,3.344,0.905c0.506,0,1.003-0.022,1.476-0.065
		c0.26-0.023,0.514-0.054,0.762-0.091v5.917c-0.615,0.087-1.29,0.147-2.012,0.182c-2.303,0.103-4.497,0.088-6.464-0.216
		c-1.158-0.18-2.188-0.53-3.06-1.041c-0.85-0.497-1.529-1.217-2.021-2.14c-0.497-0.932-0.75-2.189-0.75-3.74V22.463H1.833v-4.995
		h5.352v-9.78h7.836v9.78H21.491z"/>
	<path fill="#1E0F00" d="M38.41,4.972c-0.419-0.981-1.01-1.853-1.758-2.59c-0.745-0.732-1.611-1.318-2.577-1.742
		c-1.909-0.836-4.315-0.869-6.34-0.001c-0.991,0.425-1.86,1.014-2.586,1.749c-0.725,0.736-1.305,1.605-1.722,2.585
		c-0.419,0.984-0.631,2.068-0.631,3.224c0,1.112,0.212,2.186,0.629,3.19c0.417,0.998,0.996,1.88,1.725,2.62
		c0.728,0.737,1.598,1.326,2.586,1.749c0.99,0.424,2.051,0.639,3.151,0.639c1.144,0,2.216-0.216,3.188-0.641
		c0.962-0.421,1.828-1.007,2.578-1.743c0.749-0.74,1.341-1.623,1.759-2.624c0.418-1.004,0.63-2.077,0.63-3.19
		C39.042,7.041,38.829,5.956,38.41,4.972z M37.488,11.002c-0.365,0.878-0.883,1.651-1.537,2.297
		c-0.661,0.649-1.427,1.167-2.276,1.539c-1.655,0.724-3.778,0.756-5.545-0.002c-0.868-0.371-1.631-0.887-2.268-1.531
		c-0.637-0.648-1.146-1.423-1.513-2.302c-0.367-0.883-0.553-1.827-0.553-2.807c0-1.02,0.186-1.973,0.551-2.832
		c0.368-0.862,0.878-1.628,1.515-2.275c0.633-0.643,1.396-1.157,2.267-1.531c0.868-0.371,1.796-0.56,2.759-0.56
		c1.003,0,1.941,0.188,2.786,0.558c0.854,0.374,1.619,0.893,2.276,1.539c0.655,0.645,1.173,1.408,1.54,2.27
		c0.366,0.858,0.552,1.812,0.552,2.832C38.042,9.177,37.855,10.12,37.488,11.002z"/>
	<path fill="#1E0F00" d="M30.888,3.279c-1.354,0-2.447,0.497-3.249,1.478c-0.777,0.95-1.171,2.107-1.171,3.439
		c0,1.333,0.394,2.49,1.171,3.44c0.801,0.98,1.895,1.478,3.249,1.478c1.351,0,2.453-0.495,3.276-1.472
		c0.8-0.951,1.206-2.111,1.206-3.446s-0.406-2.494-1.207-3.445C33.34,3.774,32.237,3.279,30.888,3.279z M33.398,10.998
		c-0.633,0.751-1.454,1.116-2.511,1.116c-1.055,0-1.864-0.363-2.476-1.11c-0.636-0.777-0.944-1.696-0.944-2.808
		s0.309-2.029,0.944-2.807c0.612-0.747,1.422-1.11,2.476-1.11c1.057,0,1.878,0.365,2.511,1.116c0.654,0.776,0.972,1.692,0.972,2.801
		S34.053,10.222,33.398,10.998z"/>
</g>
</svg>
