<?xml version="1.0" encoding="utf-8"?>
<!-- Generator: Adobe Illustrator 18.1.1, SVG Export Plug-In . SVG Version: 6.00 Build 0)  -->
<svg version="1.1" id="Слой_1" xmlns="http://www.w3.org/2000/svg" xmlns:xlink="http://www.w3.org/1999/xlink" x="0px" y="0px"
	 viewBox="0 0 40.333 50.406" enable-background="new 0 0 40.333 50.406" xml:space="preserve">
<g>
	<path fill="none" d="M26.942,21.596c-0.535,2.827-1.064,5.655-1.611,8.48c-0.049,0.253-0.005,0.41,0.177,0.588
		c1.237,1.21,2.464,2.43,3.695,3.646c0.086,0.085,0.18,0.162,0.269,0.242l0.074-0.032c-0.825-4.355-1.651-8.71-2.476-13.065
		c-0.029,0.001-0.058,0.002-0.087,0.003C26.969,21.504,26.951,21.549,26.942,21.596z"/>
	<path fill="none" d="M27.012,17.415h0.006c1.36-0.003,2.441-1.083,2.435-2.433c-0.006-1.314-1.1-2.379-2.441-2.379h-0.009
		c-1.335,0.005-2.418,1.086-2.416,2.413C24.59,16.338,25.679,17.415,27.012,17.415z"/>
	<path fill="none" d="M22.155,38.197c0.605-0.807,0.764-1.7,0.932-2.597c0.892-4.751,1.797-9.5,2.697-14.249
		c0.175-0.928,0.347-1.857,0.52-2.777c-0.449-0.185-0.864-0.356-1.322-0.544c-0.36,2.01-0.716,3.996-1.071,5.982
		c-0.752,4.207-1.494,8.416-2.264,12.619C21.528,37.28,21.928,37.679,22.155,38.197z"/>
	<rect x="26.437" y="7.834" fill="none" width="1.174" height="3.606"/>
	<path fill="none" d="M30.54,38.227c-0.189-0.391-0.34-0.801-0.519-1.196c-0.085-0.186-0.162-0.394-0.302-0.534
		c-1.464-1.465-2.94-2.918-4.413-4.374c-0.085-0.083-0.178-0.158-0.305-0.27c-0.218,1.136-0.458,2.206-0.621,3.287
		c-0.215,1.43-0.585,2.796-1.342,4.05c-0.314,0.519-0.554,1.08-0.855,1.676c-0.092-0.162-0.156-0.265-0.211-0.372
		c-0.407-0.802-0.822-1.6-1.212-2.411c-0.108-0.225-0.234-0.32-0.476-0.32c-0.013,0-0.026,0.001-0.039,0.001
		c-0.233,0.009-0.467,0.012-0.7,0.012c-0.326,0-0.65-0.006-0.969-0.006v-1.182c0.298,0,0.587-0.009,0.87-0.009
		c0.187,0,0.372,0.004,0.557,0.017c0.035,0.003,0.069,0.004,0.101,0.004c0.299,0,0.467-0.113,0.424-0.454
		c-0.02-0.163-0.089-0.354-0.203-0.466c-3.723-3.696-7.455-7.384-11.186-11.073c-0.076-0.075-0.16-0.143-0.281-0.251v12.238h8.436
		v1.154H7.666V21.434c4.42,4.374,8.769,8.678,13.137,13c0.032-0.073,0.067-0.125,0.077-0.182c0.31-1.73,0.61-3.462,0.93-5.19
		c0.047-0.252-0.006-0.411-0.186-0.589C15.461,22.387,9.305,16.296,3.146,10.207c-0.1-0.099-0.208-0.191-0.357-0.328v3.345h2.984
		v1.194H2.8v2.413h1.764v1.179H2.798v2.412h2.98V21.6H2.796v2.413h1.772v1.18H2.796v2.414H5.78v1.191H2.808v2.414H4.57v1.18H2.805
		v2.413h2.978v1.178h-2.98v2.413h1.77v1.178H2.801v2.981h2.421v-2.939h1.207v2.94h2.44v-1.743h1.192v1.744H12.5v-2.944h1.193v2.947
		h2.439v-1.751h1.192v1.74h2.452v-2.941h1.192v2.943h2.439v-1.746h1.194v1.747h2.44v-2.946h1.192v2.947h2.44v-1.769h1.115
		c-0.06-0.145-0.097-0.247-0.145-0.344C31.275,39.702,30.898,38.969,30.54,38.227z"/>
	<path fill="none" d="M31.91,42.559h3.823c-1.033-1.028-2.073-2.063-3.104-3.088C31.944,40.369,31.683,41.403,31.91,42.559z"/>
	<path fill="none" d="M32.406,36.739c-0.279-1.469-0.533-2.943-0.795-4.415c-0.696-3.901-1.391-7.802-2.088-11.702
		c-0.154-0.864-0.312-1.728-0.469-2.594c-0.453,0.187-0.868,0.358-1.317,0.543c0.168,0.909,0.335,1.826,0.509,2.741
		c0.977,5.155,1.947,10.311,2.95,15.461c0.095,0.491,0.401,0.942,0.609,1.412c0.039-0.006,0.077-0.011,0.116-0.017
		C32.075,37.69,32.518,37.33,32.406,36.739z"/>
	<path fill="#1E0F00" d="M38.423,43.427c-1.653-1.63-3.298-3.268-4.96-4.89c-0.22-0.216-0.239-0.372-0.098-0.637
		c0.141-0.265,0.321-0.591,0.277-0.857c-0.451-2.705-0.943-5.402-1.426-8.102c-0.696-3.889-1.397-7.778-2.083-11.669
		c-0.033-0.19,0.008-0.425,0.097-0.598c0.837-1.631,0.383-3.525-1.134-4.586c-0.198-0.138-0.275-0.274-0.273-0.515
		c0.012-1.522,0.006-3.045,0.007-4.567V6.655h-3.618c0,1.636-0.007,3.244,0.006,4.853c0.003,0.277-0.078,0.441-0.313,0.608
		c-1.463,1.037-1.918,2.933-1.131,4.503c0.108,0.214,0.157,0.502,0.116,0.736c-0.459,2.666-0.941,5.328-1.418,7.99
		c-0.111,0.622-0.227,1.242-0.358,1.955C15.249,20.51,8.446,13.783,1.61,7.023v36.728h37.047c0.022-0.033,0.044-0.066,0.066-0.098
		C38.623,43.578,38.511,43.514,38.423,43.427z M26.437,7.834h1.174v3.606h-1.174V7.834z M27.003,12.603h0.009
		c1.341,0,2.435,1.065,2.441,2.379c0.006,1.35-1.075,2.43-2.435,2.433h-0.006c-1.333,0-2.422-1.077-2.425-2.399
		C24.585,13.689,25.668,12.608,27.003,12.603z M27.07,21.455c0.825,4.355,1.651,8.71,2.476,13.065l-0.074,0.032
		c-0.089-0.08-0.183-0.157-0.269-0.242c-1.231-1.216-2.458-2.436-3.695-3.646c-0.182-0.178-0.226-0.335-0.177-0.588
		c0.547-2.825,1.076-5.653,1.611-8.48c0.009-0.047,0.027-0.092,0.041-0.138C27.012,21.457,27.041,21.456,27.07,21.455z
		 M23.911,24.012c0.355-1.986,0.711-3.972,1.071-5.982c0.458,0.188,0.873,0.359,1.322,0.544c-0.173,0.92-0.345,1.849-0.52,2.777
		c-0.9,4.749-1.805,9.498-2.697,14.249c-0.168,0.897-0.327,1.79-0.932,2.597c-0.227-0.518-0.627-0.917-0.508-1.566
		C22.417,32.428,23.159,28.219,23.911,24.012z M30.673,40.784v1.769h-2.44v-2.947h-1.192v2.946h-2.44v-1.747h-1.194v1.746h-2.439
		v-2.943h-1.192v2.941h-2.452v-1.74h-1.192v1.751h-2.439v-2.947H12.5v2.944h-2.439v-1.744H8.869v1.743h-2.44v-2.94H5.222v2.939
		H2.801v-2.981h1.772v-1.178h-1.77v-2.413h2.98v-1.178H2.805v-2.413H4.57v-1.18H2.808v-2.414H5.78v-1.191H2.796v-2.414h1.772v-1.18
		H2.796V21.6h2.982v-1.178h-2.98V18.01h1.766v-1.179H2.8v-2.413h2.973v-1.194H2.789V9.879c0.149,0.137,0.257,0.229,0.357,0.328
		c6.159,6.089,12.315,12.18,18.478,18.266c0.18,0.178,0.233,0.337,0.186,0.589c-0.32,1.728-0.62,3.46-0.93,5.19
		c-0.01,0.057-0.045,0.109-0.077,0.182c-4.368-4.322-8.717-8.626-13.137-13v16.314h9.628v-1.154H8.858V24.356
		c0.121,0.108,0.205,0.176,0.281,0.251c3.731,3.689,7.463,7.377,11.186,11.073c0.114,0.112,0.183,0.303,0.203,0.466
		c0.043,0.341-0.125,0.454-0.424,0.454c-0.032,0-0.066-0.001-0.101-0.004c-0.185-0.013-0.37-0.017-0.557-0.017
		c-0.283,0-0.572,0.009-0.87,0.009v1.182c0.319,0,0.643,0.006,0.969,0.006c0.233,0,0.467-0.003,0.7-0.012
		c0.013,0,0.026-0.001,0.039-0.001c0.242,0,0.368,0.095,0.476,0.32c0.39,0.811,0.805,1.609,1.212,2.411
		c0.055,0.107,0.119,0.21,0.211,0.372c0.301-0.596,0.541-1.157,0.855-1.676c0.757-1.254,1.127-2.62,1.342-4.05
		c0.163-1.081,0.403-2.151,0.621-3.287c0.127,0.112,0.22,0.187,0.305,0.27c1.473,1.456,2.949,2.909,4.413,4.374
		c0.14,0.14,0.217,0.348,0.302,0.534c0.179,0.395,0.33,0.805,0.519,1.196c0.358,0.742,0.735,1.475,1.103,2.213
		c0.048,0.097,0.085,0.199,0.145,0.344H30.673z M31.196,36.773c-1.003-5.15-1.973-10.306-2.95-15.461
		c-0.174-0.915-0.341-1.832-0.509-2.741c0.449-0.185,0.864-0.356,1.317-0.543c0.157,0.866,0.315,1.73,0.469,2.594
		c0.697,3.9,1.392,7.801,2.088,11.702c0.262,1.472,0.516,2.946,0.795,4.415c0.112,0.591-0.331,0.951-0.485,1.429
		c-0.039,0.006-0.077,0.011-0.116,0.017C31.597,37.715,31.291,37.264,31.196,36.773z M31.91,42.559
		c-0.227-1.156,0.034-2.19,0.719-3.088c1.031,1.025,2.071,2.06,3.104,3.088H31.91z"/>
</g>
</svg>
