<?xml version="1.0" encoding="utf-8"?>
<!-- Generator: Adobe Illustrator 18.1.1, SVG Export Plug-In . SVG Version: 6.00 Build 0)  -->
<svg version="1.1" id="Слой_1" xmlns="http://www.w3.org/2000/svg" xmlns:xlink="http://www.w3.org/1999/xlink" x="0px" y="0px"
	 viewBox="0 0 55 50.406" enable-background="new 0 0 55 50.406" xml:space="preserve">
<g>
	<path fill="none" d="M12.38,14.608c0.729,6.067,8.036,6.946,15.914,6.946c7.985,0,15.376-0.909,15.934-7.201l-1.041-1.807h0.979
		c-0.943-4.573-7.951-8.385-15.872-8.385c-7.92,0-14.927,3.812-15.87,8.385h1.145L12.38,14.608z M18.778,13.592l0.008,0.03
		c1.562-1.923,5.235-3.277,9.508-3.277c4.331,0,8.041,1.392,9.565,3.356l1.798,1.796L38.6,15.779
		c-0.061,3.464-3.43,5.151-10.306,5.151c-6.864,0-10.233-1.683-10.304-5.135l-1.12-0.299L18.778,13.592z"/>
	<path fill="none" d="M44.228,36.053c-0.558-6.292-7.949-7.2-15.934-7.2c-7.877,0-15.184,0.879-15.915,6.945l1.19,2.063h-1.146
		c0.943,4.574,7.951,8.386,15.871,8.386c7.921,0,14.929-3.812,15.872-8.386h-0.979L44.228,36.053z M28.294,40.062
		c-4.273,0-7.947-1.354-9.509-3.278l-0.008,0.03l-1.908-1.905l1.12-0.299c0.072-3.452,3.44-5.134,10.304-5.134
		c6.875,0,10.245,1.688,10.305,5.151l1.058,0.283l-1.801,1.799C36.329,38.671,32.622,40.062,28.294,40.062z"/>
	<path fill="none" d="M18.499,15.932c0.166,3.023,3.368,4.499,9.795,4.499c6.439,0,9.643-1.481,9.797-4.515l-1.037,0.277
		l0.539-2.011c-1.317-1.914-5.041-3.337-9.299-3.337c-4.302,0-8.063,1.452-9.343,3.396l0.523,1.952L18.499,15.932z"/>
	<path fill="none" d="M37.054,34.213l1.036,0.277c-0.155-3.034-3.357-4.515-9.796-4.515c-6.427,0-9.629,1.476-9.795,4.498
		l0.974-0.26l-0.522,1.951c1.28,1.945,5.04,3.396,9.343,3.396c4.259,0,7.982-1.423,9.299-3.338L37.054,34.213z"/>
	<path fill="#1E0F00" d="M28.294,20.931c6.876,0,10.246-1.688,10.306-5.151l1.057-0.283l-1.798-1.796
		c-1.525-1.964-5.234-3.356-9.565-3.356c-4.273,0-7.947,1.354-9.508,3.277l-0.008-0.03l-1.908,1.905l1.12,0.299
		C18.061,19.248,21.43,20.931,28.294,20.931z M28.294,10.845c4.259,0,7.982,1.423,9.299,3.337l-0.539,2.011l1.037-0.277
		c-0.155,3.034-3.358,4.515-9.797,4.515c-6.427,0-9.629-1.476-9.795-4.499l0.975,0.26l-0.523-1.952
		C20.231,12.296,23.992,10.845,28.294,10.845z"/>
	<polygon fill="#1E0F00" points="52.691,24.954 52.691,23.857 50.788,24.954 4.087,24.954 4.087,23.858 1.753,25.202 4.087,26.549 
		4.087,25.454 50.794,25.454 52.691,26.55 52.691,25.454 53.247,25.454 53.247,24.954 	"/>
	<path fill="#1E0F00" d="M7.218,17.581l0.891-0.515c3.343,5.411,11.513,6.314,20.185,6.314c8.66,0,16.819-0.901,20.172-6.29
		l0.918,0.53l-0.002-2.441c0.447-1.268,0.691-2.724,0.691-4.402c0-2.789-1.296-5.573-3.749-8.049l-0.355,0.351
		c2.358,2.381,3.604,5.043,3.604,7.698c0,1.727-0.274,3.209-0.773,4.486l-1.749,1.01l0.959,0.554
		c-3.27,5.187-11.248,6.053-19.716,6.053c-8.481,0-16.469-0.869-19.73-6.077l0.988-0.571l-1.79-1.033
		c-0.483-1.262-0.746-2.724-0.746-4.422c0-2.651,1.241-5.306,3.589-7.68l-0.356-0.352c-2.442,2.469-3.733,5.246-3.733,8.032
		c0,1.695,0.248,3.165,0.704,4.441L7.218,17.581z"/>
	<path fill="#1E0F00" d="M11.853,14.237c0.465,6.835,8.142,7.817,16.441,7.817c8.17,0,15.74-0.947,16.421-7.493l1.163-2.015h-1.201
		c-0.927-4.841-8.182-8.885-16.383-8.885c-8.199,0-15.454,4.044-16.381,8.885h-1.035L11.853,14.237z M28.294,4.161
		c7.921,0,14.929,3.812,15.872,8.385h-0.979l1.041,1.807c-0.558,6.292-7.949,7.201-15.934,7.201c-7.877,0-15.184-0.879-15.914-6.946
		l1.189-2.062h-1.145C13.367,7.973,20.374,4.161,28.294,4.161z"/>
	<path fill="#1E0F00" d="M4.449,20.22l0.853-0.853c5.301,4.44,14.476,5.101,22.992,5.101c8.315,0,17.255-0.633,22.606-4.795
		l2.342-0.626l-0.793-0.793c0.258-0.279,0.514-0.561,0.746-0.865l-0.398-0.303c-0.218,0.286-0.46,0.55-0.703,0.813l-0.758-0.758
		l-0.534,1.988c-5.203,4.213-14.173,4.838-22.508,4.838c-8.405,0-17.455-0.641-22.637-4.955l0.697-0.697l-1.952-0.524
		c-0.208-0.231-0.421-0.457-0.61-0.706l-0.398,0.303c0.133,0.175,0.288,0.331,0.43,0.498L4.449,20.22z"/>
	<path fill="#1E0F00" d="M44.715,35.846c-0.68-6.546-8.252-7.493-16.421-7.493c-8.301,0-15.979,0.982-16.442,7.818l-0.975,1.69
		h1.035c0.927,4.842,8.182,8.886,16.382,8.886s15.456-4.044,16.383-8.886h1.2L44.715,35.846z M28.294,46.247
		c-7.92,0-14.928-3.812-15.871-8.386h1.146l-1.19-2.063c0.73-6.066,8.037-6.945,15.915-6.945c7.985,0,15.375,0.908,15.934,7.2
		l-1.041,1.808h0.979C43.223,42.434,36.215,46.247,28.294,46.247z"/>
	<path fill="#1E0F00" d="M49.384,32.786l-0.918,0.53c-3.353-5.389-11.512-6.29-20.171-6.29c-8.672,0-16.843,0.903-20.186,6.314
		l-0.89-0.514l0.002,2.36c-0.457,1.277-0.704,2.747-0.704,4.443c0,2.786,1.291,5.565,3.734,8.033l0.355-0.351
		c-2.347-2.374-3.589-5.03-3.589-7.682c0-1.697,0.262-3.158,0.745-4.419l1.792-1.036l-0.989-0.571
		c3.26-5.209,11.25-6.077,19.731-6.077c8.468,0,16.446,0.865,19.716,6.053l-0.96,0.554l1.75,1.01
		c0.499,1.277,0.772,2.759,0.772,4.486c0,2.656-1.247,5.319-3.604,7.697l0.355,0.352c2.453-2.475,3.749-5.258,3.749-8.049
		c0-1.679-0.244-3.135-0.691-4.403L49.384,32.786z"/>
	<path fill="#1E0F00" d="M38.599,34.627c-0.061-3.463-3.43-5.151-10.305-5.151c-6.864,0-10.233,1.682-10.304,5.134l-1.12,0.299
		l1.908,1.905l0.008-0.03c1.562,1.923,5.235,3.278,9.509,3.278c4.328,0,8.035-1.391,9.562-3.353l1.801-1.799L38.599,34.627z
		 M28.294,39.562c-4.303,0-8.063-1.452-9.343-3.396l0.522-1.951l-0.974,0.26c0.166-3.023,3.368-4.498,9.795-4.498
		c6.439,0,9.641,1.481,9.796,4.515l-1.036-0.277l0.539,2.01C36.276,38.138,32.553,39.562,28.294,39.562z"/>
	<path fill="#1E0F00" d="M50.901,30.734c-5.351-4.162-14.292-4.795-22.607-4.795c-8.517,0-17.691,0.661-22.992,5.1l-0.853-0.853
		l-0.625,2.331c-0.143,0.167-0.297,0.324-0.431,0.5l0.399,0.303c0.189-0.248,0.402-0.474,0.609-0.705l1.952-0.525l-0.697-0.696
		c5.182-4.314,14.231-4.955,22.637-4.955c8.334,0,17.306,0.625,22.508,4.839l0.533,1.987l0.758-0.757
		c0.243,0.263,0.485,0.527,0.703,0.813l0.398-0.303c-0.231-0.304-0.488-0.586-0.746-0.865l0.791-0.79L50.901,30.734z"/>
</g>
</svg>
