<?xml version="1.0" encoding="utf-8"?>
<!-- Generator: Adobe Illustrator 18.1.1, SVG Export Plug-In . SVG Version: 6.00 Build 0)  -->
<svg version="1.1" id="Слой_1" xmlns="http://www.w3.org/2000/svg" xmlns:xlink="http://www.w3.org/1999/xlink" x="0px" y="0px"
	 viewBox="0 0 44.917 61.5" enable-background="new 0 0 44.917 61.5" xml:space="preserve">
<g>
	<polygon fill="none" points="23.824,26.506 21.094,26.506 22.459,27.249 	"/>
	<polygon fill="none" points="19.921,19.144 21.713,18.152 19.921,17.158 	"/>
	<polygon fill="none" points="19.922,20.354 19.922,22.245 21.692,21.301 	"/>
	<polygon fill="none" points="20.95,23.208 22.458,24.052 23.967,23.208 	"/>
	<polygon fill="none" points="21.008,22.485 23.91,22.485 22.458,21.71 	"/>
	<polygon fill="none" points="19.924,23.462 19.924,25.469 21.718,24.465 	"/>
	<polygon fill="none" points="22.459,18.565 20.321,19.749 22.459,20.891 24.596,19.749 	"/>
	<polygon fill="none" points="24.997,25.472 24.996,23.46 23.199,24.465 	"/>
	<polygon fill="none" points="24.995,22.245 24.995,20.356 23.226,21.301 	"/>
	<polygon fill="none" points="21.703,27.661 19.925,26.692 19.926,28.627 	"/>
	<polygon fill="none" points="22.458,28.072 20.984,28.876 23.934,28.876 	"/>
	<polygon fill="none" points="24.997,26.691 23.214,27.661 24.999,28.632 	"/>
	<polygon fill="none" points="22.459,51.842 28.125,50.215 22.459,48.362 16.794,50.215 	"/>
	<polygon fill="none" points="22.458,44.16 17.48,45.97 22.459,47.6 27.438,45.97 	"/>
	<polygon fill="none" points="10.274,25.784 19.209,25.784 19.208,23.32 	"/>
	<polygon fill="none" points="25.653,32.742 25.284,30.803 23.334,31.689 	"/>
	<polygon fill="none" points="30.746,16.186 25.707,13.869 25.708,16.186 	"/>
	<polygon fill="none" points="14.17,16.186 19.205,16.186 19.204,13.871 	"/>
	<polygon fill="none" points="20.952,13.67 22.459,14.515 23.967,13.67 	"/>
	<polygon fill="none" points="22.458,17.737 24.61,16.546 22.458,15.341 20.307,16.546 	"/>
	<polygon fill="none" points="22.459,24.88 20.846,25.784 24.073,25.784 	"/>
	<polygon fill="none" points="22.458,39.934 18.135,41.818 22.458,43.39 26.781,41.818 	"/>
	<polygon fill="none" points="24.993,19.143 24.993,17.161 23.204,18.152 	"/>
	<polygon fill="none" points="22.458,35.672 18.813,37.558 22.458,39.145 26.104,37.558 	"/>
	<polygon fill="none" points="22.458,32.085 19.606,33.38 22.458,34.856 25.312,33.38 	"/>
	<polygon fill="none" points="30.494,58.157 29.87,54.875 23.89,56.436 	"/>
	<polygon fill="none" points="22.459,52.595 16.132,54.412 22.458,56.061 28.785,54.412 	"/>
	<polygon fill="none" points="29.686,53.918 29.073,50.695 23.769,52.219 	"/>
	<polygon fill="none" points="14.422,58.157 21.027,56.436 15.046,54.875 	"/>
	<polygon fill="none" points="15.843,50.694 15.229,53.918 21.15,52.219 	"/>
	<polygon fill="none" points="28.885,49.703 28.267,46.46 23.622,47.981 	"/>
	<polygon fill="none" points="28.071,45.431 27.48,42.333 23.517,43.775 	"/>
	<polygon fill="none" points="25.713,25.784 34.644,25.784 25.712,23.321 	"/>
	<polygon fill="none" points="16.649,46.458 16.031,49.705 21.297,47.981 	"/>
	<polygon fill="none" points="27.273,41.244 26.673,38.098 23.364,39.54 	"/>
	<polygon fill="none" points="26.45,36.923 25.874,33.903 23.245,35.263 	"/>
	<polygon fill="none" points="19.628,30.801 19.258,32.743 21.583,31.689 	"/>
	<polygon fill="none" points="22.892,3.212 22.492,3.212 23.028,3.871 	"/>
	<polygon fill="none" points="21.718,14.928 19.919,13.922 19.92,15.933 	"/>
	<polygon fill="none" points="20.941,8.451 20.074,12.63 24.073,10.515 	"/>
	<polygon fill="none" points="21.933,3.669 21.267,6.878 23.182,5.208 	"/>
	<polygon fill="none" points="24.916,12.948 24.53,11.091 21.021,12.948 	"/>
	<polygon fill="none" points="24.256,9.771 23.456,5.928 21.292,7.818 	"/>
	<polygon fill="none" points="25.144,30.072 25.054,29.598 19.858,29.598 19.768,30.07 22.458,31.293 	"/>
	<polygon fill="none" points="19.039,33.901 18.464,36.924 21.671,35.263 	"/>
	<polygon fill="none" points="18.24,38.095 17.641,41.245 21.553,39.54 	"/>
	<polygon fill="none" points="24.992,15.932 24.991,13.924 23.199,14.928 	"/>
	<polygon fill="none" points="17.434,42.333 16.844,45.432 21.401,43.775 	"/>
	<path fill="#1E0F00" d="M36.303,26.506h1.011c0.181,0,0.334-0.135,0.358-0.313c0.025-0.181-0.088-0.349-0.261-0.397l-11.699-3.227
		l-0.001-2.758c0.002-0.018,0.004-0.036,0.004-0.054c0-0.02-0.001-0.039-0.004-0.059l-0.002-2.791h6.689
		c0.171,0,0.317-0.117,0.353-0.283c0.036-0.167-0.048-0.335-0.201-0.407l-6.879-3.162l-1.633-7.872c0-0.005-0.001-0.01-0.002-0.015
		l-0.496-2.392c-0.035-0.168-0.182-0.288-0.354-0.288h-1.447c-0.074-0.01-0.163,0.025-0.231,0.08S21.395,2.7,21.379,2.778
		l-1.024,4.959c-0.01,0.03-0.018,0.062-0.02,0.094l-1.078,5.222l-6.889,3.165c-0.155,0.072-0.239,0.24-0.202,0.407
		c0.036,0.166,0.183,0.283,0.354,0.283h6.686l0.001,2.803c-0.002,0.015-0.002,0.031-0.002,0.047c0,0.015,0,0.026,0.002,0.041v2.77
		L7.508,25.796c-0.175,0.048-0.286,0.216-0.261,0.397c0.024,0.178,0.177,0.313,0.357,0.313h1.01
		c-0.295,2.641-2.348,5.033-5.567,6.872v0.803c3.033-1.662,5.177-3.794,5.987-6.177c0.954,2.797,3.737,5.253,7.653,7.002V34.24
		c-4.17-1.918-6.913-4.66-7.254-7.734h9.776l0.001,2.655c-0.004,0.014-0.005,0.026-0.006,0.038l-0.187,0.985
		c-0.006,0.021-0.011,0.044-0.013,0.065l-0.575,3.018c-0.004,0.015-0.008,0.033-0.009,0.049l-0.795,4.176
		c-0.005,0.018-0.009,0.033-0.011,0.05l-0.802,4.213c-0.005,0.015-0.008,0.034-0.01,0.053l-0.781,4.101
		c-0.001,0.006-0.002,0.015-0.004,0.023l-0.805,4.228c-0.003,0.008-0.004,0.014-0.005,0.02l-0.792,4.156
		c-0.004,0.015-0.008,0.033-0.009,0.048l-0.799,4.193c-0.006,0.029-0.008,0.057-0.008,0.085c0.001,0.045,0.01,0.087,0.028,0.127
		c0.02,0.049,0.05,0.093,0.088,0.128c0.038,0.034,0.082,0.062,0.133,0.078c0.036,0.013,0.074,0.018,0.113,0.018
		c0.036,0,0.067-0.004,0.098-0.014l8.399-2.191l8.399,2.191c0.029,0.009,0.058,0.013,0.088,0.014h0.011
		c0.039,0,0.078-0.005,0.113-0.018c0.052-0.016,0.098-0.045,0.136-0.08c0.036-0.035,0.065-0.077,0.085-0.124
		c0.016-0.04,0.026-0.082,0.028-0.126c0-0.03-0.001-0.059-0.009-0.088l-0.795-4.178c-0.003-0.026-0.008-0.053-0.016-0.078
		l-0.783-4.105c-0.001-0.031-0.008-0.062-0.016-0.092l-0.793-4.154c-0.001-0.033-0.008-0.069-0.019-0.099l-0.77-4.038
		c-0.001-0.035-0.009-0.07-0.02-0.103l-0.792-4.155c-0.001-0.039-0.009-0.077-0.023-0.112L26.5,33.351v-0.003
		c-0.001-0.04-0.01-0.08-0.024-0.118l-0.562-2.946c0-0.044-0.008-0.088-0.025-0.133l-0.175-0.915v-0.008l-0.001-2.723h9.771
		c-0.341,3.074-3.084,5.816-7.254,7.735v0.766c3.917-1.75,6.699-4.207,7.652-7.003c0.812,2.382,2.954,4.514,5.988,6.177v-0.803
		C38.65,31.539,36.599,29.147,36.303,26.506z M14.17,16.186l5.033-2.314l0.001,2.314H14.17z M10.274,25.784l8.933-2.464l0.001,2.464
		H10.274z M30.746,16.186h-5.037l-0.001-2.317L30.746,16.186z M25.653,32.742l-2.319-1.053l1.95-0.886L25.653,32.742z M17.48,45.97
		l4.978-1.809l4.98,1.809L22.459,47.6L17.48,45.97z M28.125,50.215l-5.665,1.627l-5.665-1.627l5.665-1.853L28.125,50.215z
		 M18.135,41.818l4.323-1.885l4.323,1.885l-4.323,1.572L18.135,41.818z M18.813,37.558l3.645-1.886l3.646,1.886l-3.646,1.587
		L18.813,37.558z M19.606,33.38l2.852-1.295l2.854,1.295l-2.854,1.476L19.606,33.38z M24.61,16.546l-2.152,1.191l-2.151-1.191
		l2.151-1.205L24.61,16.546z M20.952,13.67h3.015l-1.508,0.844L20.952,13.67z M20.846,25.784l1.613-0.903l1.613,0.903H20.846z
		 M23.824,26.506l-1.365,0.743l-1.366-0.743H23.824z M22.458,24.052l-1.508-0.844h3.017L22.458,24.052z M21.008,22.485l1.45-0.775
		l1.452,0.775H21.008z M20.321,19.749l2.138-1.184l2.137,1.184l-2.137,1.142L20.321,19.749z M21.713,18.152l-1.792,0.993v-1.986
		L21.713,18.152z M19.922,20.354l1.769,0.946l-1.769,0.945V20.354z M19.924,23.462l1.794,1.004l-1.794,1.004V23.462z M21.703,27.661
		l-1.777,0.966l-0.001-1.935L21.703,27.661z M22.458,28.072l1.476,0.804h-2.95L22.458,28.072z M23.214,27.661l1.783-0.97
		l0.001,1.941L23.214,27.661z M24.997,25.472l-1.798-1.006l1.797-1.005L24.997,25.472z M24.995,22.245l-1.769-0.945l1.769-0.945
		V22.245z M24.993,19.143l-1.789-0.991l1.789-0.991V19.143z M24.992,15.932l-1.793-1.004l1.792-1.004L24.992,15.932z M24.916,12.948
		h-3.895l3.509-1.857L24.916,12.948z M23.456,5.928l0.8,3.844l-2.964-1.954L23.456,5.928z M22.892,3.212l0.137,0.66l-0.536-0.66
		H22.892z M21.933,3.669l1.249,1.539l-1.915,1.67L21.933,3.669z M20.941,8.451l3.131,2.064l-3.998,2.115L20.941,8.451z
		 M21.718,14.928l-1.798,1.005l-0.001-2.011L21.718,14.928z M19.858,29.598h5.195l0.091,0.474l-2.686,1.221l-2.69-1.223
		L19.858,29.598z M19.628,30.801l1.955,0.888l-2.326,1.054L19.628,30.801z M19.039,33.901l2.632,1.362l-3.208,1.661L19.039,33.901z
		 M18.24,38.095l3.313,1.445l-3.912,1.705L18.24,38.095z M17.434,42.333l3.968,1.441l-4.557,1.657L17.434,42.333z M16.649,46.458
		l4.648,1.523l-5.266,1.724L16.649,46.458z M15.843,50.694l5.307,1.525l-5.921,1.699L15.843,50.694z M14.422,58.157l0.624-3.282
		l5.981,1.56L14.422,58.157z M16.132,54.412l6.327-1.817l6.326,1.817l-6.327,1.65L16.132,54.412z M29.87,54.875l0.625,3.282
		l-6.604-1.721L29.87,54.875z M29.073,50.695l0.613,3.223l-5.918-1.699L29.073,50.695z M28.267,46.46l0.618,3.243l-5.263-1.721
		L28.267,46.46z M27.48,42.333l0.591,3.097l-4.553-1.656L27.48,42.333z M26.673,38.098l0.599,3.146l-3.909-1.704L26.673,38.098z
		 M25.874,33.903l0.575,3.021l-3.205-1.66L25.874,33.903z M25.713,25.784l-0.001-2.463l8.932,2.463H25.713z"/>
</g>
</svg>
