<svg xmlns="http://www.w3.org/2000/svg" viewBox="0 0 54.892 50.406" enable-background="new 0 0 54.892 50.406"><path d="M23.536 34.515c-.074-.081-.164-.142-.269-.184s-.221-.062-.349-.062c-.123 0-.236.023-.339.071-.103.047-.192.114-.271.198-.078.085-.139.185-.186.3-.047.116-.074.242-.084.38h1.742c-.004-.151-.027-.286-.069-.405-.041-.118-.1-.218-.175-.298zM33.192 34.603c-.077-.105-.172-.187-.287-.246-.113-.059-.245-.089-.394-.089-.15 0-.28.03-.394.089-.112.059-.207.141-.285.246-.077.105-.136.23-.175.375-.039.144-.058.303-.058.476 0 .175.019.335.058.482.039.147.098.272.175.377.078.105.173.187.285.246.114.06.244.089.394.089.149 0 .281-.029.394-.089.115-.059.21-.141.287-.246.079-.105.136-.23.175-.377.039-.147.059-.307.059-.482 0-.173-.02-.332-.059-.476-.039-.145-.096-.27-.175-.375zM29.904 34.606c-.07-.107-.159-.19-.267-.249-.108-.06-.236-.089-.384-.089-.141 0-.264.029-.368.089-.103.059-.19.142-.259.249-.069.107-.12.234-.153.381-.033.148-.05.31-.05.487 0 .169.017.325.05.467.033.144.084.267.153.372.069.105.156.187.259.246.104.06.227.089.368.089.148 0 .276-.029.384-.089.108-.059.197-.141.267-.246.069-.105.121-.228.154-.372.033-.142.049-.298.049-.467 0-.177-.016-.339-.049-.487-.033-.147-.085-.274-.154-.381zM12.125 13.597h-2.516v5.379c1.421-1.279 2.321-3.126 2.321-5.183 0-.108.088-.196.195-.196zM31.978 23.829c-.778 0-1.346.365-1.706 1.095-.36.73-.539 1.806-.539 3.227 0 1.069.115 1.928.344 2.578.353.991.955 1.486 1.805 1.486.686 0 1.231-.302 1.637-.908.405-.605.608-1.733.608-3.384 0-1.191-.146-2.171-.44-2.94-.293-.769-.862-1.154-1.709-1.154zM43.119 13.671l.05.121v.004c.001 1.955.813 3.722 2.113 4.99v-5.19h-2.308c.061.001.11.032.145.075zM36.388 35.11c.105-.072.158-.184.158-.335l-.044-.214-.116-.139-.166-.074-.187-.022h-.883v.892h.81c.18 0 .324-.036.428-.108zM36.546 35.741c-.057-.042-.132-.074-.226-.096-.095-.023-.212-.034-.354-.034h-.816v.979h.816c.142 0 .259-.011.354-.034.094-.022.169-.054.226-.097l.119-.155.035-.203-.035-.206-.119-.154z" fill="none"/><path fill="#1E0F00" d="M19.303 21.164c.108 0 .196-.087.196-.196 0-.108-.088-.195-.196-.195-3.85 0-6.98-3.132-6.98-6.981 0-.108-.088-.195-.196-.196h2.535v-1.201h-5.053v-1.1h-2.577v1.1h-5.053v1.201h5.053v6.859c-.658.206-1.357.318-2.082.318-.108 0-.196.087-.196.195 0 .109.088.196.196.196.723 0 1.421-.109 2.082-.304v18.251h2.577v-19.612c1.242-1.016 2.143-2.431 2.517-4.045.756 3.266 3.683 5.71 7.177 5.71zm-9.694-2.189v-5.379h2.516c-.108 0-.195.088-.195.196 0 2.058-.9 3.905-2.321 5.183zM52.912 13.597v-1.201h-5.053v-1.1h-2.577v1.1h-5.053v1.201h2.744c-.108 0-.195.088-.195.196 0 3.849-3.13 6.981-6.98 6.981-.108 0-.196.087-.196.195 0 .109.088.196.196.196 3.493 0 6.42-2.444 7.176-5.711.352 1.521 1.175 2.86 2.308 3.861v19.797h2.577v-18.317c.722.237 1.491.369 2.291.369.108 0 .196-.087.196-.196 0-.108-.088-.195-.196-.195-.803 0-1.572-.143-2.291-.394v-6.783h5.053zm-7.63 5.189c-1.301-1.268-2.112-3.035-2.113-4.99v-.004l-.05-.121c-.035-.043-.084-.074-.145-.075h2.308v5.19zM21.13 21.212h1.5c.138 0 .25-.112.25-.25s-.112-.25-.25-.25h-1.5c-.138 0-.25.112-.25.25s.112.25.25.25zM24.13 21.212h3c.138 0 .25-.112.25-.25s-.112-.25-.25-.25h-3c-.138 0-.25.112-.25.25s.112.25.25.25zM28.63 21.212h3c.138 0 .25-.112.25-.25s-.112-.25-.25-.25h-3c-.138 0-.25.112-.25.25s.112.25.25.25zM33.13 21.212h1.5c.138 0 .25-.112.25-.25s-.112-.25-.25-.25h-1.5c-.138 0-.25.112-.25.25s.112.25.25.25zM26.35 32.259c.612-.757.919-1.631.919-2.622 0-.952-.335-1.739-1.004-2.359s-1.485-.93-2.447-.93c-.512 0-.963.081-1.354.242-.22.093-.452.232-.696.417l.447-2.915h4.46v-1.274h-5.448l-.799 5.647 1.142.066c.23-.313.506-.557.831-.733.325-.175.714-.263 1.168-.263.625 0 1.161.2 1.609.6.446.401.67.967.67 1.699 0 .606-.189 1.158-.565 1.656-.376.498-.954.747-1.735.747-.41 0-.772-.073-1.084-.22-.611-.288-.96-.808-1.048-1.56h-1.369c.078.996.445 1.735 1.102 2.215.657.481 1.413.722 2.267.722 1.343 0 2.32-.378 2.934-1.135zM35.548 27.872c0-1.504-.234-2.688-.703-3.552-.605-1.118-1.587-1.677-2.944-1.677-1.509 0-2.551.796-3.127 2.387-.308.855-.462 1.878-.462 3.069 0 1.538.257 2.764.769 3.677.616 1.094 1.553 1.641 2.813 1.641 1.396 0 2.402-.669 3.017-2.007.426-.933.637-2.112.637-3.538zm-2.029 3.435c-.406.606-.951.908-1.637.908-.85 0-1.452-.495-1.805-1.486-.229-.65-.344-1.509-.344-2.578 0-1.421.179-2.497.539-3.227.36-.73.928-1.095 1.706-1.095.846 0 1.416.385 1.709 1.154.294.769.44 1.749.44 2.94.001 1.651-.203 2.779-.608 3.384zM19.27 36.456h-.012l-.825-2.558h-.78v3.12h.501v-2.511h.012l.824 2.511h.513l.825-2.511h.012v2.511h.501v-3.12h-.735zM23.915 34.191c-.127-.131-.279-.229-.456-.293-.177-.064-.371-.096-.585-.096-.102 0-.206.014-.315.043-.109.028-.215.071-.319.128-.103.057-.202.13-.296.218-.093.089-.175.193-.246.315-.071.121-.127.259-.169.413-.042.155-.062.327-.062.518 0 .283.037.53.11.74.074.209.176.384.305.523.129.138.282.242.46.311.177.069.372.104.582.104.191 0 .367-.032.525-.095s.296-.146.412-.249.211-.22.282-.35c.073-.13.12-.263.141-.399h-.521l-.101.219-.156.201c-.064.06-.144.109-.239.148-.095.039-.211.058-.349.058-.137 0-.258-.023-.366-.071-.108-.047-.2-.115-.276-.203-.075-.087-.134-.192-.175-.315-.041-.123-.061-.261-.063-.413h2.28v-.268c0-.266-.035-.497-.105-.694-.072-.198-.17-.362-.298-.493zm-1.877 1.027c.01-.138.037-.264.084-.38.047-.115.108-.215.186-.3.079-.084.168-.151.271-.198.103-.048.216-.071.339-.071.128 0 .244.02.349.062s.195.103.269.184c.075.08.134.18.175.298.042.119.065.254.069.405h-1.742zM24.7 34.364h1.075v2.655h.536v-2.655h1.075v-.466h-2.686zM30.256 34.187c-.119-.129-.254-.225-.408-.289-.153-.064-.313-.096-.48-.096-.127 0-.239.013-.337.041-.098.027-.185.064-.259.112l-.192.167-.133.204h-.012v-.428h-.536v4.35h.536v-1.582h.012l.113.155.183.146.24.106c.089.028.186.041.288.041.208 0 .397-.032.565-.096.169-.064.314-.167.433-.308.119-.143.212-.326.277-.55.065-.224.097-.496.097-.817 0-.257-.034-.481-.104-.674-.071-.194-.164-.354-.283-.482zm-.198 1.754c-.033.144-.085.267-.154.372-.07.105-.159.187-.267.246-.108.06-.236.089-.384.089-.141 0-.264-.029-.368-.089-.103-.059-.19-.141-.259-.246-.069-.105-.12-.228-.153-.372-.033-.142-.05-.298-.05-.467 0-.177.017-.339.05-.487.033-.147.084-.274.153-.381.069-.107.156-.19.259-.249.104-.06.227-.089.368-.089.148 0 .276.029.384.089.108.059.197.142.267.249.069.107.121.234.154.381.033.148.049.31.049.487 0 .169-.016.325-.049.467zM33.577 34.248c-.124-.144-.276-.254-.456-.331-.18-.076-.383-.115-.61-.115s-.43.039-.609.115c-.178.077-.33.187-.455.331-.124.144-.218.317-.285.521-.066.205-.098.433-.098.685 0 .256.032.487.098.692.067.205.161.379.285.523.125.143.277.254.455.33.179.077.382.116.609.116s.43-.039.61-.116c.18-.076.332-.187.456-.33.124-.144.22-.318.285-.523.067-.205.1-.436.1-.692 0-.252-.033-.48-.1-.685-.065-.204-.161-.377-.285-.521zm-.21 1.688c-.039.147-.096.272-.175.377-.077.105-.172.187-.287.246-.113.06-.245.089-.394.089-.15 0-.28-.029-.394-.089-.112-.059-.207-.141-.285-.246-.077-.105-.136-.23-.175-.377-.039-.147-.058-.307-.058-.482 0-.173.019-.332.058-.476.039-.145.098-.27.175-.375.078-.105.173-.187.285-.246.114-.059.244-.089.394-.089.149 0 .281.03.394.089.115.059.21.141.287.246.079.105.136.23.175.375.039.144.059.303.059.476 0 .175-.02.335-.059.482zM36.7 35.355c.114-.076.207-.164.277-.263.07-.099.105-.22.105-.364 0-.269-.095-.475-.284-.617-.19-.142-.475-.213-.855-.213h-1.329v3.12h1.413c.208 0 .388-.022.54-.065.153-.044.278-.107.378-.188.099-.082.173-.181.221-.298.049-.116.073-.247.073-.393 0-.184-.049-.335-.146-.451-.097-.117-.228-.206-.393-.268zm-1.55-1.029h.883l.187.022.166.074.116.139.044.214c0 .151-.053.263-.158.335-.104.072-.248.108-.428.108h-.81v-.892zm1.515 1.978l-.119.155c-.057.043-.132.075-.226.097-.095.023-.212.034-.354.034h-.816v-.979h.816c.142 0 .259.011.354.034.094.022.169.054.226.096l.119.154.035.206-.035.203z"/></svg>