<svg xmlns="http://www.w3.org/2000/svg" viewBox="0 0 37.25 50.406" enable-background="new 0 0 37.25 50.406"><path d="M1.984 8.112v24.949c.488-.412 1.118-.661 1.805-.661h31.478v-26.096h-31.478c-.996 0-1.805.811-1.805 1.808z" fill="none"/><path fill="#1E0F00" d="M36.266 5.304h-32.477c-1.547 0-2.805 1.26-2.805 2.809v34.181c0 1.549 1.258 2.81 2.805 2.81h31.978v-1h-31.978c-.995 0-1.805-.812-1.805-1.81v-7.082c0-.998.81-1.811 1.805-1.811h32.478v-28.097zm-1 27.096h-31.477c-.687 0-1.316.249-1.805.661v-24.949c0-.997.81-1.809 1.805-1.809h31.478v26.097zM3.071 37.846h32.004v1h-32.004zM3.071 40.784h32.004v1h-32.004zM3.071 34.907h32.004v1h-32.004z"/></svg>