<svg xmlns="http://www.w3.org/2000/svg" viewBox="0 0 57.375 50.406" enable-background="new 0 0 57.375 50.406"><path fill="none" d="M24.434 19.108h.005l-.043-3.291-22.67.296.24 18.476 22.67-.297-.06-4.627zM25.451 20.082l.133 10.2 10.801-.27-.131-10.212zM44.448 26.686l-.046-3.444h.001l-.007-.539-7.069.269.055 4.226 7.07-.272zM55.649 25.376l-.019-1.444-10.214.282.018 1.445z"/><path fill="#1E0F00" d="M45.447 26.658l11.215-.309-.046-3.444-11.214.309-.02-1.551-8.101.309-.041-3.198-11.802.307-.056-4.279-24.67.323.268 20.478 24.67-.324-.052-3.997 11.799-.295-.036-2.787 8.102-.312-.016-1.23zm-43.481 7.931l-.24-18.477 22.67-.296.043 3.291h-.005l.142 10.557.06 4.627-22.67.298zm23.618-4.307l-.133-10.199 10.803-.283.131 10.212-10.801.27zm30.046-6.35l.019 1.444-10.215.282-.019-1.444 10.215-.282zm-18.303-.96l7.069-.27.007.539h-.001l.046 3.444h.001l.003.24-7.069.271-.056-4.224z"/></svg>