<svg xmlns="http://www.w3.org/2000/svg" viewBox="0 0 54 50.406" enable-background="new 0 0 54 50.406"><path d="M40.987 33.038c-1.143.014-2.158.45-2.917 1.229-.758.778-1.168 1.805-1.154 2.89.03 2.215 1.854 4.017 4.064 4.017v.5l.057-.5c1.088-.014 2.104-.45 2.862-1.229.758-.779 1.167-1.806 1.152-2.893-.029-2.214-1.852-4.014-4.064-4.014zM33.031 32.652l-17.466.229c-.093.001-.154.051-.184.081-.027.028-.075.091-.073.182l.023 1.809c.001.141.12.257.26.257v.5l.004-.5 17.464-.229c.142-.002.259-.122.257-.263l-.024-1.808c-.001-.141-.121-.258-.261-.258zM8.73 33.459c-1.143.015-2.158.452-2.917 1.23-.758.779-1.167 1.806-1.152 2.891.028 2.214 1.851 4.015 4.063 4.015v.5l.057-.5c1.087-.014 2.104-.45 2.861-1.229s1.167-1.806 1.153-2.893c-.028-2.213-1.852-4.014-4.065-4.014zM33.25 29.623l-.27-20.555c-.001-.141-.12-.257-.26-.257l-30.043.393c-.094.001-.155.051-.185.08-.028.029-.075.091-.074.184l.271 20.555c.001.143.117.257.259.257v.5l.004-.5 30.042-.393c.143-.002.258-.121.256-.264zM51.117 24.734l-6.143-10.121c-.125-.206-.477-.401-.722-.401l-8.008.106c-.095.001-.156.05-.186.079-.028.029-.076.092-.075.186l.196 14.97c.002.142.122.261.263.261l5.02-.064c5.357 0 6.458 4.389 6.819 5.831l.092.342c.075.211.36.354.578.354v.5l.007-.5 2.364-.032c.143-.001.26-.124.259-.268l-.131-10.085c-.005-.328-.163-.881-.333-1.158zm-3.261-1.814c-.186.335-.551.53-1 .535l-8.151.105c-.65 0-1.173-.516-1.183-1.149l-.076-5.844c-.007-.643.509-1.172 1.15-1.183l4.587-.06c.646 0 .946.407 1.247.899l3.323 5.497c.351.576.215.999.103 1.2zM43.576 16.745c-.256-.419-.305-.419-.393-.419v-.5l-.007.5-4.565.06c-.093.001-.166.076-.165.171l.076 5.841c.001.09.074.164.163.164l8.158-.105.141-.027-.086-.188-3.322-5.497z" fill="none"/><path fill="#1E0F00" d="M44.431 16.225c-.301-.492-.602-.899-1.247-.899l-4.587.06c-.642.011-1.157.54-1.15 1.183l.076 5.844c.01.634.532 1.149 1.183 1.149l8.151-.105c.449-.005.814-.2 1-.535.111-.201.247-.624-.103-1.198l-3.323-5.499zm2.413 6.231l-8.158.105c-.089 0-.162-.074-.163-.164l-.076-5.841c-.001-.095.072-.17.165-.171l4.565-.06.007-.5v.5c.088 0 .137 0 .393.419l3.322 5.496.086.188-.141.028zM40.918 32.038c-1.354.018-2.619.562-3.563 1.532-.945.97-1.456 2.248-1.438 3.601.037 2.759 2.31 5.003 5.064 5.003h.07c1.354-.018 2.62-.562 3.564-1.531s1.455-2.25 1.437-3.604c-.036-2.758-2.308-5.001-5.134-5.001zm2.981 7.907c-.759.778-1.774 1.215-2.862 1.229l-.057.5v-.5c-2.211 0-4.034-1.802-4.064-4.017-.014-1.085.396-2.111 1.154-2.89.759-.779 1.774-1.216 2.917-1.229 2.212 0 4.035 1.801 4.064 4.015.015 1.086-.394 2.112-1.152 2.892zM52.45 25.878c-.007-.514-.213-1.229-.479-1.665l-6.143-10.12c-.306-.503-.983-.882-1.592-.882l-8.004.106c-.337.003-.652.138-.889.38-.235.241-.363.559-.36.896l.196 14.972c.01.688.576 1.247 1.278 1.247l5.004-.064c4.577 0 5.501 3.687 5.849 5.074l.12.433c.239.67.946 1.021 1.521 1.021l2.383-.032c.694-.007 1.254-.579 1.247-1.279l-.131-10.087zm-1.127 10.366l-2.364.032-.007.5v-.5c-.218 0-.503-.144-.578-.354l-.092-.342c-.361-1.442-1.462-5.831-6.819-5.831l-5.02.064c-.141 0-.261-.119-.263-.261l-.196-14.97c-.001-.094.047-.156.075-.186.029-.029.091-.078.186-.079l8.008-.106c.245 0 .597.195.722.401l6.143 10.121c.17.277.328.83.333 1.158l.132 10.084c0 .145-.117.268-.26.269zM34.25 29.609l-.27-20.553c-.007-.687-.571-1.245-1.277-1.245l-30.04.393c-.337.004-.651.14-.887.382s-.363.56-.358.896l.271 20.553c.007.687.571 1.245 1.259 1.245l30.06-.393c.694-.01 1.252-.583 1.242-1.278zm-31.299.671l-.004.5v-.5c-.142 0-.258-.114-.259-.257l-.27-20.555c-.001-.093.046-.155.074-.184.029-.029.091-.079.185-.08l30.044-.393c.14 0 .259.116.26.257l.27 20.555c.002.144-.113.263-.257.265l-30.043.392zM8.66 32.459c-1.354.019-2.619.563-3.563 1.533s-1.455 2.249-1.437 3.602c.035 2.758 2.307 5.001 5.063 5.001h.07c1.354-.018 2.619-.562 3.564-1.531.943-.97 1.454-2.249 1.437-3.603-.034-2.758-2.306-5.002-5.134-5.002zm2.981 7.908c-.758.778-1.774 1.215-2.861 1.229l-.057.5v-.5c-2.212 0-4.034-1.801-4.063-4.015-.015-1.085.395-2.111 1.152-2.891.759-.778 1.774-1.216 2.917-1.23 2.214 0 4.037 1.801 4.064 4.015.015 1.086-.395 2.113-1.152 2.892zM33.016 31.652l-17.464.229c-.337.005-.651.142-.888.385-.234.242-.361.56-.355.893l.023 1.806c.007.687.571 1.245 1.26 1.245l17.481-.229c.695-.01 1.253-.582 1.243-1.276l-.024-1.806c-.007-.688-.572-1.247-1.276-1.247zm.044 3.329l-17.464.229-.004.5v-.5c-.14 0-.259-.116-.26-.257l-.023-1.809c-.002-.091.046-.153.073-.182.029-.03.091-.08.184-.081l17.466-.229c.14 0 .26.117.261.259l.024 1.808c.001.14-.116.26-.257.262z"/></svg>