<svg xmlns="http://www.w3.org/2000/svg" viewBox="0 0 20.75 50.406" enable-background="new 0 0 20.75 50.406"><g fill="#1E0F00"><path d="M9.01 17.611c-.276 0-.5.224-.5.5v14.184c0 .276.224.5.5.5s.5-.224.5-.5v-14.184c0-.277-.224-.5-.5-.5zM14.677 17.611c-.276 0-.5.224-.5.5v14.184c0 .276.224.5.5.5s.5-.224.5-.5v-14.184c0-.277-.224-.5-.5-.5zM18.025 10.747c-.276 0-.5.224-.5.5v27.913c0 .276.224.5.5.5s.5-.224.5-.5v-27.913c0-.277-.223-.5-.5-.5zM2.725 10.747c-.276 0-.5.224-.5.5v27.913c0 .276.224.5.5.5s.5-.224.5-.5v-27.913c0-.277-.224-.5-.5-.5zM6.177 17.611c-.276 0-.5.224-.5.5v14.184c0 .276.224.5.5.5s.5-.224.5-.5v-14.184c0-.277-.224-.5-.5-.5zM11.844 17.611c-.276 0-.5.224-.5.5v14.184c0 .276.224.5.5.5s.5-.224.5-.5v-14.184c0-.277-.224-.5-.5-.5z"/></g></svg>