<svg xmlns="http://www.w3.org/2000/svg" viewBox="0 0 53.667 61.5" enable-background="new 0 0 53.667 61.5"><path d="M27.13 37.602l.759-.759c.188-.188.188-.492 0-.679l-.759-.759c-.187-.188-.492-.188-.679 0l-.759.759c-.188.187-.188.491 0 .679l.759.759c.187.187.492.187.679 0zM28.369 39.519c.187.188.491.188.679 0l.759-.758c.188-.188.187-.492 0-.68l-.759-.759c-.188-.187-.492-.188-.68 0l-.758.759c-.188.188-.188.492 0 .679l.759.759zM23.295 37.602l.759-.759c.187-.188.187-.492 0-.68l-.759-.758c-.188-.188-.492-.188-.679 0l-.759.758c-.188.188-.188.492 0 .68l.758.759c.188.187.492.187.68 0zM24.533 39.519c.188.188.492.188.68 0l.758-.759c.188-.187.188-.491 0-.679l-.758-.759c-.188-.188-.492-.187-.68 0l-.759.759c-.187.188-.187.492 0 .68l.759.758zM30.966 37.602l.759-.759c.187-.188.187-.492-.001-.679l-.758-.76c-.188-.187-.492-.187-.68 0l-.759.759c-.187.188-.187.492 0 .68l.759.759c.188.187.492.187.68 0zM36.719 35.684l.759-.759c.187-.188.187-.491 0-.68l-.759-.758c-.188-.188-.492-.188-.68 0l-.758.758c-.188.189-.188.492 0 .68l.758.759c.188.188.492.188.68 0zM32.204 39.519c.188.188.492.188.679 0l.759-.759c.188-.187.188-.491 0-.679l-.759-.759c-.187-.188-.491-.187-.679 0l-.759.759c-.187.188-.187.492 0 .679l.759.759zM34.801 37.602l.759-.759c.187-.188.188-.492 0-.68l-.759-.758c-.188-.188-.492-.188-.679 0l-.759.759c-.188.187-.188.491 0 .679l.759.759c.187.187.491.187.679 0zM14.945 27.734l-.759.758c-.188.188-.188.492 0 .68l.759.759c.188.188.492.188.679 0l.759-.759c.188-.188.188-.492 0-.68l-.759-.758c-.187-.188-.491-.188-.679 0zM16.863 25.816l-.759.759c-.188.188-.188.492 0 .679l.759.759c.187.188.491.188.679 0l.759-.759c.187-.187.187-.491 0-.679l-.759-.759c-.188-.187-.492-.187-.679 0zM18.78 23.898l-.759.759c-.187.188-.187.492 0 .68l.759.758c.188.188.492.188.68 0l.759-.758c.187-.188.187-.492 0-.68l-.759-.759c-.188-.187-.492-.187-.68 0zM18.78 37.602c.188.187.492.187.68 0l.759-.759c.187-.188.187-.492 0-.679l-.759-.759c-.188-.188-.492-.188-.68-.001l-.759.759c-.187.188-.187.492 0 .68l.759.759zM20.698 39.519c.187.188.491.188.679 0l.759-.759c.187-.187.188-.491 0-.679l-.759-.759c-.188-.188-.492-.187-.679 0l-.759.759c-.188.188-.188.492 0 .679l.759.759zM16.863 35.684c.187.188.491.188.679 0l.759-.759c.187-.188.187-.491 0-.68l-.759-.758c-.188-.188-.492-.188-.679 0l-.759.758c-.188.189-.188.492 0 .68l.759.759zM14.186 33.007l.758.759c.188.188.493.188.68 0l.759-.758c.188-.188.188-.492 0-.68l-.759-.759c-.187-.187-.492-.187-.679 0l-.759.759c-.188.188-.188.492 0 .679zM26.451 20.063l-.759.758c-.188.188-.187.492 0 .68l.759.759c.187.188.492.188.679 0l.76-.759c.187-.188.187-.492-.001-.68l-.759-.758c-.187-.188-.492-.188-.679 0zM21.377 21.981c-.187-.188-.492-.188-.679 0l-.759.759c-.187.188-.188.491 0 .679l.759.759c.187.187.492.187.679 0l.759-.759c.188-.188.188-.491 0-.679l-.759-.759zM38.637 33.766l.758-.759c.188-.187.188-.491 0-.679l-.758-.759c-.188-.188-.492-.187-.68 0l-.759.759c-.187.188-.187.492 0 .679l.759.759c.188.188.492.188.68 0zM29.048 18.145c-.188-.187-.492-.187-.68.001l-.758.758c-.188.188-.188.492 0 .68l.758.758c.188.188.492.188.68 0l.759-.758c.188-.188.188-.492 0-.68l-.759-.759zM25.213 18.146c-.188-.188-.492-.188-.679 0l-.76.758c-.187.188-.187.492 0 .68l.759.758c.188.188.492.188.68 0l.758-.758c.188-.188.188-.492 0-.68l-.758-.758zM22.616 20.063l-.759.759c-.188.187-.188.491 0 .679l.759.759c.187.188.491.188.679 0l.759-.759c.187-.188.187-.492 0-.679l-.759-.759c-.188-.188-.492-.188-.679 0zM18.78 20.063l-.759.759c-.187.187-.187.491 0 .679l.759.759c.188.188.492.188.68 0l.758-.759c.188-.188.188-.492 0-.68l-.758-.758c-.188-.188-.492-.188-.68 0zM21.377 18.146c-.188-.188-.492-.188-.679 0l-.759.758c-.188.188-.188.492 0 .68l.759.758c.187.188.491.188.679 0l.759-.758c.188-.188.188-.492 0-.68l-.759-.758zM30.286 20.063l-.758.759c-.188.187-.188.491 0 .679l.758.759c.188.188.492.188.68 0l.758-.759c.188-.188.188-.492 0-.68l-.758-.758c-.188-.188-.492-.188-.68 0zM40.554 28.013l.759-.759c.188-.187.188-.492 0-.679l-.759-.759c-.187-.188-.491-.188-.679 0l-.759.759c-.187.187-.187.492 0 .679l.759.759c.188.188.492.188.679 0zM38.637 23.898c-.188-.187-.492-.187-.68 0l-.759.759c-.187.188-.187.492 0 .68l.759.758c.188.188.492.188.68 0l.758-.758c.188-.188.188-.492 0-.68l-.758-.759zM32.883 18.146c-.187-.188-.491-.188-.679 0l-.759.758c-.187.188-.187.492 0 .68l.759.758c.188.188.492.188.679 0l.759-.758c.188-.188.188-.492 0-.68l-.759-.758zM39.395 28.492l-.758-.758c-.188-.188-.492-.188-.68 0l-.759.758c-.187.188-.187.492 0 .68l.759.759c.188.188.492.188.68 0l.758-.759c.188-.188.188-.492 0-.68zM34.801 20.063c-.188-.188-.492-.188-.679 0l-.759.758c-.188.188-.188.492 0 .68l.759.759c.187.188.491.188.679 0l.759-.759c.188-.188.187-.492 0-.679l-.759-.759zM36.719 21.981c-.188-.188-.492-.188-.68 0l-.758.758c-.188.188-.188.492 0 .68l.758.759c.188.187.492.187.68 0l.759-.759c.187-.188.187-.492 0-.68l-.759-.758zM30.286 23.898l-.759.759c-.187.188-.187.492.001.68l.758.758c.188.188.492.188.68 0l.758-.758c.188-.188.188-.492 0-.68l-.758-.759c-.188-.187-.492-.188-.68 0zM30.966 33.766l.758-.759c.188-.187.188-.491 0-.679l-.758-.759c-.188-.187-.492-.187-.68 0l-.758.759c-.188.188-.188.492 0 .68l.758.758c.188.188.492.188.68 0zM32.204 35.684c.188.188.492.188.679 0l.759-.759c.188-.188.188-.492 0-.679l-.759-.759c-.187-.188-.491-.188-.679 0l-.759.758c-.187.188-.187.492 0 .68l.759.759zM27.61 34.925l.759.759c.188.188.491.188.679 0l.759-.759c.188-.188.188-.491 0-.68l-.759-.758c-.188-.188-.491-.188-.679 0l-.759.759c-.188.188-.188.491 0 .679zM34.801 23.898c-.188-.188-.492-.187-.679 0l-.759.759c-.188.188-.188.492 0 .68l.759.758c.187.188.491.188.679 0l.759-.758c.187-.188.188-.492 0-.68l-.759-.759zM34.801 33.766l.759-.758c.188-.188.187-.492 0-.68l-.759-.759c-.188-.187-.492-.188-.679 0l-.759.759c-.188.188-.188.492 0 .679l.759.759c.187.188.491.188.679 0zM37.478 26.575l-.759-.759c-.188-.188-.492-.187-.68 0l-.758.759c-.188.188-.188.492 0 .679l.758.759c.188.188.492.188.68 0l.759-.759c.187-.187.188-.491 0-.679zM36.719 31.848l.759-.758c.188-.188.187-.492 0-.68l-.759-.759c-.187-.187-.492-.187-.68 0l-.758.759c-.188.188-.188.492 0 .68l.758.758c.188.188.493.188.68 0zM29.048 25.816c-.188-.187-.492-.188-.68 0l-.758.759c-.188.187-.188.492 0 .679l.759.759c.187.187.491.188.679 0l.759-.759c.188-.187.187-.492 0-.679l-.759-.759zM41.033 25.337l.76.758c.187.188.492.188.679 0l.759-.758c.188-.188.188-.492 0-.68l-.759-.759c-.187-.187-.492-.187-.68 0l-.759.759c-.187.188-.187.492 0 .68zM34.801 29.931l.759-.759c.188-.188.188-.492 0-.68l-.759-.758c-.188-.188-.491-.188-.679 0l-.759.758c-.188.188-.188.492 0 .68l.759.759c.188.188.491.188.679 0zM22.616 23.898l-.759.759c-.188.188-.188.492 0 .68l.758.758c.188.188.493.188.68 0l.759-.758c.187-.188.187-.492 0-.68l-.759-.759c-.187-.187-.492-.187-.679 0zM32.883 25.816c-.187-.188-.491-.188-.679 0l-.759.759c-.187.187-.187.492 0 .679l.759.759c.188.188.492.187.679 0l.759-.759c.188-.187.188-.492 0-.679l-.759-.759zM32.204 29.652l-.759.758c-.187.188-.187.492 0 .68l.759.758c.188.188.492.188.679 0l.759-.758c.188-.188.188-.492 0-.68l-.759-.758c-.187-.188-.491-.188-.679 0zM30.286 27.734l-.758.758c-.188.188-.188.492 0 .68l.758.759c.188.188.492.188.68 0l.758-.759c.188-.188.188-.492 0-.68l-.758-.758c-.188-.188-.492-.188-.68 0zM23.295 33.766l.759-.758c.187-.188.187-.492 0-.68l-.759-.759c-.188-.187-.492-.188-.68 0l-.758.759c-.188.188-.188.492 0 .68l.759.758c.187.188.491.188.679 0zM20.698 35.684c.187.188.492.188.679 0l.759-.759c.188-.188.188-.492 0-.68l-.758-.758c-.188-.188-.493-.188-.68 0l-.759.758c-.188.188-.188.492 0 .68l.759.759zM18.78 33.766c.188.188.492.188.68 0l.758-.759c.188-.187.188-.491.001-.679l-.759-.759c-.188-.188-.492-.187-.68 0l-.759.759c-.187.188-.187.492 0 .68l.759.758zM24.533 35.684c.188.188.492.188.68 0l.758-.759c.188-.188.188-.491 0-.68l-.758-.758c-.188-.188-.492-.188-.68 0l-.759.758c-.187.189-.187.492 0 .68l.759.759zM16.863 21.981l-.759.759c-.188.187-.188.491 0 .679l.759.759c.187.187.491.187.679 0l.759-.759c.187-.188.187-.492 0-.68l-.759-.758c-.188-.188-.492-.188-.679 0zM25.213 21.981c-.188-.188-.492-.188-.68 0l-.759.758c-.187.188-.187.492 0 .68l.759.759c.188.187.492.187.68 0l.758-.759c.188-.188.188-.492 0-.68l-.758-.758zM25.971 26.575l-.758-.759c-.188-.188-.492-.187-.68 0l-.759.759c-.187.188-.187.492 0 .679l.759.759c.188.188.492.188.68 0l.758-.759c.188-.187.188-.491 0-.679zM16.863 29.651l-.759.759c-.188.188-.188.492-.001.68l.76.758c.187.188.491.188.679 0l.759-.758c.187-.188.187-.492 0-.68l-.759-.759c-.188-.187-.492-.187-.679 0zM26.451 23.898l-.759.759c-.188.188-.188.492 0 .68l.759.758c.187.188.492.188.679 0l.759-.758c.188-.188.188-.492 0-.68l-.759-.759c-.187-.187-.492-.187-.679 0zM23.295 29.931l.759-.759c.187-.188.187-.492 0-.68l-.759-.758c-.188-.188-.492-.188-.679 0l-.759.758c-.188.188-.188.492 0 .68l.759.759c.187.188.491.188.679 0zM29.048 21.981c-.188-.188-.491-.188-.679 0l-.759.759c-.188.187-.188.491 0 .679l.759.759c.188.187.491.187.679 0l.759-.759c.188-.188.188-.492 0-.68l-.759-.758zM18.78 27.734l-.759.758c-.187.188-.187.492 0 .68l.759.759c.188.188.492.188.68 0l.759-.759c.187-.188.187-.492-.001-.68l-.758-.758c-.188-.188-.492-.188-.68 0zM21.377 25.816c-.187-.187-.492-.188-.679 0l-.759.759c-.188.187-.187.492 0 .679l.759.759c.187.188.492.188.679 0l.759-.759c.188-.187.188-.492 0-.679l-.759-.759zM20.698 29.652l-.759.758c-.188.188-.188.492 0 .68l.759.758c.187.188.491.188.679 0l.759-.758c.188-.188.188-.492 0-.68l-.759-.758c-.188-.188-.492-.188-.679 0zM32.883 21.981c-.187-.188-.491-.188-.679 0l-.759.758c-.187.188-.187.492 0 .68l.759.759c.188.187.492.187.679 0l.759-.759c.188-.188.188-.492 0-.679l-.759-.759zM24.533 16.507c.188.188.492.188.68 0l.758-.759c.188-.187.188-.492 0-.68l-.758-.758c-.188-.188-.492-.188-.68 0l-.759.759c-.187.187-.187.492 0 .679l.759.759zM12.548 36.163l-.759-.759c-.188-.187-.492-.187-.68 0l-.758.759c-.188.188-.188.492-.001.68l.759.759c.188.187.492.187.68 0l.759-.759c.187-.188.187-.492 0-.68zM11.109 26.095c.188.188.492.188.68 0l.759-.758c.187-.188.187-.492 0-.68l-.759-.759c-.188-.187-.492-.187-.68 0l-.758.759c-.188.188-.188.492-.001.68l.759.758zM21.377 44.993c-.187-.188-.492-.188-.679 0l-.759.759c-.188.187-.187.492 0 .679l.759.759c.187.188.492.188.679 0l.759-.759c.188-.187.188-.492 0-.679l-.759-.759zM20.219 43.834l-.759-.759c-.188-.187-.492-.187-.68 0l-.759.759c-.187.188-.187.492 0 .679l.759.759c.188.188.492.188.68 0l.759-.759c.187-.187.187-.491 0-.679zM18.301 41.916l-.759-.759c-.188-.187-.492-.187-.679 0l-.759.759c-.188.188-.188.492 0 .68l.759.759c.187.187.491.187.679 0l.759-.759c.187-.188.187-.492 0-.68zM16.383 39.999l-.759-.759c-.187-.188-.492-.188-.679 0l-.759.759c-.188.187-.188.492 0 .679l.759.759c.187.187.492.188.679 0l.759-.759c.188-.187.188-.492 0-.679zM11.109 29.931c.188.188.492.188.68 0l.759-.759c.187-.188.187-.492 0-.68l-.759-.758c-.188-.188-.492-.188-.68 0l-.758.758c-.188.188-.188.492-.001.68l.759.759zM13.027 24.178c.188.187.492.187.679 0l.759-.759c.188-.188.188-.492 0-.679l-.759-.759c-.187-.188-.491-.188-.679 0l-.759.758c-.187.188-.187.492 0 .68l.759.759zM18.78 18.425c.188.187.492.187.68 0l.759-.759c.187-.188.187-.492 0-.679l-.759-.76c-.188-.187-.492-.187-.68 0l-.759.759c-.187.188-.187.492 0 .68l.759.759zM21.857 17.666l.759.758c.187.188.491.188.679 0l.759-.758c.187-.188.187-.492 0-.68l-.759-.759c-.188-.187-.492-.187-.679 0l-.759.759c-.188.188-.188.492 0 .68zM20.698 16.507c.187.188.492.188.679 0l.759-.759c.188-.187.188-.492 0-.679l-.759-.759c-.187-.188-.492-.188-.679 0l-.759.758c-.188.188-.187.493 0 .68l.759.759zM16.863 20.342c.187.188.491.188.679 0l.759-.758c.187-.188.187-.492 0-.68l-.759-.759c-.188-.187-.492-.187-.679 0l-.76.759c-.187.188-.187.492 0 .68l.76.758zM14.945 22.26c.187.188.492.188.679 0l.759-.759c.188-.188.188-.492 0-.679l-.759-.759c-.187-.188-.492-.188-.679 0l-.759.758c-.188.188-.188.492 0 .68l.759.759zM14.465 38.081l-.759-.759c-.187-.188-.491-.187-.679 0l-.759.759c-.187.188-.187.492 0 .679l.759.759c.188.188.492.188.679 0l.759-.759c.188-.187.188-.491 0-.679zM42.472 35.404c-.187-.187-.492-.187-.679.001l-.76.758c-.187.188-.187.492 0 .68l.759.759c.188.187.493.187.68 0l.759-.759c.188-.188.188-.492-.001-.68l-.758-.759zM40.554 37.322c-.187-.187-.491-.188-.679 0l-.759.759c-.187.188-.187.492 0 .679l.759.759c.188.188.492.188.679 0l.759-.758c.188-.188.188-.492 0-.68l-.759-.759zM36.719 41.157c-.187-.187-.492-.187-.68 0l-.758.759c-.188.188-.188.492 0 .68l.758.759c.188.187.493.187.68 0l.759-.759c.188-.188.187-.492 0-.68l-.759-.759zM38.637 39.24c-.188-.188-.492-.188-.68 0l-.759.759c-.187.187-.187.492 0 .679l.759.759c.188.188.492.188.68 0l.758-.759c.188-.187.188-.492 0-.679l-.758-.759zM42.472 31.569c-.188-.187-.492-.187-.679 0l-.759.759c-.188.188-.188.492 0 .68l.759.758c.187.188.491.188.679 0l.758-.758c.189-.188.189-.492.001-.68l-.759-.759zM43.975 43.983c2.912-3.766 4.511-8.448 4.511-13.233s-1.599-9.467-4.511-13.233l1.893-1.893c.423-.423.423-1.111 0-1.533l-2.375-2.375c-.422-.423-1.111-.423-1.533 0l-1.894 1.893c-3.766-2.912-8.448-4.512-13.232-4.512-4.785 0-9.468 1.599-13.234 4.512l-1.893-1.893c-.423-.423-1.111-.423-1.533 0l-2.376 2.374c-.422.422-.422 1.11.001 1.533l1.893 1.893c-2.912 3.767-4.512 8.448-4.512 13.233s1.6 9.467 4.512 13.233l-1.893 1.893c-.423.423-.423 1.111-.001 1.534l2.376 2.375c.422.423 1.11.423 1.533 0l1.893-1.893c3.767 2.912 8.449 4.511 13.234 4.511 4.784 0 9.466-1.599 13.232-4.511l1.894 1.893c.422.423 1.111.423 1.533 0l2.375-2.375c.423-.422.423-1.111 0-1.533l-1.893-1.893zm-17.142 7.955c-11.701 0-21.188-9.486-21.188-21.188 0-11.702 9.487-21.188 21.188-21.188 11.702 0 21.188 9.486 21.188 21.188 0 11.702-9.486 21.188-21.188 21.188zM14.945 23.898l-.759.759c-.188.188-.188.492 0 .68l.759.758c.188.188.491.188.679 0l.759-.758c.188-.188.188-.492 0-.68l-.759-.759c-.188-.187-.491-.187-.679 0zM24.054 43.834l-.759-.759c-.187-.187-.492-.187-.68 0l-.758.759c-.188.188-.188.492 0 .679l.759.76c.187.187.492.187.679 0l.759-.759c.187-.188.187-.492 0-.68zM25.213 44.993c-.188-.188-.492-.188-.68 0l-.759.759c-.187.187-.187.492 0 .679l.759.759c.188.188.492.188.68 0l.758-.759c.188-.187.188-.492 0-.679l-.758-.759zM29.048 44.993c-.188-.188-.491-.187-.679 0l-.759.759c-.188.188-.188.492 0 .68l.759.758c.188.188.491.188.679 0l.759-.759c.188-.187.188-.491 0-.679l-.759-.759zM32.883 44.993c-.187-.188-.491-.188-.679 0l-.759.759c-.187.187-.187.492 0 .679l.759.759c.188.188.492.188.679 0l.759-.758c.188-.188.188-.493 0-.68l-.759-.759zM34.801 43.075c-.188-.187-.492-.187-.679 0l-.759.759c-.188.188-.188.492 0 .679l.759.759c.187.188.491.188.679.001l.759-.759c.188-.188.187-.492 0-.68l-.759-.759zM31.724 43.834l-.758-.759c-.188-.187-.492-.187-.68 0l-.758.759c-.188.188-.188.492 0 .68l.758.759c.188.187.492.187.68-.001l.758-.759c.188-.187.188-.491 0-.679zM27.889 43.834l-.759-.759c-.187-.187-.492-.187-.679 0l-.759.759c-.188.188-.188.492 0 .679l.759.759c.187.188.492.188.679 0l.759-.759c.188-.187.188-.491 0-.679zM20.698 43.355c.187.187.492.187.679 0l.759-.759c.188-.188.188-.492 0-.68l-.759-.758c-.187-.188-.492-.188-.679 0l-.759.759c-.187.187-.188.491 0 .679l.759.759zM23.295 41.437l.759-.759c.187-.187.187-.492 0-.679l-.759-.759c-.188-.188-.492-.187-.679 0l-.759.759c-.188.187-.188.492 0 .679l.759.759c.187.188.491.188.679 0zM30.966 41.437l.758-.759c.188-.187.188-.492 0-.679l-.758-.759c-.188-.188-.492-.188-.68 0l-.758.759c-.188.187-.188.492 0 .679l.758.759c.188.188.492.188.68 0zM27.13 41.437l.759-.759c.188-.187.188-.492.001-.679l-.76-.759c-.187-.188-.492-.188-.679 0l-.759.759c-.188.187-.188.492 0 .679l.759.759c.187.188.492.188.679 0zM28.368 43.355c.188.187.492.187.68-.001l.759-.758c.187-.188.188-.492 0-.68l-.759-.759c-.188-.187-.492-.187-.679.001l-.759.758c-.188.188-.188.492 0 .68l.758.759zM24.533 43.355c.188.187.492.187.68 0l.758-.759c.188-.188.188-.492 0-.679l-.758-.76c-.188-.187-.492-.187-.68 0l-.759.759c-.187.188-.187.492 0 .68l.759.759zM16.863 39.519c.187.188.491.188.679 0l.759-.758c.187-.188.187-.492 0-.68l-.759-.759c-.188-.187-.492-.188-.679 0l-.76.759c-.187.188-.187.492.001.68l.759.758zM18.78 41.437c.188.188.492.187.68 0l.758-.759c.188-.187.188-.492 0-.679l-.758-.759c-.188-.188-.492-.188-.68 0l-.759.759c-.187.187-.187.492 0 .679l.759.759zM12.268 31.09l.759.758c.188.188.492.188.679 0l.759-.758c.188-.188.188-.492 0-.68l-.759-.758c-.187-.188-.491-.188-.679 0l-.758.758c-.188.188-.188.492-.001.68zM13.027 25.816l-.759.759c-.187.187-.187.492 0 .679l.759.759c.188.188.492.187.679 0l.759-.759c.187-.187.188-.492 0-.679l-.759-.759c-.187-.188-.491-.187-.679 0zM25.692 17.666l.759.759c.187.187.492.187.679 0l.759-.759c.188-.188.188-.492 0-.68l-.759-.759c-.187-.187-.492-.187-.679 0l-.759.76c-.187.187-.188.491 0 .679zM14.945 37.602c.188.187.492.187.679 0l.759-.759c.188-.188.188-.492 0-.68l-.759-.758c-.187-.188-.491-.188-.679 0l-.759.759c-.188.187-.188.491 0 .679l.759.759zM11.109 31.569l-.758.759c-.188.188-.188.492 0 .68l.758.758c.188.188.492.188.68 0l.759-.758c.187-.188.187-.492 0-.68l-.759-.759c-.188-.187-.492-.187-.68 0zM13.027 35.684c.188.188.492.188.679 0l.759-.759c.188-.188.188-.492 0-.68l-.759-.758c-.187-.188-.491-.188-.679 0l-.759.758c-.187.188-.187.492 0 .68l.759.759zM32.204 43.355c.188.187.492.187.679 0l.759-.759c.188-.188.188-.492 0-.679l-.759-.759c-.187-.188-.491-.188-.679 0l-.759.759c-.187.187-.187.491 0 .679l.759.759zM37.198 21.501l.759.759c.188.188.492.187.68 0l.758-.759c.188-.188.188-.492 0-.68l-.758-.758c-.188-.188-.492-.188-.68 0l-.759.758c-.187.188-.187.492 0 .68zM35.281 19.584l.758.758c.188.188.493.188.68 0l.759-.758c.187-.188.187-.493 0-.68l-.759-.758c-.187-.188-.492-.188-.68-.001l-.758.759c-.188.187-.188.492 0 .68zM42.472 29.931l.758-.759c.188-.188.189-.492 0-.68l-.758-.758c-.188-.188-.492-.188-.679 0l-.759.758c-.188.188-.188.492-.001.68l.759.759c.188.188.492.188.68 0zM39.116 23.419l.759.759c.188.187.492.187.679 0l.759-.759c.188-.188.188-.492 0-.68l-.759-.758c-.187-.188-.491-.188-.679 0l-.759.759c-.187.187-.187.491 0 .679zM32.204 16.507c.188.188.492.188.679 0l.759-.759c.188-.187.188-.492 0-.68l-.759-.758c-.187-.188-.491-.188-.679 0l-.759.758c-.187.188-.187.493 0 .68l.759.759zM28.369 16.507c.188.188.491.188.679 0l.759-.759c.188-.187.188-.492 0-.679l-.759-.759c-.188-.188-.491-.188-.679 0l-.759.759c-.188.187-.188.492 0 .679l.759.759zM29.527 17.666l.759.758c.188.188.492.188.68.001l.758-.759c.188-.188.188-.492 0-.68l-.758-.759c-.188-.187-.492-.187-.68 0l-.758.759c-.188.188-.188.492-.001.68zM33.363 17.666l.759.759c.187.187.491.187.679-.001l.759-.758c.187-.188.188-.492 0-.68l-.759-.759c-.188-.187-.492-.187-.679 0l-.759.759c-.188.188-.188.492 0 .68zM41.313 30.41l-.759-.759c-.187-.187-.491-.187-.679.001l-.759.758c-.187.188-.187.492 0 .68l.759.758c.188.188.492.188.679 0l.759-.758c.188-.188.188-.492 0-.68zM36.719 39.519l.759-.759c.187-.187.188-.491 0-.679l-.759-.759c-.188-.187-.492-.187-.68 0l-.758.759c-.188.188-.188.492 0 .68l.758.758c.188.188.492.188.68 0zM34.801 41.437l.759-.759c.188-.187.188-.492 0-.679l-.759-.759c-.188-.188-.491-.188-.679 0l-.759.759c-.188.187-.188.492 0 .679l.759.759c.188.188.491.188.679 0zM40.554 35.684l.759-.759c.188-.188.188-.491 0-.68l-.759-.758c-.187-.188-.491-.188-.679 0l-.759.759c-.187.188-.187.491 0 .679l.759.759c.188.188.492.188.679 0zM38.637 37.602l.758-.759c.188-.188.188-.492 0-.679l-.758-.759c-.188-.188-.492-.188-.68 0l-.759.759c-.187.187-.187.491 0 .679l.759.759c.188.187.492.187.68 0z" fill="none"/><path fill="#1E0F00" d="M44.998 43.817c5.611-7.781 5.61-18.353 0-26.133l2.136-2.137c.342-.341.342-.894 0-1.236l-3.861-3.862c-.342-.341-.895-.341-1.237 0l-2.136 2.137c-7.781-5.611-18.353-5.611-26.133 0l-2.136-2.137c-.342-.341-.896-.341-1.237 0l-3.862 3.862c-.341.342-.341.895 0 1.236l2.137 2.137c-5.611 7.78-5.611 18.352 0 26.133l-2.137 2.136c-.341.342-.341.895 0 1.237l3.862 3.861c.342.342.895.342 1.237 0l2.136-2.136c7.78 5.611 18.352 5.611 26.133 0l2.136 2.136c.342.342.895.342 1.237 0l3.861-3.862c.341-.341.342-.894 0-1.236l-2.136-2.136zm.87 3.593l-2.375 2.375c-.422.423-1.111.423-1.533 0l-1.894-1.893c-3.766 2.912-8.448 4.511-13.232 4.511-4.785 0-9.467-1.599-13.234-4.511l-1.893 1.893c-.423.423-1.111.423-1.533 0l-2.376-2.375c-.422-.423-.422-1.111.001-1.534l1.893-1.893c-2.912-3.767-4.512-8.448-4.512-13.234s1.6-9.467 4.512-13.233l-1.893-1.893c-.423-.423-.423-1.111-.001-1.533l2.376-2.375c.422-.423 1.11-.423 1.533 0l1.893 1.893c3.766-2.913 8.449-4.512 13.234-4.512 4.784 0 9.466 1.6 13.232 4.512l1.894-1.893c.422-.423 1.111-.423 1.533 0l2.375 2.375c.423.422.423 1.11 0 1.533l-1.893 1.893c2.912 3.766 4.511 8.448 4.511 13.233s-1.599 9.467-4.511 13.233l1.893 1.894c.423.422.423 1.112 0 1.534zM26.833 9.562c-11.701 0-21.188 9.486-21.188 21.188 0 11.702 9.487 21.188 21.188 21.188 11.702 0 21.188-9.486 21.188-21.188 0-11.702-9.486-21.188-21.188-21.188zm15.639 14.336l.759.759c.188.188.188.492 0 .68l-.759.758c-.187.188-.492.188-.679 0l-.76-.758c-.187-.188-.187-.492 0-.68l.759-.759c.188-.187.493-.187.68 0zm-9.109 5.274c-.188-.188-.188-.492 0-.68l.759-.758c.188-.188.491-.188.679 0l.759.758c.188.188.188.492 0 .68l-.759.759c-.188.188-.491.188-.679 0l-.759-.759zm.279 1.918l-.759.758c-.187.188-.491.188-.679 0l-.759-.758c-.187-.188-.187-.492 0-.68l.759-.758c.188-.188.492-.188.679 0l.759.758c.188.188.188.492 0 .68zm0-3.836l-.759.759c-.187.187-.491.188-.679 0l-.759-.759c-.187-.187-.187-.492 0-.679l.759-.759c.188-.188.492-.188.679 0l.759.759c.188.187.188.492 0 .679zm-1.918 1.238c.188.188.188.492 0 .68l-.758.759c-.188.188-.492.188-.68 0l-.758-.759c-.188-.188-.188-.492 0-.68l.758-.758c.188-.188.492-.188.68 0l.758.758zm-1.917-1.238l-.759.759c-.188.188-.492.187-.679 0l-.759-.759c-.188-.187-.188-.492 0-.679l.758-.759c.188-.188.492-.187.68 0l.759.759c.187.187.188.492 0 .679zm-2.197 6.992l.759-.759c.188-.188.491-.188.679 0l.759.758c.188.189.188.492 0 .68l-.759.759c-.188.188-.491.188-.679 0l-.759-.759c-.188-.188-.188-.491 0-.679zm1.918-1.238c-.188-.188-.188-.492 0-.68l.758-.759c.188-.187.492-.187.68 0l.758.759c.188.188.188.492 0 .679l-.758.759c-.188.188-.492.188-.68 0l-.758-.758zm1.917 1.237l.759-.758c.188-.188.492-.188.679 0l.759.759c.188.187.188.491 0 .679l-.759.759c-.187.188-.491.188-.679 0l-.759-.759c-.187-.188-.187-.492 0-.68zm1.918-1.238c-.188-.187-.188-.491 0-.679l.759-.759c.187-.188.491-.187.679 0l.759.759c.187.188.188.492 0 .68l-.759.758c-.188.188-.492.188-.679 0l-.759-.759zm1.918-1.917c-.188-.188-.188-.492 0-.68l.758-.759c.188-.187.493-.187.68 0l.759.759c.187.188.188.492 0 .68l-.759.758c-.187.188-.492.188-.68 0l-.758-.758zm.758-3.077l-.758-.759c-.188-.187-.188-.491 0-.679l.758-.759c.188-.187.492-.188.68 0l.759.759c.188.188.187.492 0 .679l-.759.759c-.188.188-.492.188-.68 0zm-.479-2.676l-.759.758c-.188.188-.492.188-.679 0l-.759-.758c-.188-.188-.188-.492 0-.68l.759-.759c.187-.187.491-.188.679 0l.759.759c.188.188.187.492 0 .68zm-1.918-1.918l-.759.759c-.187.187-.491.187-.679 0l-.759-.759c-.187-.188-.187-.492 0-.68l.759-.758c.188-.188.492-.188.679 0l.759.759c.188.187.188.491 0 .679zm-1.918 1.238c.188.188.188.492 0 .68l-.758.758c-.188.188-.492.188-.68 0l-.758-.758c-.188-.188-.188-.492-.001-.68l.759-.759c.188-.188.492-.187.68 0l.758.759zm-1.917-1.238l-.759.759c-.188.187-.491.187-.679 0l-.759-.759c-.188-.188-.188-.492 0-.679l.759-.759c.188-.188.491-.188.679 0l.759.758c.188.188.188.492 0 .68zm-1.918 1.238c.188.188.188.492 0 .68l-.759.758c-.187.188-.492.188-.679 0l-.759-.758c-.188-.188-.188-.492 0-.68l.759-.759c.187-.187.492-.187.679 0l.759.759zm-6.032 4.515c-.188-.188-.188-.492 0-.68l.759-.758c.187-.188.491-.188.679 0l.759.758c.187.188.187.492 0 .68l-.759.759c-.188.188-.492.188-.679 0l-.759-.759zm.279 1.918l-.759.758c-.188.188-.492.188-.679 0l-.759-.758c-.188-.188-.188-.492 0-.68l.759-.758c.187-.188.491-.188.679 0l.759.758c.188.188.188.492 0 .68zm0-3.836l-.759.759c-.187.188-.492.188-.679 0l-.759-.759c-.187-.187-.188-.492 0-.679l.759-.759c.187-.188.492-.187.679 0l.759.759c.188.187.188.492 0 .679zm-1.918 1.238c.188.188.188.492.001.68l-.759.759c-.188.188-.492.188-.68 0l-.759-.759c-.187-.188-.187-.492 0-.68l.759-.758c.188-.188.492-.188.68 0l.758.758zm-1.917 1.918c.187.188.187.492 0 .68l-.759.758c-.188.188-.492.188-.679 0l-.76-.758c-.187-.188-.187-.492.001-.68l.759-.759c.187-.187.491-.187.679 0l.759.759zm-.28 1.918l.759-.759c.188-.187.492-.188.68 0l.759.759c.187.188.187.492-.001.679l-.758.759c-.188.188-.492.188-.68 0l-.759-.758c-.187-.188-.187-.492 0-.68zm1.918 1.917l.759-.758c.187-.188.492-.188.68 0l.758.758c.188.188.188.492 0 .68l-.759.759c-.187.188-.492.188-.679 0l-.759-.759c-.188-.188-.188-.492 0-.68zm1.918-1.237c-.188-.188-.188-.492 0-.68l.758-.759c.188-.188.492-.187.68 0l.759.759c.187.188.187.492 0 .68l-.759.758c-.188.188-.492.188-.679 0l-.759-.758zm1.917 1.237l.759-.758c.188-.188.492-.188.68 0l.758.758c.188.189.188.492 0 .68l-.758.759c-.188.188-.492.188-.68 0l-.759-.759c-.187-.188-.187-.491 0-.68zm2.197-6.991l-.758.759c-.188.188-.492.188-.68 0l-.759-.759c-.187-.187-.187-.491 0-.679l.759-.759c.188-.187.492-.188.68 0l.758.759c.188.188.188.492 0 .679zm0-3.835l-.758.759c-.188.187-.492.187-.68 0l-.759-.759c-.187-.188-.187-.492 0-.68l.759-.758c.188-.188.492-.188.68 0l.758.758c.188.188.188.492 0 .68zm-1.917 1.238c.187.188.187.492 0 .68l-.759.758c-.187.188-.492.188-.68 0l-.758-.758c-.188-.188-.188-.492 0-.68l.759-.759c.187-.187.492-.187.679 0l.759.759zm-1.918-1.238l-.759.759c-.187.187-.492.187-.679 0l-.759-.759c-.188-.188-.187-.491 0-.679l.759-.759c.187-.188.492-.188.679 0l.759.759c.188.188.188.491 0 .679zm-1.917 1.238c.187.188.187.492 0 .68l-.759.758c-.188.188-.492.188-.68 0l-.759-.758c-.187-.188-.187-.492 0-.68l.759-.759c.188-.187.492-.187.68 0l.759.759zm-1.918 1.918c.187.188.187.492 0 .679l-.759.759c-.188.188-.492.188-.679 0l-.759-.759c-.188-.187-.188-.491 0-.679l.759-.759c.187-.187.491-.187.679 0l.759.759zm-1.918 1.917c.188.188.188.492 0 .68l-.759.759c-.187.188-.491.188-.679 0l-.759-.759c-.188-.188-.188-.492 0-.68l.759-.758c.188-.188.492-.188.679 0l.759.758zm-.759 3.077l.759.759c.188.188.188.492 0 .68l-.759.758c-.187.188-.492.188-.68 0l-.758-.759c-.188-.187-.188-.491 0-.679l.759-.759c.187-.187.492-.187.679 0zm.48 2.676l.759-.758c.187-.188.491-.188.679 0l.759.758c.187.189.187.492 0 .68l-.759.759c-.188.188-.492.188-.679 0l-.759-.759c-.188-.188-.188-.491 0-.68zm1.917 1.918l.759-.759c.188-.187.492-.187.68.001l.759.759c.187.187.187.491 0 .679l-.759.759c-.188.187-.492.187-.68 0l-.759-.759c-.187-.188-.187-.492 0-.68zm1.918 1.918l.759-.759c.187-.187.491-.188.679 0l.759.759c.188.188.187.492 0 .679l-.759.759c-.188.188-.492.188-.679 0l-.759-.759c-.188-.187-.188-.491 0-.679zm1.918-1.238c-.188-.188-.188-.492 0-.68l.759-.758c.187-.188.491-.188.679 0l.759.758c.187.188.187.492 0 .68l-.759.759c-.188.187-.492.187-.68 0l-.758-.759zm1.917 1.238l.759-.759c.188-.187.492-.188.68 0l.758.759c.188.188.188.492 0 .679l-.758.759c-.188.188-.492.188-.68 0l-.759-.758c-.187-.188-.187-.492 0-.68zm1.918-1.238c-.188-.188-.188-.492 0-.679l.759-.759c.187-.188.492-.188.679 0l.759.759c.188.187.188.491 0 .679l-.759.759c-.187.187-.492.187-.679 0l-.759-.759zm1.918 1.238l.758-.759c.188-.188.492-.187.68 0l.759.759c.187.188.188.492 0 .68l-.759.758c-.188.188-.492.188-.679 0l-.759-.759c-.188-.187-.188-.491 0-.679zm1.917-1.238c-.187-.188-.187-.492 0-.68l.759-.759c.188-.187.492-.187.68 0l.758.76c.188.187.188.491.001.679l-.759.759c-.188.187-.492.187-.68 0l-.759-.759zm1.918 1.238l.759-.759c.188-.187.492-.188.679 0l.759.759c.188.188.188.492 0 .679l-.759.759c-.187.188-.491.188-.679 0l-.759-.759c-.187-.187-.187-.491 0-.679zm1.918-1.238c-.188-.188-.188-.492 0-.679l.759-.759c.187-.188.491-.188.679 0l.759.758c.188.188.187.492 0 .68l-.759.759c-.188.187-.492.187-.679 0l-.759-.759zm1.918-1.918c-.188-.188-.188-.491 0-.68l.758-.758c.188-.188.492-.188.68 0l.759.758c.187.189.187.492 0 .68l-.759.759c-.188.188-.492.188-.68 0l-.758-.759zm1.917-1.918c-.187-.187-.187-.491 0-.679l.759-.759c.188-.187.492-.188.68 0l.758.759c.188.188.188.492 0 .679l-.758.759c-.188.188-.492.188-.68 0l-.759-.759zm.759-3.076l-.759-.759c-.187-.188-.187-.492 0-.68l.759-.758c.188-.188.492-.188.68 0l.758.758c.188.188.188.492 0 .68l-.758.759c-.188.188-.492.188-.68 0zm1.159-2.677c-.187-.187-.187-.492 0-.679l.759-.759c.188-.188.492-.188.679 0l.759.759c.188.187.188.492 0 .679l-.759.759c-.187.188-.491.188-.679 0l-.759-.759zm.279-1.917l-.758.758c-.188.188-.492.188-.68 0l-.759-.758c-.187-.188-.187-.492 0-.68l.759-.759c.188-.187.492-.187.68 0l.758.759c.188.188.188.492 0 .68zm-1.917-1.918l-.759.759c-.188.187-.492.187-.68 0l-.758-.759c-.188-.188-.188-.492 0-.68l.758-.758c.188-.188.492-.188.68 0l.759.758c.187.188.187.492 0 .68zm-1.918-1.918l-.759.759c-.188.188-.492.188-.679 0l-.759-.759c-.188-.188-.188-.492 0-.68l.759-.758c.187-.188.491-.188.679 0l.759.759c.187.187.188.491 0 .679zm-1.918-1.917l-.759.758c-.187.188-.491.188-.679 0l-.759-.758c-.187-.188-.187-.492 0-.68l.759-.758c.188-.188.492-.188.679 0l.759.758c.188.188.188.492 0 .68zm-1.918 1.237c.188.188.188.492 0 .68l-.758.759c-.188.188-.492.188-.68 0l-.758-.759c-.188-.188-.188-.492 0-.679l.758-.759c.188-.188.492-.188.68 0l.758.758zm-1.917-1.237l-.759.758c-.188.188-.492.188-.68 0l-.758-.758c-.188-.188-.188-.492 0-.68l.758-.758c.188-.188.492-.188.68-.001l.759.759c.188.188.188.492 0 .68zm-1.918 1.237c.188.188.188.492.001.68l-.76.759c-.187.188-.492.188-.679 0l-.759-.759c-.187-.188-.188-.492 0-.68l.759-.758c.187-.188.492-.188.679 0l.759.758zm-1.918-1.237l-.758.758c-.188.188-.492.188-.68 0l-.759-.758c-.187-.188-.187-.492 0-.68l.76-.758c.187-.188.491-.188.679 0l.758.758c.188.188.188.492 0 .68zm-1.917 1.238c.187.187.187.491 0 .679l-.759.759c-.188.188-.492.188-.679 0l-.759-.759c-.188-.188-.188-.492 0-.679l.759-.759c.187-.188.491-.188.679 0l.759.759zm-1.918-1.238l-.759.758c-.188.188-.492.188-.679 0l-.759-.758c-.188-.188-.188-.492 0-.68l.759-.758c.187-.188.491-.188.679 0l.759.758c.188.188.188.492 0 .68zm-1.918 1.237c.188.188.188.492 0 .68l-.758.759c-.188.188-.492.188-.68 0l-.759-.759c-.187-.188-.187-.492 0-.679l.759-.759c.188-.188.492-.188.68 0l.758.758zm-1.917 1.918c.187.188.187.492 0 .68l-.759.759c-.188.187-.492.187-.679 0l-.759-.759c-.188-.188-.188-.492 0-.679l.759-.759c.187-.188.491-.188.679 0l.759.758zm-1.918 1.918c.188.188.188.492 0 .68l-.759.758c-.188.188-.491.188-.679 0l-.759-.758c-.188-.188-.188-.492 0-.68l.759-.759c.188-.187.491-.187.679 0l.759.759zm-1.918 1.918c.188.187.187.492 0 .679l-.759.759c-.187.187-.491.188-.679 0l-.759-.759c-.187-.187-.187-.492 0-.679l.759-.759c.188-.187.492-.188.679 0l.759.759zm-.759 3.077l.759.758c.188.188.188.492 0 .68l-.759.758c-.187.188-.491.188-.679 0l-.759-.758c-.187-.188-.187-.492.001-.68l.758-.758c.188-.188.492-.188.679 0zm-1.158 2.676c.187.188.187.492 0 .68l-.759.758c-.188.188-.492.188-.68 0l-.758-.758c-.188-.188-.188-.492 0-.68l.758-.759c.188-.187.492-.187.68 0l.759.759zm-.28 1.917l.759-.758c.188-.188.492-.188.679 0l.759.758c.188.188.188.492 0 .68l-.759.759c-.187.188-.491.188-.679 0l-.759-.759c-.187-.188-.187-.492 0-.68zm1.918 1.919l.759-.759c.188-.188.492-.188.679 0l.759.758c.188.188.188.492 0 .68l-.759.759c-.187.187-.491.187-.679 0l-.759-.759c-.188-.188-.188-.492 0-.679zm1.917 1.917l.76-.759c.187-.188.491-.187.679 0l.759.759c.187.188.187.492 0 .68l-.759.758c-.188.188-.492.188-.679 0l-.759-.758c-.188-.188-.188-.492-.001-.68zm1.918 1.918l.759-.759c.188-.188.492-.188.68 0l.758.759c.188.187.188.492 0 .679l-.758.759c-.188.187-.492.188-.68 0l-.759-.759c-.187-.187-.187-.492 0-.679zm1.918 1.918l.759-.759c.187-.188.492-.188.679 0l.759.758c.188.188.188.492 0 .68l-.759.759c-.187.187-.492.187-.679 0l-.759-.759c-.188-.188-.187-.492 0-.679zm1.918-1.239c-.188-.187-.188-.492 0-.679l.759-.759c.187-.187.491-.188.679 0l.759.759c.187.187.187.492 0 .679l-.759.759c-.188.188-.492.188-.679 0l-.759-.759zm1.917 1.238l.759-.759c.188-.187.492-.187.68 0l.758.76c.188.187.188.491 0 .679l-.758.759c-.188.187-.492.187-.68 0l-.759-.759c-.187-.188-.187-.492 0-.68zm1.918-1.238c-.188-.187-.188-.492 0-.679l.759-.759c.187-.188.492-.188.679 0l.76.759c.187.187.187.492-.001.679l-.759.759c-.187.188-.492.188-.679 0l-.759-.759zm1.918 1.238l.759-.758c.187-.188.491-.188.679-.001l.759.759c.188.188.187.492 0 .68l-.759.758c-.188.188-.492.188-.68.001l-.758-.759c-.188-.188-.188-.492 0-.68zm1.918-1.238c-.188-.187-.188-.492 0-.679l.758-.759c.188-.188.492-.188.68 0l.758.759c.188.187.188.492 0 .679l-.758.759c-.188.188-.492.188-.68 0l-.758-.759zm1.917 1.239l.759-.759c.188-.188.492-.188.679 0l.759.759c.188.187.188.491 0 .679l-.759.759c-.187.187-.491.187-.679 0l-.759-.759c-.187-.188-.187-.492 0-.679zm1.918-1.239c-.188-.187-.188-.492 0-.679l.759-.759c.188-.188.491-.188.679 0l.759.759c.188.187.188.492 0 .679l-.759.759c-.188.188-.491.188-.679 0l-.759-.759zm1.918-1.917c-.188-.188-.188-.492 0-.68l.758-.759c.188-.187.492-.187.68 0l.759.759c.188.188.187.492 0 .679l-.759.759c-.188.188-.492.188-.68 0l-.758-.758zm1.917-1.918c-.187-.188-.187-.492 0-.679l.759-.759c.188-.188.492-.188.68 0l.758.759c.188.187.188.491 0 .679l-.758.759c-.188.187-.492.187-.68 0l-.759-.759zm1.918-1.918c-.187-.188-.187-.491 0-.679l.759-.759c.188-.188.492-.188.679 0l.759.758c.188.189.188.492 0 .68l-.759.759c-.187.188-.491.188-.679 0l-.759-.759zm.759-3.077l-.759-.758c-.187-.188-.187-.492 0-.68l.759-.758c.188-.188.492-.188.679-.001l.759.759c.188.188.188.492 0 .68l-.759.758c-.187.188-.491.188-.679 0zm1.158-2.676c-.187-.188-.187-.492.001-.68l.759-.758c.187-.188.491-.188.679 0l.758.758c.189.188.188.492 0 .68l-.758.759c-.188.188-.492.188-.68 0l-.759-.759zm-.479-7.191l.759.758c.188.188.188.492 0 .68l-.759.759c-.187.187-.491.187-.679 0l-.759-.759c-.187-.188-.187-.492 0-.679l.759-.759c.188-.188.492-.188.679 0zm-1.917-1.918l.758.758c.188.188.188.492 0 .68l-.758.759c-.188.187-.492.188-.68 0l-.759-.759c-.187-.188-.187-.492 0-.68l.759-.758c.188-.188.492-.188.68 0zm-1.918-1.917l.759.758c.187.187.187.492 0 .68l-.759.758c-.187.188-.492.188-.68 0l-.758-.758c-.188-.188-.188-.493 0-.68l.758-.759c.188-.187.493-.187.68.001zm-1.918-1.919l.759.759c.188.188.187.492 0 .68l-.759.758c-.188.188-.492.188-.679.001l-.759-.759c-.188-.188-.188-.492 0-.68l.759-.759c.187-.187.491-.187.679 0zm-3.356-1.159l.759-.758c.188-.188.492-.188.679 0l.759.758c.188.188.188.493 0 .68l-.759.759c-.187.188-.491.188-.679 0l-.759-.759c-.187-.187-.187-.492 0-.68zm-.479 1.159l.758.759c.188.188.188.492 0 .68l-.758.759c-.188.187-.492.187-.68-.001l-.759-.758c-.187-.188-.187-.492.001-.68l.758-.759c.188-.187.492-.187.68 0zm-3.356-1.158l.759-.759c.188-.188.491-.188.679 0l.759.759c.188.187.188.492 0 .679l-.759.759c-.188.188-.491.188-.679 0l-.759-.759c-.188-.187-.188-.492 0-.679zm-.48 1.158l.759.759c.188.188.188.492 0 .68l-.759.759c-.187.187-.492.187-.679 0l-.759-.759c-.188-.188-.187-.492 0-.679l.759-.76c.187-.187.492-.187.679 0zm-3.356-1.158l.759-.759c.188-.188.492-.188.68 0l.758.758c.188.188.188.493 0 .68l-.758.759c-.188.188-.492.188-.68 0l-.759-.759c-.187-.187-.187-.492 0-.679zm-.479 1.158l.759.759c.187.188.187.492 0 .68l-.759.758c-.188.188-.492.188-.679 0l-.759-.758c-.188-.188-.188-.492 0-.68l.759-.759c.187-.187.491-.187.679 0zm-3.356-1.159l.759-.758c.187-.188.492-.188.679 0l.759.759c.188.187.188.492 0 .679l-.759.759c-.187.188-.492.188-.679 0l-.759-.759c-.187-.187-.188-.492 0-.68zm-1.918 1.918l.759-.759c.188-.187.492-.187.68 0l.759.76c.187.187.187.491 0 .679l-.759.759c-.188.187-.492.187-.68 0l-.759-.759c-.187-.188-.187-.492 0-.68zm-1.918 1.918l.76-.759c.187-.187.491-.187.679 0l.759.759c.187.188.187.492 0 .68l-.759.758c-.188.188-.492.188-.679 0l-.76-.758c-.187-.188-.187-.492 0-.68zm-1.917 1.917l.759-.758c.187-.188.492-.188.679 0l.759.759c.188.187.188.491 0 .679l-.759.759c-.187.188-.492.188-.679 0l-.759-.759c-.188-.188-.188-.492 0-.68zm-1.918 1.918l.759-.758c.188-.188.492-.188.679 0l.759.759c.188.187.188.491 0 .679l-.759.759c-.187.187-.491.187-.679 0l-.759-.759c-.187-.188-.187-.492 0-.68zm-1.917 1.918l.758-.759c.188-.187.492-.187.68 0l.759.759c.187.188.187.492 0 .68l-.759.758c-.188.188-.492.188-.68 0l-.759-.758c-.187-.188-.187-.492.001-.68zm0 3.835l.758-.758c.188-.188.492-.188.68 0l.759.758c.187.188.187.492 0 .68l-.759.759c-.188.188-.492.188-.68 0l-.759-.759c-.187-.188-.187-.492.001-.68zm1.438 9.11c-.188.187-.492.187-.68 0l-.759-.759c-.187-.188-.187-.492.001-.68l.758-.759c.188-.187.492-.187.68 0l.759.759c.187.188.187.492 0 .68l-.759.759zm1.238 1.917l-.759-.759c-.187-.187-.187-.491 0-.679l.759-.759c.188-.187.492-.188.679 0l.759.759c.188.188.188.492 0 .679l-.759.759c-.187.188-.491.188-.679 0zm1.918 1.918l-.759-.759c-.188-.187-.188-.492 0-.679l.759-.759c.187-.188.492-.188.679 0l.759.759c.188.187.188.492 0 .679l-.759.759c-.187.188-.492.187-.679 0zm1.918 1.918l-.759-.759c-.188-.188-.188-.492 0-.68l.759-.759c.187-.187.491-.187.679 0l.759.759c.187.188.187.492 0 .68l-.759.759c-.188.187-.492.187-.679 0zm1.917 1.917l-.759-.759c-.187-.187-.187-.491 0-.679l.759-.759c.188-.187.492-.187.68 0l.759.759c.187.188.187.492 0 .679l-.759.759c-.188.188-.492.188-.68 0zm3.356 1.159l-.759.759c-.187.188-.492.188-.679 0l-.759-.759c-.187-.187-.188-.492 0-.679l.759-.759c.187-.188.492-.188.679 0l.759.759c.188.187.188.492 0 .679zm.48-1.158l-.759-.76c-.188-.187-.188-.491 0-.679l.758-.759c.188-.187.493-.187.68 0l.759.759c.187.188.187.492 0 .68l-.759.759c-.187.187-.492.187-.679 0zm3.355 1.158l-.758.759c-.188.188-.492.188-.68 0l-.759-.759c-.187-.187-.187-.492 0-.679l.759-.759c.188-.188.492-.188.68 0l.758.759c.188.187.188.492 0 .679zm.48-1.159l-.759-.759c-.188-.187-.188-.491 0-.679l.759-.759c.187-.187.492-.187.679 0l.759.759c.188.188.188.492 0 .679l-.759.759c-.187.188-.492.188-.679 0zm3.356 1.159l-.759.759c-.188.188-.491.188-.679 0l-.759-.758c-.188-.188-.188-.492 0-.68l.759-.759c.188-.187.491-.188.679 0l.759.759c.188.188.188.492 0 .679zm.479-1.158l-.758-.759c-.188-.188-.188-.492 0-.68l.758-.759c.188-.187.492-.187.68 0l.758.759c.188.188.188.492 0 .679l-.758.759c-.188.188-.492.188-.68.001zm3.356 1.159l-.759.758c-.187.188-.491.188-.679 0l-.759-.759c-.187-.187-.187-.492 0-.679l.759-.759c.188-.188.492-.188.679 0l.759.759c.188.187.188.492 0 .68zm1.918-1.918l-.759.759c-.188.187-.492.187-.679-.001l-.759-.759c-.188-.187-.188-.491 0-.679l.759-.759c.187-.187.491-.187.679 0l.759.759c.187.188.188.492 0 .68zm1.918-1.918l-.759.759c-.187.187-.492.187-.68 0l-.758-.759c-.188-.188-.188-.492 0-.68l.758-.759c.188-.187.493-.187.68 0l.759.759c.187.188.188.492 0 .68zm1.917-1.918l-.758.759c-.188.188-.492.188-.68 0l-.759-.759c-.187-.187-.187-.492 0-.679l.759-.759c.188-.188.492-.188.68 0l.758.759c.188.187.188.492 0 .679zm1.918-1.917l-.759.758c-.187.188-.491.188-.679 0l-.759-.759c-.187-.187-.187-.491 0-.679l.759-.759c.188-.188.492-.187.679 0l.759.759c.188.188.188.492 0 .68zm1.918-1.918l-.759.759c-.187.187-.492.187-.68 0l-.759-.759c-.187-.188-.187-.492 0-.68l.76-.758c.187-.188.492-.188.679-.001l.758.759c.189.188.189.492.001.68zm-.001-3.835l-.758.758c-.188.188-.492.188-.679 0l-.759-.758c-.188-.188-.188-.492 0-.68l.759-.759c.187-.187.491-.187.679 0l.759.759c.188.188.188.492-.001.68z"/></svg>