<svg xmlns="http://www.w3.org/2000/svg" viewBox="0 0 33.771 50.406" enable-background="new 0 0 33.771 50.406"><path d="M22.191 21.847c.187-.035.378-.061.574-.061.204 0 .403.025.597.063-.24-.259-.435-.56-.587-.888-.151.327-.345.627-.584.886zM19.831 27.506c.197 0 .387.026.574.061-.237-.256-.429-.553-.58-.876-.152.323-.344.62-.581.877.191-.037.386-.062.587-.062zM11.005 21.786c.196 0 .386.026.573.06-.239-.259-.433-.558-.584-.885-.152.327-.347.628-.586.887.194-.037.393-.062.597-.062zM13.94 27.506c.201 0 .396.026.587.062-.237-.256-.429-.554-.581-.877-.151.323-.344.62-.58.876.187-.035.377-.061.574-.061zM19.166 25.204c0-1.333-1.023-2.418-2.281-2.418s-2.28 1.085-2.28 2.418c0 1.332 1.022 2.416 2.28 2.416s2.281-1.084 2.281-2.416zM10.96 17.182c-.188 0-.369-.026-.548-.058.238.258.431.557.582.882.153-.328.348-.63.588-.89-.201.041-.409.066-.622.066zM22.812 17.182c-.214 0-.422-.025-.625-.066.241.26.437.562.589.891.151-.326.345-.625.583-.883-.179.031-.36.058-.547.058zM13.94 22.901c-.197 0-.387-.026-.574-.06.236.256.428.553.58.876.151-.323.344-.621.58-.877-.191.036-.386.061-.586.061zM13.317 16.132c.202-.041.409-.066.623-.066.201 0 .395.026.586.062-.248-.268-.449-.579-.603-.92-.155.342-.357.655-.606.924zM19.245 16.128c.191-.036.385-.062.586-.062.213 0 .421.025.623.066-.249-.269-.452-.582-.606-.924-.154.341-.356.652-.603.92zM16.298 17.12c.24.259.434.56.586.887.152-.327.347-.628.586-.887-.191.036-.385.062-.586.062-.2 0-.395-.026-.586-.062zM19.831 22.901c-.201 0-.396-.026-.587-.062.237.256.429.554.581.877.151-.323.343-.62.58-.876-.187.035-.377.061-.574.061z" fill="none"/><ellipse cx="19.831" cy="30.923" rx="2.282" ry="2.417" fill="none"/><path d="M22.766 22.786c-1.258 0-2.281 1.085-2.281 2.418 0 1.332 1.023 2.416 2.281 2.416s2.281-1.084 2.281-2.416c0-1.333-1.023-2.418-2.281-2.418zM25.722 22.901c-.205 0-.403-.025-.597-.063.237.256.429.554.581.877.151-.322.343-.618.578-.873-.184.033-.37.059-.562.059z" fill="none"/><ellipse cx="28.646" cy="25.204" rx="2.281" ry="2.416" fill="none"/><ellipse cx="13.939" cy="19.484" rx="2.28" ry="2.417" fill="none"/><path d="M16.885 28.62c-.201 0-.396-.026-.587-.062.24.259.435.561.587.888.152-.327.347-.629.587-.888-.192.036-.386.062-.587.062z" fill="none"/><ellipse cx="19.831" cy="19.484" rx="2.28" ry="2.417" fill="none"/><path d="M16.885 21.786c.2 0 .395.026.586.062-.239-.259-.434-.56-.586-.887-.152.327-.346.628-.586.887.19-.036.385-.062.586-.062zM13.286 25.204c0-1.333-1.023-2.418-2.281-2.418s-2.28 1.085-2.28 2.418c0 1.332 1.022 2.416 2.28 2.416s2.281-1.084 2.281-2.416z" fill="none"/><ellipse cx="13.939" cy="30.923" rx="2.281" ry="2.417" fill="none"/><path d="M8.049 22.901c-.193 0-.379-.026-.562-.059.236.256.428.552.579.875.152-.324.344-.622.582-.878-.196.037-.394.062-.599.062z" fill="none"/><ellipse cx="8.049" cy="30.923" rx="2.281" ry="2.417" fill="none"/><path d="M7.406 25.204c0-1.333-1.023-2.418-2.282-2.418-1.258 0-2.28 1.085-2.28 2.418 0 1.332 1.022 2.416 2.28 2.416 1.259 0 2.282-1.084 2.282-2.416z" fill="none"/><ellipse cx="16.885" cy="13.765" rx="2.281" ry="2.417" fill="none"/><ellipse cx="10.96" cy="13.765" rx="2.281" ry="2.417" fill="none"/><path d="M10.96 34.225c-1.259 0-2.282 1.085-2.282 2.418 0 1.332 1.023 2.416 2.282 2.416 1.258 0 2.281-1.084 2.281-2.416 0-1.333-1.023-2.418-2.281-2.418z" fill="none"/><ellipse cx="8.049" cy="19.484" rx="2.281" ry="2.417" fill="none"/><ellipse cx="25.722" cy="30.923" rx="2.281" ry="2.417" fill="none"/><path d="M16.885 34.225c-1.258 0-2.28 1.085-2.28 2.418 0 1.332 1.022 2.416 2.28 2.416s2.281-1.084 2.281-2.416c0-1.333-1.023-2.418-2.281-2.418zM22.812 34.225c-1.259 0-2.282 1.085-2.282 2.418 0 1.332 1.023 2.416 2.282 2.416 1.258 0 2.28-1.084 2.28-2.416 0-1.333-1.023-2.418-2.28-2.418z" fill="none"/><ellipse cx="22.812" cy="13.765" rx="2.28" ry="2.417" fill="none"/><path d="M14.526 34.278c-.191.036-.385.062-.586.062-.213 0-.421-.025-.623-.066.249.269.452.582.606.924.153-.34.355-.652.603-.92zM10.96 33.225c.213 0 .421.025.623.066-.241-.26-.436-.562-.588-.89-.151.325-.345.624-.582.882.178-.032.359-.058.547-.058zM17.471 33.286c-.239-.259-.434-.56-.586-.887-.152.327-.346.628-.586.887.191-.036.385-.062.586-.062.2.001.395.026.586.062zM11.579 28.56c-.187.035-.378.06-.574.06-.205 0-.404-.025-.598-.063.24.259.435.561.587.888.152-.326.346-.627.585-.885zM8.049 27.506c.205 0 .404.025.598.063-.238-.257-.43-.555-.582-.878-.151.322-.343.619-.579.875.184-.034.37-.06.563-.06zM22.766 28.62c-.197 0-.388-.026-.575-.061.239.259.434.56.586.887.152-.328.347-.63.587-.889-.195.038-.394.063-.598.063zM20.454 34.274c-.202.041-.41.066-.623.066-.201 0-.396-.026-.587-.062.248.268.45.58.603.92.155-.342.358-.655.607-.924z" fill="none"/><ellipse cx="25.722" cy="19.484" rx="2.281" ry="2.417" fill="none"/><path d="M26.284 27.565c-.236-.255-.427-.552-.578-.873-.152.323-.344.621-.581.877.194-.038.393-.063.597-.063.192 0 .378.026.562.059zM22.812 33.225c.187 0 .368.026.547.058-.238-.258-.431-.557-.583-.883-.153.329-.348.631-.589.891.202-.042.411-.066.625-.066z" fill="none"/><path fill="#1E0F00" d="M31.927 25.204c0-1.885-1.472-3.418-3.281-3.418-.192 0-.378.026-.562.059.566-.614.919-1.444.919-2.361 0-1.885-1.472-3.418-3.281-3.418-.188 0-.369.026-.548.058.565-.614.918-1.443.918-2.359 0-1.884-1.472-3.417-3.28-3.417-1.312 0-2.439.812-2.964 1.973-.524-1.162-1.651-1.973-2.963-1.973s-2.438.812-2.962 1.973c-.525-1.162-1.651-1.973-2.963-1.973-1.81 0-3.282 1.533-3.282 3.417 0 .916.353 1.745.918 2.359-.179-.031-.36-.058-.547-.058-1.81 0-3.281 1.533-3.281 3.418 0 .917.353 1.747.919 2.361-.184-.033-.37-.059-.563-.059-1.809 0-3.28 1.533-3.28 3.418 0 1.884 1.472 3.416 3.28 3.416.193 0 .38-.026.564-.059-.567.615-.92 1.445-.92 2.362 0 1.884 1.472 3.417 3.281 3.417.188 0 .368-.026.548-.058-.566.614-.919 1.444-.919 2.36 0 1.884 1.473 3.416 3.282 3.416 1.312 0 2.438-.811 2.963-1.972.524 1.161 1.65 1.972 2.962 1.972 1.312 0 2.438-.811 2.963-1.972.525 1.161 1.652 1.972 2.964 1.972 1.809 0 3.28-1.532 3.28-3.416 0-.917-.353-1.746-.918-2.36.179.032.36.058.548.058 1.81 0 3.281-1.533 3.281-3.417 0-.917-.353-1.747-.92-2.362.184.033.37.059.563.059 1.809 0 3.281-1.532 3.281-3.416zm-1 0c0 1.332-1.023 2.416-2.281 2.416s-2.281-1.084-2.281-2.416c0-1.333 1.023-2.418 2.281-2.418s2.281 1.085 2.281 2.418zm-5.221-1.488c-.152-.323-.344-.621-.581-.877.194.038.393.063.597.063.192 0 .378-.026.562-.059-.236.255-.428.551-.578.873zm-2.94 3.904c-1.258 0-2.281-1.084-2.281-2.416 0-1.333 1.023-2.418 2.281-2.418s2.281 1.085 2.281 2.418c0 1.332-1.023 2.416-2.281 2.416zm-2.935 5.72c-1.259 0-2.282-1.084-2.282-2.417 0-1.333 1.023-2.417 2.282-2.417 1.258 0 2.28 1.084 2.28 2.417 0 1.333-1.022 2.417-2.28 2.417zm-2.947-3.894c-.152-.327-.347-.629-.587-.888.191.036.386.062.587.062s.396-.026.587-.062c-.239.26-.435.561-.587.888zm-2.944 3.894c-1.258 0-2.281-1.084-2.281-2.417 0-1.333 1.023-2.417 2.281-2.417s2.28 1.084 2.28 2.417c0 1.333-1.023 2.417-2.28 2.417zm-5.215-8.136c0-1.333 1.022-2.418 2.28-2.418s2.281 1.085 2.281 2.418c0 1.332-1.023 2.416-2.281 2.416s-2.28-1.084-2.28-2.416zm5.215-8.138c1.258 0 2.28 1.085 2.28 2.418s-1.022 2.417-2.28 2.417-2.281-1.084-2.281-2.417 1.023-2.418 2.281-2.418zm2.944 3.895c.152.327.347.628.586.887-.191-.036-.385-.062-.586-.062-.201 0-.396.026-.586.062.24-.259.435-.56.586-.887zm2.947-3.895c1.258 0 2.28 1.085 2.28 2.418s-1.022 2.417-2.28 2.417c-1.259 0-2.282-1.084-2.282-2.417s1.023-2.418 2.282-2.418zm-5.886 6.651c-.151-.323-.343-.62-.58-.876.187.035.377.06.574.06.201 0 .395-.026.586-.062-.236.257-.428.555-.58.878zm0 2.974c.151.323.344.62.581.877-.191-.036-.386-.062-.587-.062-.197 0-.387.026-.574.061.237-.257.429-.554.58-.876zm.66-1.487c0-1.333 1.022-2.418 2.28-2.418s2.281 1.085 2.281 2.418c0 1.332-1.023 2.416-2.281 2.416s-2.28-1.084-2.28-2.416zm5.22 1.487c.151.323.343.62.58.876-.187-.035-.377-.061-.574-.061-.201 0-.396.026-.587.062.237-.257.43-.554.581-.877zm0-2.974c-.151-.323-.344-.621-.581-.877.191.036.386.062.587.062.197 0 .386-.026.574-.061-.236.256-.429.553-.58.876zm2.941-1.931c-.197 0-.387.026-.574.061.239-.259.433-.559.585-.886.152.328.347.629.587.888-.195-.038-.394-.063-.598-.063zm.01-3.779c-.153-.329-.348-.631-.589-.891.203.041.411.066.625.066.187 0 .368-.026.547-.058-.238.258-.432.557-.583.883zm-2.945-1.941c-.201 0-.396.026-.586.062.248-.268.449-.579.603-.92.155.342.357.655.606.924-.202-.041-.409-.066-.623-.066zm-2.947 1.941c-.152-.327-.346-.628-.586-.887.191.036.385.062.586.062.2 0 .395-.026.586-.062-.239.259-.434.56-.586.887zm-2.944-1.941c-.213 0-.421.025-.623.066.249-.269.451-.582.606-.924.154.34.355.652.603.92-.191-.036-.386-.062-.586-.062zm-2.946 1.94c-.151-.325-.345-.624-.582-.882.179.032.36.058.548.058.213 0 .421-.025.623-.066-.241.26-.436.562-.589.89zm0 2.956c.152.326.346.626.584.885-.187-.035-.377-.06-.573-.06-.204 0-.403.025-.597.063.239-.26.434-.561.586-.888zm-2.929 2.755c-.151-.322-.343-.619-.579-.875.184.033.37.059.562.059.205 0 .404-.025.598-.063-.236.257-.429.555-.581.879zm0 2.974c.152.324.344.622.582.878-.195-.038-.394-.063-.598-.063-.193 0-.379.026-.563.059.236-.256.428-.552.579-.874zm2.94 1.929c.197 0 .387-.026.574-.06-.239.259-.433.559-.585.886-.152-.328-.347-.629-.587-.888.194.037.393.062.598.062zm-.011 3.78c.153.328.348.63.588.89-.202-.041-.409-.066-.623-.066-.188 0-.369.026-.548.058.238-.258.432-.556.583-.882zm2.946 1.94c.201 0 .395-.026.586-.062-.248.268-.449.579-.603.92-.155-.342-.357-.655-.606-.924.202.041.409.066.623.066zm2.944-1.941c.152.327.347.628.586.887-.191-.036-.385-.062-.586-.062-.201 0-.396.026-.586.062.24-.259.435-.559.586-.887zm2.947 1.941c.213 0 .421-.025.623-.066-.25.269-.452.582-.607.924-.154-.341-.355-.652-.603-.92.192.036.386.062.587.062zm2.945-1.941c.151.325.345.625.583.883-.179-.031-.36-.058-.547-.058-.214 0-.422.025-.625.066.241-.26.436-.562.589-.891zm0-2.953c-.152-.327-.346-.628-.586-.887.188.035.378.061.575.061.205 0 .403-.025.598-.063-.24.26-.435.561-.587.889zm2.93-2.754c.151.322.343.618.578.873-.184-.033-.37-.059-.562-.059-.205 0-.403.025-.597.063.236-.257.429-.554.581-.877zm2.297-7.208c0 1.333-1.023 2.417-2.281 2.417s-2.281-1.084-2.281-2.417 1.023-2.418 2.281-2.418 2.281 1.085 2.281 2.418zm-5.191-8.136c1.258 0 2.28 1.084 2.28 2.417s-1.022 2.417-2.28 2.417c-1.259 0-2.282-1.084-2.282-2.417s1.023-2.417 2.282-2.417zm-5.927 0c1.258 0 2.281 1.084 2.281 2.417s-1.023 2.417-2.281 2.417-2.28-1.084-2.28-2.417 1.022-2.417 2.28-2.417zm-5.925 0c1.258 0 2.281 1.084 2.281 2.417s-1.023 2.417-2.281 2.417c-1.259 0-2.282-1.084-2.282-2.417s1.023-2.417 2.282-2.417zm-2.911 5.718c1.258 0 2.281 1.085 2.281 2.418s-1.023 2.417-2.281 2.417-2.281-1.084-2.281-2.417 1.023-2.418 2.281-2.418zm-5.205 8.138c0-1.333 1.022-2.418 2.28-2.418 1.259 0 2.282 1.085 2.282 2.418 0 1.332-1.023 2.416-2.282 2.416-1.258 0-2.28-1.084-2.28-2.416zm2.924 5.719c0-1.333 1.023-2.417 2.281-2.417s2.281 1.084 2.281 2.417c0 1.333-1.023 2.417-2.281 2.417s-2.281-1.084-2.281-2.417zm5.192 8.136c-1.259 0-2.282-1.084-2.282-2.416 0-1.333 1.023-2.418 2.282-2.418 1.258 0 2.281 1.085 2.281 2.418 0 1.332-1.023 2.416-2.281 2.416zm5.925 0c-1.258 0-2.28-1.084-2.28-2.416 0-1.333 1.022-2.418 2.28-2.418s2.281 1.085 2.281 2.418c0 1.332-1.023 2.416-2.281 2.416zm5.927 0c-1.259 0-2.282-1.084-2.282-2.416 0-1.333 1.023-2.418 2.282-2.418 1.258 0 2.28 1.085 2.28 2.418 0 1.332-1.023 2.416-2.28 2.416zm2.91-5.719c-1.258 0-2.281-1.084-2.281-2.417 0-1.333 1.023-2.417 2.281-2.417s2.281 1.084 2.281 2.417c0 1.333-1.023 2.417-2.281 2.417z"/></svg>