<svg xmlns="http://www.w3.org/2000/svg" viewBox="0 0 48.446 50.406" enable-background="new 0 0 48.446 50.406"><path d="M40.275 40.525c0 1.349 1.098 2.447 2.447 2.447s2.447-1.098 2.447-2.447c0-1.997-1.618-4.13-2.447-5.091-.828.963-2.447 3.1-2.447 5.091zm2.337 1.645c-.127.206-.349.32-.575.32-.121 0-.243-.032-.353-.1-.972-.599-1.283-1.722-1.316-1.848-.093-.361.125-.728.486-.821.359-.094.726.124.82.483.006.021.204.721.717 1.038.317.195.416.61.221.928z" fill="none"/><path fill="#1E0F00" d="M41.971 30.432c.921-.25 1.56-.81 1.754-1.536.193-.727-.083-1.531-.757-2.205l-19.207-19.206c-.264-.264-.69-.264-.953 0s-.264.69 0 .954l19.206 19.206c.325.326.473.655.407.904s-.36.461-.803.582l-1.337.363c-1.557.422-3.67 1.647-4.811 2.788l-13.482 13.482c-.76.76-2.101.76-2.861 0l-15.259-15.259c-.789-.789-.789-2.072 0-2.86l9.321-9.321.004-.004 6.946-6.946c.264-.264.264-.69 0-.953-.264-.264-.69-.264-.954 0l-5.797 5.797v-8.4c0-2.076 1.689-3.766 3.765-3.766s3.765 1.689 3.765 3.766v11.744c0 .373.302.674.674.674s.674-.302.674-.674v-11.745c0-2.82-2.293-5.114-5.114-5.114-2.82 0-5.114 2.294-5.114 5.114v9.748l-9.126 9.125c-1.314 1.314-1.314 3.453 0 4.768l15.26 15.259c.657.657 1.521.986 2.384.986s1.727-.328 2.384-.986l13.483-13.482c.965-.964 2.893-2.082 4.21-2.44l1.338-.363zM43.198 33.956c-.264-.262-.688-.262-.952 0-.135.135-3.32 3.344-3.32 6.569 0 2.093 1.703 3.796 3.796 3.796s3.796-1.703 3.796-3.796c0-3.225-3.185-6.435-3.32-6.569zm-.476 9.017c-1.349 0-2.447-1.098-2.447-2.447 0-1.992 1.619-4.129 2.448-5.091.829.961 2.447 3.094 2.447 5.091-.001 1.349-1.099 2.447-2.448 2.447zM42.391 41.242c-.512-.316-.711-1.016-.717-1.038-.094-.359-.461-.577-.82-.483-.361.092-.579.46-.486.821.032.126.344 1.25 1.316 1.848.11.068.232.1.353.1.227 0 .448-.114.575-.32.195-.318.096-.733-.221-.928zM8.91 23.495l-4.54 4.54c-.264.264-.264.69 0 .953.132.131.304.198.477.198s.345-.065.477-.198l4.54-4.54c.264-.264.264-.69 0-.953s-.69-.264-.954 0z"/></svg>