<?xml version="1.0" encoding="utf-8"?>
<!-- Generator: Adobe Illustrator 18.1.1, SVG Export Plug-In . SVG Version: 6.00 Build 0)  -->
<svg version="1.1" id="Слой_1" xmlns="http://www.w3.org/2000/svg" xmlns:xlink="http://www.w3.org/1999/xlink" x="0px" y="0px"
	 viewBox="0 0 47.25 50.406" enable-background="new 0 0 47.25 50.406" xml:space="preserve">
<g>
	<path fill="none" d="M34.477,11.218l-0.363-0.386l0.939-0.784c-2.906-2.889-6.88-4.534-10.985-4.534l-0.201,0.001
		c-4.216,0.056-8.248,1.834-11.133,4.894l0.652,0.765l-0.29,0.325c-2.532,2.846-3.903,6.32-3.858,9.783l0.175,13.328l1.574-0.021
		l-0.173-13.33c-0.043-3.241,1.16-6.404,3.389-8.905l0.326-0.366l0.888,0.763c2.215-2.289,5.278-3.615,8.48-3.657l0.155-0.001
		c3.108,0,6.114,1.22,8.34,3.364l0.591-0.788l0.407,0.434c2.124,2.261,3.271,5.311,3.315,8.82l0.175,13.329l1.576-0.021
		l-0.175-13.329C38.234,17.22,36.883,13.781,34.477,11.218z"/>
	<path fill="none" d="M21.645,40.588l-3.434,0.044c-1.139,0.017-2.053,0.959-2.037,2.102c0.041,0.11,0.096,0.264,0.162,0.805
		l0.068,0.554l-6.441,0.082c-0.001,0-0.001,0-0.001,0c-2.6,0-5.033-2.407-5.065-4.954l-0.068-5.139L5.51,34.33
		c0.286,0.104,0.566,0.174,1.041,0.195L6.367,20.348c-1.108,0.113-2.104,0.558-2.843,1.274c-0.823,0.8-1.268,1.874-1.252,3.025
		l0.073,5.676c0.018,1.277,0.887,2.401,1.614,3.119l0.146,0.144l0.074,5.646c0.038,2.963,2.771,5.661,5.731,5.661v0.5l0.063-0.5
		l11.699-0.154c0.547-0.007,1.061-0.229,1.445-0.625c0.389-0.399,0.598-0.924,0.59-1.479C23.694,41.506,22.769,40.588,21.645,40.588
		z"/>
	<path fill="none" d="M41.127,19.918l0.186,14.17c1.065-0.111,1.959-0.538,2.605-1.249c0.698-0.771,1.075-1.852,1.06-3.046
		l-0.074-5.678C44.878,22.124,43.697,20.116,41.127,19.918z"/>
	<path fill="#1E0F00" d="M35.561,10.927l0.954-0.797l-0.363-0.387c-3.122-3.323-7.526-5.229-12.084-5.229l-0.215,0.001
		c-4.641,0.062-9.072,2.084-12.16,5.549l-0.29,0.326l0.66,0.773c-2.516,2.97-3.871,6.551-3.825,10.132l0.188,14.328L12,35.575
		l-0.187-14.33c-0.038-2.832,0.959-5.603,2.815-7.854l0.873,0.75l0.326-0.366c2.049-2.3,4.994-3.643,8.082-3.683l0.142-0.001
		c3.031,0,5.957,1.266,8.027,3.471l0.407,0.435l0.572-0.763c1.695,2.024,2.607,4.673,2.646,7.701l0.188,14.327l3.576-0.044
		l-0.188-14.331C39.233,17.141,37.916,13.625,35.561,10.927z M36.88,34.251l-0.175-13.329c-0.045-3.51-1.191-6.56-3.315-8.82
		l-0.407-0.434l-0.591,0.788c-2.226-2.145-5.231-3.364-8.34-3.364l-0.155,0.001c-3.202,0.042-6.266,1.368-8.48,3.657l-0.888-0.763
		l-0.326,0.366c-2.229,2.501-3.432,5.664-3.389,8.905l0.173,13.33l-1.574,0.021L9.237,21.281c-0.045-3.463,1.326-6.938,3.858-9.783
		l0.29-0.325l-0.652-0.765c2.885-3.06,6.917-4.838,11.133-4.894l0.201-0.001c4.105,0,8.079,1.646,10.985,4.534l-0.939,0.784
		l0.363,0.386c2.406,2.563,3.758,6.002,3.805,9.684l0.175,13.329L36.88,34.251z"/>
	<path fill="#1E0F00" d="M45.903,24.103c-0.039-3.062-2.176-5.2-5.288-5.2c-0.001,0-0.001,0-0.002,0l-0.5,0.007l0.213,16.213
		l0.499-0.006c1.571-0.02,2.896-0.575,3.833-1.605c0.869-0.958,1.338-2.283,1.319-3.731L45.903,24.103z M43.918,32.839
		c-0.646,0.711-1.54,1.138-2.605,1.249l-0.186-14.17c2.57,0.198,3.751,2.206,3.776,4.197l0.074,5.678
		C44.993,30.987,44.616,32.068,43.918,32.839z"/>
	<path fill="#1E0F00" d="M21.605,39.588l-3.408,0.044c-1.69,0.024-3.047,1.422-3.023,3.115c0.002,0.158,0.018,0.25,0.063,0.359
		l-5.332,0.067c-2.035,0.001-3.983-1.927-4.009-3.967l-0.05-3.752c0.282,0.05,0.619,0.078,1.06,0.078l0.658-0.008L7.354,19.311
		l-0.5,0.007c-1.563,0.021-2.993,0.584-4.025,1.587c-1.022,0.992-1.575,2.326-1.556,3.756l0.073,5.676
		c0.021,1.525,0.939,2.815,1.766,3.669l0.068,5.239c0.045,3.479,3.254,6.647,6.731,6.647l11.775-0.154
		c0.813-0.011,1.577-0.34,2.148-0.928c0.575-0.591,0.885-1.369,0.873-2.188C24.687,40.949,23.312,39.588,21.605,39.588z
		 M23.118,44.113c-0.385,0.396-0.898,0.618-1.445,0.625L9.974,44.893l-0.063,0.5v-0.5c-2.961,0-5.693-2.698-5.731-5.661
		l-0.074-5.646L3.96,33.442c-0.728-0.718-1.597-1.842-1.614-3.119l-0.073-5.676c-0.016-1.151,0.429-2.226,1.252-3.025
		c0.739-0.717,1.734-1.161,2.843-1.274l0.184,14.178c-0.475-0.021-0.755-0.091-1.041-0.195l-0.682-0.249l0.068,5.139
		c0.032,2.547,2.466,4.954,5.065,4.954c0,0,0,0,0.001,0l6.441-0.082l-0.068-0.554c-0.066-0.541-0.121-0.694-0.162-0.805
		c-0.016-1.143,0.898-2.085,2.037-2.102l3.434-0.044c1.124,0,2.05,0.918,2.063,2.047C23.716,43.189,23.507,43.714,23.118,44.113z"/>
</g>
</svg>
