<?xml version="1.0" encoding="utf-8"?>
<!-- Generator: Adobe Illustrator 18.1.1, SVG Export Plug-In . SVG Version: 6.00 Build 0)  -->
<svg version="1.1" id="Слой_1" xmlns="http://www.w3.org/2000/svg" xmlns:xlink="http://www.w3.org/1999/xlink" x="0px" y="0px"
	 viewBox="0 0 37.458 50.406" enable-background="new 0 0 37.458 50.406" xml:space="preserve">
<g>
	<path fill="none" d="M34.479,20.616V18.22H21.044c-2.159,0-4.699,0.938-6.039,2.229c-1.425,1.376-2.94,4.159-2.94,6.608
		c0,4.872,3.964,8.836,8.837,8.836s8.838-3.964,8.838-8.836c0-1.542-0.403-3.052-1.168-4.386h-2.956
		c1.099,1.181,1.728,2.744,1.728,4.386c0,3.552-2.89,6.44-6.441,6.44s-6.441-2.889-6.441-6.44s2.889-6.441,6.439-6.442H34.479z"/>
	<path fill="#1E0F00" d="M13.255,19.855c1.144-1.225,2.578-2.174,4.193-2.738L7.69,15.476l-0.118,0.705l-3.836-2.669l-0.266,0.385
		l4.017,2.795l-0.012,0.071l-4.8-1.673L2.52,15.531l4.875,1.699L7.39,17.259l-5.297-0.378l-0.033,0.467l5.155,0.368l-5.235,0.848
		l0.075,0.462l5.18-0.838l-0.107,0.636L13.255,19.855z"/>
	<path fill="#1E0F00" d="M20.899,21.616h14.58V17.22H21.044c-2.433,0-5.201,1.032-6.732,2.511c-1.306,1.259-3.247,4.249-3.247,7.327
		c0,5.424,4.413,9.836,9.837,9.836c5.425,0,9.838-4.412,9.838-9.836c0-1.819-0.504-3.6-1.458-5.148l-0.146-0.237h-6.456l1.314,0.911
		c1.472,1.02,2.35,2.692,2.35,4.475c0,3-2.441,5.44-5.441,5.44s-5.441-2.44-5.441-5.44S17.9,21.617,20.899,21.616z M14.46,27.058
		c0,3.552,2.89,6.44,6.441,6.44s6.441-2.889,6.441-6.44c0-1.642-0.629-3.205-1.728-4.386h2.956c0.765,1.334,1.168,2.844,1.168,4.386
		c0,4.872-3.965,8.836-8.838,8.836s-8.837-3.964-8.837-8.836c0-2.449,1.516-5.232,2.94-6.608c1.34-1.292,3.88-2.229,6.039-2.229
		h13.436v2.396h-13.58C17.348,20.617,14.46,23.507,14.46,27.058z"/>
</g>
</svg>
