<?xml version="1.0" encoding="utf-8"?>
<!-- Generator: Adobe Illustrator 18.1.1, SVG Export Plug-In . SVG Version: 6.00 Build 0)  -->
<svg version="1.1" id="Слой_1" xmlns="http://www.w3.org/2000/svg" xmlns:xlink="http://www.w3.org/1999/xlink" x="0px" y="0px"
	 viewBox="0 0 48.5 50.406" enable-background="new 0 0 48.5 50.406" xml:space="preserve">
<g>
	<path fill="none" d="M36.886,11.038c-0.461-0.591-0.507-1.129-0.145-1.783c0.3-0.542,0.481-1.145,0.726-1.75H24.951v5.218h12.994
		C37.575,12.125,37.281,11.544,36.886,11.038z"/>
	<path fill="none" d="M26.005,29.211c-3.838,3.719-7.678,7.439-11.448,11.092c0.507,0.502,1.064,1.054,1.65,1.634
		c3.111-3.015,6.246-6.054,9.423-9.133c1.574,1.536,3.129,3.052,4.71,4.593c3.619-3.508,7.21-6.99,10.915-10.581
		c0.428,0.469,0.821,0.9,1.266,1.387v-4.286H38.16c-0.022,0.033-0.044,0.065-0.066,0.098c0.44,0.377,0.88,0.753,1.272,1.088
		c-2.952,2.86-5.846,5.664-8.822,8.548C29.027,32.167,27.474,30.648,26.005,29.211z"/>
	<path fill="none" d="M30.237,39.271c-1.562-1.526-3.116-3.043-4.712-4.602c-3.124,3.027-6.261,6.066-9.352,9.062
		c-1.208-1.166-2.411-2.328-3.594-3.47c4.442-4.303,8.905-8.629,13.474-13.055c1.559,1.521,3.114,3.038,4.691,4.577
		c1.152-1.12,2.319-2.247,3.471-3.388c0.072-0.072,0.074-0.281,0.023-0.388c-0.941-1.953-1.893-3.901-2.851-5.845
		c-0.051-0.102-0.186-0.233-0.284-0.235c-0.938-0.018-1.877-0.011-2.895-0.011c0.698,1.246,1.359,2.425,2.031,3.624
		c-0.407,0.216-0.771,0.408-1.152,0.61c-0.104-0.177-0.182-0.304-0.255-0.434c-1.148-2.036-2.301-4.069-3.436-6.111
		c-0.134-0.242-0.28-0.32-0.556-0.318c-1.959,0.011-3.919,0.015-5.878-0.001c-0.311-0.003-0.438,0.112-0.561,0.363
		c-3.938,8.048-7.884,16.092-11.828,24.137c-0.064,0.131-0.113,0.268-0.179,0.425h35.751c-1.817-3.727-3.613-7.412-5.456-11.194
		C34.518,35.121,32.421,37.154,30.237,39.271z"/>
	<path fill="#1E0F00" d="M43.937,44.234c-0.229,0.009-0.351-0.064-0.451-0.27c-1.874-3.863-3.753-7.724-5.641-11.58
		c-0.11-0.225-0.082-0.356,0.096-0.526c1.005-0.957,1.998-1.928,2.996-2.892c0.075-0.072,0.166-0.129,0.355-0.275
		c0.857,0.863,1.699,1.712,2.548,2.567v-8.636h-8.912c-0.023,0.032-0.045,0.065-0.068,0.097c0.877,0.822,1.753,1.644,2.603,2.441
		c-0.72,0.699-1.413,1.371-2.121,2.058c-0.054-0.105-0.123-0.236-0.188-0.368c-0.962-1.973-1.928-3.944-2.881-5.92
		c-0.111-0.231-0.243-0.314-0.508-0.312c-1.325,0.014-2.65,0.001-3.975,0.011c-0.226,0.002-0.357-0.059-0.463-0.259
		c-0.288-0.547-0.634-1.067-0.893-1.625c-0.257-0.552-0.584-0.902-1.264-0.748c-0.071,0.016-0.156-0.025-0.215-0.036v-3.924h15.327
		c-0.08-0.147-0.133-0.255-0.196-0.358c-0.673-1.088-1.341-2.18-2.028-3.261c-0.154-0.243-0.186-0.44-0.068-0.713
		c0.448-1.03,0.867-2.073,1.295-3.111c0.048-0.118,0.086-0.239,0.147-0.409H24.91V4.917h-1.33v13.085h-0.487
		c-1.649,0-3.298,0.007-4.947-0.006c-0.291-0.002-0.443,0.074-0.573,0.342c-1.256,2.593-2.531,5.176-3.799,7.763
		c-2.899,5.913-5.799,11.825-8.688,17.742c-0.14,0.287-0.287,0.424-0.628,0.393c-0.373-0.033-0.752-0.007-1.149-0.007v1.26h41.882
		v-1.26C44.751,44.229,44.343,44.217,43.937,44.234z M39.366,25.103c-0.392-0.335-0.832-0.711-1.272-1.088
		c0.022-0.033,0.044-0.065,0.066-0.098h4.361v4.286c-0.445-0.487-0.838-0.918-1.266-1.387c-3.705,3.591-7.296,7.073-10.915,10.581
		c-1.581-1.541-3.136-3.057-4.71-4.593c-3.177,3.079-6.312,6.118-9.423,9.133c-0.586-0.58-1.143-1.132-1.65-1.634
		c3.77-3.653,7.61-7.373,11.448-11.092c1.469,1.437,3.022,2.956,4.539,4.44C33.52,30.767,36.414,27.963,39.366,25.103z
		 M24.951,7.505h12.516c-0.245,0.605-0.426,1.208-0.726,1.75c-0.362,0.654-0.316,1.192,0.145,1.783
		c0.395,0.506,0.689,1.087,1.059,1.685H24.951V7.505z M6.394,44.211c0.066-0.157,0.115-0.294,0.179-0.425
		c3.944-8.045,7.89-16.089,11.828-24.137c0.123-0.251,0.25-0.366,0.561-0.363c1.959,0.016,3.919,0.012,5.878,0.001
		c0.276-0.002,0.422,0.076,0.556,0.318c1.135,2.042,2.288,4.075,3.436,6.111c0.073,0.13,0.151,0.257,0.255,0.434
		c0.381-0.202,0.745-0.394,1.152-0.61c-0.672-1.199-1.333-2.378-2.031-3.624c1.018,0,1.957-0.007,2.895,0.011
		c0.098,0.002,0.233,0.133,0.284,0.235c0.958,1.944,1.91,3.892,2.851,5.845c0.051,0.107,0.049,0.316-0.023,0.388
		c-1.152,1.141-2.319,2.268-3.471,3.388c-1.577-1.539-3.132-3.056-4.691-4.577c-4.569,4.426-9.032,8.752-13.474,13.055
		c1.183,1.142,2.386,2.304,3.594,3.47c3.091-2.996,6.228-6.035,9.352-9.062c1.596,1.559,3.15,3.076,4.712,4.602
		c2.184-2.117,4.281-4.15,6.452-6.254c1.843,3.782,3.639,7.467,5.456,11.194H6.394z"/>
</g>
</svg>
