<?xml version="1.0" encoding="utf-8"?>
<!-- Generator: Adobe Illustrator 18.1.1, SVG Export Plug-In . SVG Version: 6.00 Build 0)  -->
<svg version="1.1" id="Слой_1" xmlns="http://www.w3.org/2000/svg" xmlns:xlink="http://www.w3.org/1999/xlink" x="0px" y="0px"
	 viewBox="0 0 55.25 50.406" enable-background="new 0 0 55.25 50.406" xml:space="preserve">
<g>
	<path fill="none" d="M6.859,29.818v10.548c0,2.176,1.78,3.955,3.955,3.955c2.176,0,3.955-1.78,3.955-3.955V25.862h-3.955
		C8.639,25.862,6.859,27.642,6.859,29.818z"/>
	<rect x="23.34" y="33.114" fill="none" width="14.503" height="2.637"/>
	<rect x="23.34" y="15.315" fill="none" width="14.503" height="2.637"/>
	<rect x="23.34" y="24.544" fill="none" width="19.118" height="2.637"/>
	<path fill="#1E0F00" d="M47.072,3.449H18.726c-2.176,0-3.956,1.78-3.956,3.955v15.822h-3.955c-3.626,0-6.592,2.967-6.592,6.592
		v10.548c0,3.626,2.967,6.592,6.592,6.592h32.302c4.351,0,7.911-3.56,7.911-7.911V7.404C51.028,5.228,49.248,3.449,47.072,3.449z
		 M14.77,40.365c0,2.176-1.78,3.955-3.955,3.955c-2.175,0-3.955-1.78-3.955-3.955V29.818c0-2.176,1.78-3.955,3.955-3.955h3.955
		V40.365z M23.34,15.315h14.503v2.637H23.34V15.315z M37.843,35.751H23.34v-2.637h14.503V35.751z M42.458,27.181H23.34v-2.637
		h19.118V27.181z"/>
</g>
</svg>
