<?xml version="1.0" encoding="utf-8"?>
<!-- Generator: Adobe Illustrator 18.1.1, SVG Export Plug-In . SVG Version: 6.00 Build 0)  -->
<svg version="1.1" id="Слой_1" xmlns="http://www.w3.org/2000/svg" xmlns:xlink="http://www.w3.org/1999/xlink" x="0px" y="0px"
	 viewBox="0 0 40.333 50.406" enable-background="new 0 0 40.333 50.406" xml:space="preserve">
<g>
	<path fill="none" d="M36.238,20.264c-0.495-0.549-0.861-1.009-1.211-1.447c-0.854-1.07-1.59-1.995-3.949-3.83
		c-3.329-2.589-8.337-5.402-12.76-7.169c-2.345-0.936-3.611-1.68-4.63-2.276c-1.121-0.658-1.861-1.093-3.417-1.431
		C9.034,3.843,8.097,3.541,7.345,3.299C6.274,2.953,5.614,2.748,5.053,2.938C4.63,3.084,4.477,3.507,4.244,4.241
		C4.059,4.822,3.85,5.482,3.376,6.066C2.934,6.608,2.631,6.982,2.665,7.262c0.036,0.295,0.435,0.73,1.185,1.297
		c1.672,1.265,2.946,1.653,3.791,1.101l0.303-0.197l0.283,0.226c0.347,0.277,1.042,0.449,1.814,0.449s1.468-0.172,1.814-0.449
		l0.201-0.16l0.248,0.069c3.098,0.878,6.168,3.595,9.124,8.074l0.064,0.141c0.42,1.499,1.558,3.121,1.568,3.138L24.72,23.3
		l-2.354-1.653c-0.009-0.006-1.016-0.688-2.575-0.688c-1.996,0-3.972,1.061-5.872,3.15l-0.169,0.187l-0.25-0.024
		c-0.02-0.003-2.335-0.226-6.031-0.119c-0.619,0.018-1.211,0.086-1.863,0.216l-0.531,0.105v17.781l0.533,0.108
		c0.24,0.049,0.494,0.074,0.756,0.074c0.636,0,1.345-0.146,2.107-0.437c4.068-1.551,4.718-3.012,5.191-4.078
		c0.582-1.311,1.105-2.113,4.401-2.113c5.258,0,10.045-3.339,13.135-6.139c0.989-0.896,1.752-1.355,2.426-1.762
		c0.976-0.587,1.746-1.052,2.874-2.67C38.341,22.596,37.811,22.009,36.238,20.264z"/>
	<path fill="#1E0F00" d="M36.98,19.594c-0.479-0.53-0.833-0.976-1.171-1.4c-0.894-1.12-1.665-2.088-4.118-3.996
		c-3.396-2.642-8.5-5.511-13.002-7.309c-2.274-0.907-3.506-1.63-4.495-2.211c-1.117-0.655-1.999-1.174-3.712-1.544
		c-1.188-0.258-2.099-0.551-2.83-0.787C6.384,1.938,5.553,1.71,4.728,1.992C3.807,2.31,3.545,3.138,3.291,3.939
		C3.126,4.459,2.955,4.998,2.579,5.46C2.025,6.142,1.588,6.68,1.673,7.382c0.074,0.615,0.53,1.188,1.574,1.975
		c1.915,1.449,3.456,1.867,4.644,1.307c0.538,0.304,1.299,0.474,2.15,0.474c0.886,0,1.673-0.184,2.213-0.511
		c2.773,0.874,5.563,3.406,8.299,7.532c0.208,0.711,0.545,1.426,0.863,2.013c-0.457-0.122-1.004-0.212-1.625-0.212
		c-2.229,0-4.395,1.108-6.443,3.295c-0.695-0.055-2.802-0.19-5.908-0.102c-0.474,0.014-0.946,0.057-1.432,0.13v-4.005H4.074v29.262
		h1.934v-5.114c0.117,0.009,0.235,0.013,0.355,0.013c0.757,0,1.586-0.169,2.463-0.502c4.458-1.699,5.205-3.38,5.75-4.607
		c0.449-1.011,0.674-1.519,3.487-1.519c5.577,0,10.586-3.479,13.807-6.397c0.916-0.83,1.604-1.245,2.271-1.646
		c1.034-0.623,1.928-1.161,3.178-2.954C39.419,22.801,38.893,21.715,36.98,19.594z M36.498,25.239
		c-1.128,1.618-1.898,2.083-2.874,2.67c-0.674,0.406-1.437,0.866-2.426,1.762c-3.09,2.8-7.877,6.139-13.135,6.139
		c-3.296,0-3.819,0.803-4.401,2.113c-0.474,1.066-1.123,2.527-5.191,4.078c-0.763,0.29-1.472,0.437-2.107,0.437
		c-0.262,0-0.516-0.025-0.756-0.074l-0.533-0.108V24.474l0.531-0.105c0.652-0.13,1.244-0.198,1.863-0.216
		c3.696-0.106,6.012,0.116,6.031,0.119l0.25,0.024l0.169-0.187c1.9-2.09,3.876-3.15,5.872-3.15c1.56,0,2.566,0.682,2.575,0.688
		L24.72,23.3l-1.659-2.351c-0.011-0.017-1.148-1.639-1.568-3.138l-0.064-0.141c-2.956-4.479-6.026-7.196-9.124-8.074l-0.248-0.069
		l-0.201,0.16c-0.347,0.277-1.042,0.449-1.814,0.449S8.573,9.965,8.226,9.688L7.943,9.462L7.64,9.659
		c-0.845,0.553-2.119,0.164-3.791-1.101c-0.75-0.566-1.148-1.002-1.185-1.297c-0.033-0.28,0.27-0.654,0.711-1.196
		C3.85,5.482,4.059,4.822,4.244,4.241c0.233-0.734,0.386-1.157,0.81-1.304c0.561-0.189,1.221,0.016,2.292,0.361
		c0.752,0.242,1.688,0.544,2.926,0.812c1.556,0.338,2.296,0.772,3.417,1.431c1.019,0.597,2.285,1.341,4.63,2.276
		c4.423,1.767,9.431,4.58,12.76,7.169c2.359,1.835,3.096,2.76,3.949,3.83c0.35,0.438,0.716,0.898,1.211,1.447
		C37.811,22.009,38.341,22.596,36.498,25.239z"/>
</g>
</svg>
