<?xml version="1.0" encoding="utf-8"?>
<!-- Generator: Adobe Illustrator 18.1.1, SVG Export Plug-In . SVG Version: 6.00 Build 0)  -->
<svg version="1.1" id="Слой_1" xmlns="http://www.w3.org/2000/svg" xmlns:xlink="http://www.w3.org/1999/xlink" x="0px" y="0px"
	 viewBox="0 0 51.333 50.406" enable-background="new 0 0 51.333 50.406" xml:space="preserve">
<g>
	<path fill="none" d="M25.664,36.076c5.774,0,10.486-4.699,10.496-10.468c0.01-5.803-4.687-10.523-10.48-10.53
		c-5.801-0.007-10.516,4.695-10.519,10.49C15.159,31.367,19.866,36.076,25.664,36.076z M23.423,26.265
		c-0.713-0.762-1.348-1.596-2.06-2.45c0.368-0.31,0.728-0.614,1.122-0.945c0.654,0.782,1.282,1.532,1.909,2.283
		c0.23,0.275,0.459,0.552,0.688,0.828c0.27,0.324,0.484,0.741,0.825,0.944c0.326,0.194,0.785,0.163,1.219,0.237
		c0,0.452,0,0.9,0,1.375c-0.981,0-1.939,0-2.926,0c-0.009-0.085-0.035-0.162-0.023-0.232C24.321,27.477,23.978,26.858,23.423,26.265
		z M27.134,35.271c-0.978,0-1.945,0-2.937,0c0-0.474,0-0.932,0-1.417c0.977,0,1.933,0,2.937,0
		C27.134,34.342,27.134,34.789,27.134,35.271z M29.361,33.021c-2.45,0-4.915,0-7.415,0c0-0.486,0-0.934,0-1.411
		c2.472,0,4.926,0,7.415,0C29.361,32.065,29.361,32.524,29.361,33.021z M19.174,19.396c3.352-3.539,8.827-3.759,12.448-0.514
		c3.241,2.905,4.299,7.868,1.005,12.119c-0.656-0.328-1.319-0.659-2.028-1.014c0.215-0.437,0.418-0.85,0.64-1.302
		c0.295,0.134,0.57,0.26,0.971,0.443c0.335-0.922,0.658-1.813,1.013-2.789c-0.589,0-1.034,0-1.518,0c0-0.511,0-0.981,0-1.505
		c0.467,0,0.927,0,1.493,0c-0.225-0.834-0.429-1.592-0.658-2.442c-0.454,0.29-0.812,0.52-1.216,0.778
		c-0.268-0.397-0.526-0.778-0.812-1.202c0.4-0.271,0.78-0.53,1.309-0.89c-0.581-0.58-1.095-1.093-1.657-1.653
		c-0.35,0.503-0.613,0.883-0.896,1.29c-0.404-0.268-0.789-0.524-1.206-0.801c0.253-0.391,0.486-0.752,0.782-1.208
		c-0.827-0.229-1.583-0.439-2.418-0.671c0,0.557,0,1.013,0,1.503c-0.513,0-0.973,0-1.487,0c0-0.449,0-0.908,0-1.503
		c-0.85,0.228-1.616,0.434-2.465,0.662c0.293,0.457,0.524,0.816,0.783,1.219c-0.401,0.268-0.784,0.524-1.205,0.805
		c-0.272-0.398-0.532-0.779-0.881-1.288c-0.56,0.567-1.076,1.09-1.637,1.659c0.485,0.331,0.866,0.593,1.272,0.87
		c-0.274,0.413-0.531,0.798-0.804,1.21c-0.393-0.254-0.754-0.488-1.214-0.786c-0.229,0.84-0.438,1.607-0.665,2.44
		c0.567,0,1.015,0,1.499,0c0,0.494,0,0.954,0,1.472c-0.443,0-0.9,0-1.402,0c0.105,1.039,0.482,1.91,0.966,2.798
		c0.305-0.14,0.582-0.268,0.892-0.41c0.215,0.428,0.422,0.84,0.65,1.295c-0.696,0.35-1.359,0.683-2.018,1.015
		C15.767,27.334,16.113,22.627,19.174,19.396z"/>
	<path fill="none" d="M36.909,20.395c2.613-1.48,5.879-0.841,7.697,1.507c1.843,2.38,1.661,5.77-0.43,7.921
		c-0.093,0.095-0.218,0.219-0.333,0.224c-0.554,0.023-1.11,0.01-1.659,0.01c0-0.523,0-0.983,0-1.472c0.295,0,0.564,0.031,0.82-0.011
		c0.177-0.028,0.394-0.113,0.496-0.247c1.783-2.339,0.827-5.815-1.897-6.919c-0.293-0.119-0.608-0.185-0.981-0.295
		c0,0.533,0,0.978,0,1.428c-0.509,0-0.968,0-1.462,0c0-0.461,0-0.893,0-1.513c-0.628,0.275-1.149,0.499-1.666,0.731
		c-0.318,0.143-0.385,0.35-0.286,0.709c0.577,2.09,0.604,4.198-0.025,6.275c-0.327,1.079-0.812,2.111-1.232,3.182
		c2.609,1.822,6.957,1.64,9.622-1.452c2.605-3.021,2.396-7.536-0.464-10.292c-2.948-2.841-7.145-2.478-9.237-0.87
		c0.227,0.419,0.456,0.84,0.692,1.274C36.692,20.515,36.802,20.456,36.909,20.395z M42.436,24.248
		c0.299,0.399,0.575,0.766,0.88,1.172c-0.994,0.749-1.958,1.475-2.964,2.233c-0.302-0.402-0.572-0.76-0.886-1.177
		C40.46,25.73,41.433,25,42.436,24.248z M40.61,31.532c-0.476,0-0.933,0-1.423,0c0-0.463,0-0.921,0-1.415c0.451,0,0.908,0,1.423,0
		C40.61,30.59,40.61,31.047,40.61,31.532z"/>
	<path fill="none" d="M6.482,31.222c3.103,2.699,7.192,2.048,8.888,0.539c-0.275-0.58-0.58-1.143-0.816-1.734
		c-0.984-2.47-1.124-4.995-0.459-7.57c0.043-0.167,0.042-0.452-0.058-0.532c-0.529-0.42-1.139-0.686-1.872-0.776
		c0,0.482,0,0.927,0,1.382c-0.518,0-0.988,0-1.489,0c0-0.474,0-0.907,0-1.341c-1.638,0.02-3.649,2.036-3.629,3.656
		c0.443,0,0.889,0,1.346,0c0,0.508,0,0.967,0,1.474c-0.471,0-0.916,0-1.396,0c0.128,0.964,0.581,1.711,1.121,2.334
		c-0.334,0.378-0.639,0.723-0.941,1.065c-1.845-1.559-2.263-4.806-0.942-7.102c0.719-1.249,1.755-2.145,3.11-2.64
		c1.894-0.692,3.7-0.436,5.416,0.611c0.225-0.422,0.429-0.805,0.648-1.214c-2.644-1.967-6.969-1.807-9.654,1.3
		C3.043,23.812,3.393,28.535,6.482,31.222z M12.226,30.109c0.464,0,0.922,0,1.409,0c0,0.467,0,0.924,0,1.433
		c-0.478,0-0.925,0-1.409,0C12.226,31.072,12.226,30.603,12.226,30.109z M10.725,23.36c0.491,0,0.938,0,1.413,0
		c0,0.976,0,1.932,0,2.922c-0.459,0-0.917,0-1.413,0C10.725,25.326,10.725,24.358,10.725,23.36z M9.216,30.112
		c0.468,0,0.926,0,1.434,0c0,0.478,0,0.925,0,1.41c-0.471,0-0.939,0-1.434,0C9.216,31.057,9.216,30.6,9.216,30.112z"/>
	<path fill="#1E0F00" d="M6.489,33.103c-1.277,1.066-2.506,2.092-3.762,3.141c0.331,0.394,0.629,0.748,0.943,1.121
		c1.288-1.073,2.553-2.11,3.795-3.173c0.308-0.263,0.559-0.326,0.954-0.179c1.476,0.549,2.996,0.693,4.551,0.373
		c1.184-0.243,2.296-0.657,3.304-1.362c2.458,2.917,5.554,4.502,9.352,4.513c3.796,0.011,6.898-1.559,9.35-4.422
		c0.07,0.03,0.115,0.044,0.155,0.068c2.541,1.521,5.201,1.779,7.992,0.778c0.158-0.057,0.431,0.014,0.569,0.126
		c1.318,1.072,2.619,2.165,3.959,3.281c0.315-0.376,0.62-0.74,0.942-1.124c-1.274-1.064-2.504-2.091-3.783-3.159
		c1.364-0.922,2.404-2.084,3.119-3.522c0.724-1.455,1.036-3.001,0.917-4.622c-0.118-1.602-0.621-3.081-1.535-4.406
		c-1.212-1.757-2.837-2.967-4.89-3.564c-2.634-0.766-5.115-0.349-7.444,1.073c-2.481-2.893-5.589-4.45-9.388-4.429
		c-3.797,0.021-6.887,1.619-9.314,4.503c-4.052-2.649-8.773-1.586-11.508,1.45c-1.419,1.575-2.216,3.434-2.299,5.546
		C2.337,28.488,3.764,31.125,6.489,33.103z M45.109,20.181c2.86,2.756,3.069,7.271,0.464,10.292
		c-2.666,3.091-7.013,3.273-9.622,1.452c0.421-1.071,0.905-2.103,1.232-3.182c0.63-2.077,0.603-4.185,0.025-6.275
		c-0.099-0.359-0.032-0.567,0.286-0.709c0.518-0.232,1.039-0.456,1.666-0.731c0,0.619,0,1.052,0,1.513c0.494,0,0.953,0,1.462,0
		c0-0.45,0-0.896,0-1.428c0.373,0.111,0.688,0.176,0.981,0.295c2.724,1.105,3.68,4.581,1.897,6.919
		c-0.102,0.134-0.32,0.219-0.496,0.247c-0.256,0.041-0.525,0.011-0.82,0.011c0,0.489,0,0.948,0,1.472
		c0.549,0,1.105,0.013,1.659-0.01c0.115-0.005,0.24-0.128,0.333-0.224c2.09-2.151,2.272-5.541,0.43-7.921
		c-1.818-2.347-5.084-2.987-7.697-1.507c-0.108,0.061-0.217,0.119-0.346,0.19c-0.236-0.434-0.464-0.856-0.692-1.274
		C37.964,17.703,42.16,17.34,45.109,20.181z M25.68,15.078c5.793,0.007,10.49,4.728,10.48,10.53
		c-0.01,5.769-4.722,10.468-10.496,10.468c-5.797,0-10.504-4.709-10.502-10.508C15.164,19.773,19.879,15.071,25.68,15.078z
		 M5.756,20.673c2.685-3.107,7.01-3.267,9.654-1.3c-0.219,0.41-0.423,0.793-0.648,1.214c-1.716-1.047-3.523-1.302-5.416-0.611
		c-1.355,0.495-2.391,1.39-3.11,2.64c-1.321,2.296-0.903,5.543,0.942,7.102c0.302-0.342,0.607-0.687,0.941-1.065
		c-0.54-0.623-0.992-1.37-1.121-2.334c0.48,0,0.925,0,1.396,0c0-0.507,0-0.966,0-1.474c-0.457,0-0.903,0-1.346,0
		c-0.021-1.62,1.991-3.637,3.629-3.656c0,0.434,0,0.868,0,1.341c0.5,0,0.971,0,1.489,0c0-0.455,0-0.9,0-1.382
		c0.733,0.09,1.343,0.355,1.872,0.776c0.1,0.08,0.101,0.365,0.058,0.532c-0.664,2.575-0.524,5.1,0.459,7.57
		c0.236,0.591,0.541,1.154,0.816,1.734c-1.696,1.51-5.785,2.16-8.888-0.539C3.393,28.535,3.043,23.812,5.756,20.673z"/>
	<path fill="#1E0F00" d="M2.487,48.01c14.477,0,28.916,0,43.372,0c0-0.479,0-0.928,0-1.407c-14.491,0-28.941,0-43.372,0
		C2.487,47.102,2.487,47.562,2.487,48.01z"/>
	<path fill="#1E0F00" d="M17.8,42.026c5.335,0.054,10.672,0.02,16.008,0.021c1.574,0,2.785,1,3.071,2.537
		c0.027,0.147,0.046,0.295,0.067,0.429c0.498,0,0.959,0,1.417,0c0.066-2.343-1.968-4.425-4.373-4.433
		c-5.554-0.02-11.109-0.016-16.663-0.001c-1.899,0.005-3.616,1.306-4.174,3.122c-0.129,0.418-0.166,0.864-0.252,1.328
		c0.545,0,0.994,0,1.478,0C14.583,42.892,16.196,42.01,17.8,42.026z"/>
	<path fill="#1E0F00" d="M36.579,5.081c-0.295-0.284-0.627-0.604-0.927-0.893c-2.215,2.215-4.438,4.437-6.675,6.675
		c0.293,0.286,0.625,0.608,0.923,0.898C32.118,9.544,34.34,7.321,36.579,5.081z"/>
	<path fill="#1E0F00" d="M22.345,10.858c-2.238-2.239-4.46-4.461-6.666-6.668c-0.307,0.293-0.641,0.612-0.938,0.896
		c2.239,2.239,4.461,4.461,6.667,6.667C21.713,11.461,22.047,11.142,22.345,10.858z"/>
	<path fill="#1E0F00" d="M26.368,2.396c-0.492,0-0.951,0-1.421,0c0,1.984,0,3.939,0,5.902c0.495,0,0.965,0,1.421,0
		C26.368,6.304,26.368,4.35,26.368,2.396z"/>
	<path fill="#1E0F00" d="M47.414,48.011c0.509,0,0.966,0,1.434,0c0-0.488,0-0.945,0-1.409c-0.495,0-0.963,0-1.434,0
		C47.414,47.086,47.414,47.533,47.414,48.011z"/>
	<path fill="#1E0F00" d="M34.681,36.104c0,0.475,0,0.921,0,1.408c0.477,0,0.956,0,1.425,0c0-0.491,0-0.949,0-1.408
		C35.615,36.104,35.157,36.104,34.681,36.104z"/>
	<path fill="#1E0F00" d="M15.222,36.101c0,0.494,0,0.963,0,1.434c0.484,0,0.931,0,1.409,0c0-0.509,0-0.966,0-1.434
		C16.143,36.101,15.686,36.101,15.222,36.101z"/>
	<path fill="#1E0F00" d="M13.625,36.11c-0.497,0-0.955,0-1.424,0c0,0.482,0,0.928,0,1.415c0.506,0,0.964,0,1.424,0
		C13.625,37.03,13.625,36.561,13.625,36.11z"/>
	<path fill="#1E0F00" d="M26.364,11.293c0-0.497,0-0.955,0-1.422c-0.481,0-0.927,0-1.415,0c0,0.505,0,0.962,0,1.422
		C25.445,11.293,25.914,11.293,26.364,11.293z"/>
	<path fill="#1E0F00" d="M18.71,30.997c0.66-0.332,1.322-0.665,2.018-1.015c-0.229-0.455-0.435-0.867-0.65-1.295
		c-0.31,0.143-0.587,0.27-0.892,0.41c-0.484-0.888-0.861-1.759-0.966-2.798c0.502,0,0.959,0,1.402,0c0-0.518,0-0.977,0-1.472
		c-0.484,0-0.932,0-1.499,0c0.227-0.832,0.436-1.6,0.665-2.44c0.46,0.298,0.821,0.532,1.214,0.786
		c0.273-0.412,0.53-0.797,0.804-1.21c-0.406-0.277-0.787-0.539-1.272-0.87c0.561-0.569,1.078-1.092,1.637-1.659
		c0.348,0.509,0.608,0.89,0.881,1.288c0.421-0.281,0.805-0.538,1.205-0.805c-0.259-0.403-0.49-0.762-0.783-1.219
		c0.849-0.228,1.615-0.433,2.465-0.662c0,0.595,0,1.053,0,1.503c0.514,0,0.973,0,1.487,0c0-0.49,0-0.946,0-1.503
		c0.834,0.232,1.591,0.441,2.418,0.671c-0.295,0.456-0.529,0.817-0.782,1.208c0.417,0.277,0.802,0.533,1.206,0.801
		c0.283-0.407,0.546-0.787,0.896-1.29c0.562,0.56,1.075,1.073,1.657,1.653c-0.53,0.36-0.91,0.618-1.309,0.89
		c0.286,0.424,0.544,0.805,0.812,1.202c0.404-0.258,0.762-0.488,1.216-0.778c0.229,0.85,0.433,1.607,0.658,2.442
		c-0.566,0-1.026,0-1.493,0c0,0.524,0,0.994,0,1.505c0.485,0,0.929,0,1.518,0c-0.354,0.976-0.678,1.868-1.013,2.789
		c-0.401-0.183-0.676-0.309-0.971-0.443c-0.222,0.452-0.425,0.865-0.64,1.302c0.709,0.354,1.372,0.686,2.028,1.014
		c3.294-4.251,2.236-9.215-1.005-12.119c-3.621-3.245-9.096-3.025-12.448,0.514C16.113,22.627,15.767,27.334,18.71,30.997z"/>
	<path fill="#1E0F00" d="M24.201,28.537c0.987,0,1.946,0,2.926,0c0-0.475,0-0.923,0-1.375c-0.434-0.074-0.893-0.044-1.219-0.237
		c-0.342-0.203-0.556-0.62-0.825-0.944c-0.23-0.276-0.458-0.552-0.688-0.828c-0.628-0.751-1.256-1.502-1.909-2.283
		c-0.393,0.331-0.754,0.635-1.122,0.945c0.711,0.854,1.347,1.688,2.06,2.45c0.555,0.593,0.898,1.212,0.755,2.04
		C24.166,28.375,24.191,28.452,24.201,28.537z"/>
	<path fill="#1E0F00" d="M21.946,33.021c2.5,0,4.965,0,7.415,0c0-0.497,0-0.956,0-1.411c-2.489,0-4.943,0-7.415,0
		C21.946,32.087,21.946,32.535,21.946,33.021z"/>
	<path fill="#1E0F00" d="M24.197,35.271c0.991,0,1.959,0,2.937,0c0-0.482,0-0.929,0-1.417c-1.004,0-1.96,0-2.937,0
		C24.197,34.339,24.197,34.797,24.197,35.271z"/>
	<path fill="#1E0F00" d="M43.316,25.42c-0.304-0.405-0.58-0.773-0.88-1.172C41.433,25,40.46,25.73,39.466,26.476
		c0.314,0.417,0.584,0.775,0.886,1.177C41.358,26.895,42.322,26.169,43.316,25.42z"/>
	<path fill="#1E0F00" d="M39.187,31.532c0.489,0,0.947,0,1.423,0c0-0.485,0-0.942,0-1.415c-0.515,0-0.972,0-1.423,0
		C39.187,30.612,39.187,31.069,39.187,31.532z"/>
	<path fill="#1E0F00" d="M12.138,23.36c-0.475,0-0.922,0-1.413,0c0,0.998,0,1.965,0,2.922c0.496,0,0.954,0,1.413,0
		C12.138,25.292,12.138,24.336,12.138,23.36z"/>
	<path fill="#1E0F00" d="M13.634,30.109c-0.487,0-0.944,0-1.409,0c0,0.495,0,0.963,0,1.433c0.484,0,0.931,0,1.409,0
		C13.634,31.033,13.634,30.576,13.634,30.109z"/>
	<path fill="#1E0F00" d="M10.651,30.112c-0.509,0-0.966,0-1.434,0c0,0.488,0,0.945,0,1.41c0.495,0,0.964,0,1.434,0
		C10.651,31.037,10.651,30.59,10.651,30.112z"/>
</g>
</svg>
