<?xml version="1.0" encoding="utf-8"?>
<!-- Generator: Adobe Illustrator 18.1.1, SVG Export Plug-In . SVG Version: 6.00 Build 0)  -->
<svg version="1.1" id="Слой_1" xmlns="http://www.w3.org/2000/svg" xmlns:xlink="http://www.w3.org/1999/xlink" x="0px" y="0px"
	 viewBox="0 0 48.5 50.406" enable-background="new 0 0 48.5 50.406" xml:space="preserve">
<g>
	<path fill="none" d="M18.186,19.583c-0.014-0.009-0.023-0.021-0.036-0.029l3.662,5.513l8.2,5.447l-3.655-5.503L18.186,19.583z"/>
	<path fill="none" d="M23.22,14.549c-0.013-0.009-0.022-0.02-0.036-0.029l3.662,5.513l8.2,5.447l-3.656-5.504L23.22,14.549z"/>
	<path fill="none" d="M8.117,29.651c-0.012-0.009-0.021-0.02-0.033-0.028l3.661,5.511l8.199,5.445l-3.655-5.503L8.117,29.651z"/>
	<path fill="none" d="M18.185,44.561c-0.242-0.064-0.478-0.164-0.695-0.308L4.129,35.379L15.2,46.449
		c0.769,0.769,2.003,0.786,2.751,0.04c0.498-0.498,0.649-1.21,0.472-1.859C18.342,44.612,18.263,44.589,18.185,44.561z"/>
	<path fill="none" d="M13.152,24.617c-0.013-0.008-0.022-0.019-0.035-0.028l3.662,5.512l8.2,5.447l-3.656-5.503L13.152,24.617z"/>
	<path fill="none" d="M45.56,18.878c0.042-0.042,0.074-0.091,0.111-0.136c-0.307,0.33-0.704,0.552-1.132,0.658
		C44.914,19.337,45.273,19.165,45.56,18.878z"/>
	<path fill="none" d="M28.253,9.515c-0.013-0.009-0.023-0.02-0.036-0.029L31.88,15l8.2,5.446l-3.656-5.504L28.253,9.515z"/>
	<path fill="none" d="M30.597,3.917c-0.458,0.458-0.626,1.098-0.512,1.703c0.273,0.061,0.539,0.168,0.781,0.33l13.328,8.852
		L33.349,3.956C32.58,3.186,31.345,3.169,30.597,3.917z"/>
	<path fill="#1E0F00" d="M45.731,15.916L33.56,3.745c-0.87-0.87-2.286-0.875-3.149-0.012c-0.5,0.5-0.699,1.184-0.617,1.842
		c-0.289-0.028-0.582-0.002-0.861,0.073c-0.063,0.016-0.124,0.037-0.186,0.059c-0.008,0.002-0.016,0.006-0.024,0.008
		c-0.122,0.045-0.241,0.101-0.358,0.17c-0.016,0.01-0.031,0.02-0.047,0.029c-0.043,0.028-0.089,0.048-0.132,0.079
		c-0.096,0.071-0.184,0.15-0.265,0.233c-0.083,0.082-0.163,0.17-0.233,0.266c-0.024,0.032-0.039,0.07-0.061,0.103
		c-0.028,0.045-0.054,0.089-0.079,0.134c-0.05,0.09-0.093,0.182-0.128,0.275c-0.027,0.072-0.051,0.143-0.072,0.216
		c-0.009,0.034-0.018,0.068-0.024,0.102c-0.143,0.616-0.047,1.29,0.323,1.847l3.59,5.403l-5.404-3.589
		c-0.583-0.387-1.295-0.476-1.932-0.303c-0.063,0.015-0.124,0.036-0.185,0.058c-0.009,0.003-0.016,0.006-0.025,0.009
		c-0.123,0.045-0.242,0.1-0.357,0.169c-0.016,0.01-0.032,0.019-0.048,0.03c-0.044,0.027-0.09,0.047-0.132,0.078
		c-0.096,0.071-0.183,0.151-0.264,0.233c-0.083,0.082-0.163,0.168-0.234,0.265c-0.023,0.033-0.038,0.069-0.06,0.104
		c-0.028,0.044-0.054,0.09-0.08,0.135c-0.049,0.09-0.092,0.18-0.127,0.274c-0.028,0.072-0.053,0.146-0.074,0.221
		c-0.007,0.032-0.016,0.064-0.022,0.096c-0.144,0.616-0.048,1.291,0.322,1.848l3.589,5.404l-5.404-3.589
		c-0.583-0.387-1.294-0.477-1.932-0.303c-0.063,0.015-0.124,0.036-0.185,0.057c-0.009,0.004-0.017,0.007-0.026,0.01
		c-0.122,0.045-0.241,0.101-0.357,0.169c-0.016,0.01-0.031,0.02-0.048,0.03c-0.043,0.028-0.089,0.048-0.132,0.079
		c-0.096,0.071-0.184,0.15-0.265,0.233c-0.083,0.082-0.162,0.169-0.233,0.266c-0.024,0.033-0.038,0.069-0.061,0.103
		c-0.028,0.045-0.054,0.089-0.079,0.136c-0.049,0.09-0.093,0.18-0.128,0.274c-0.027,0.072-0.052,0.145-0.072,0.219
		c-0.009,0.032-0.018,0.066-0.024,0.099c-0.144,0.616-0.047,1.29,0.323,1.848l3.589,5.402l-5.404-3.588
		c-0.583-0.387-1.295-0.477-1.933-0.303c-0.062,0.016-0.122,0.036-0.184,0.058c-0.009,0.004-0.018,0.006-0.027,0.01
		c-0.122,0.044-0.24,0.1-0.356,0.169c-0.016,0.009-0.032,0.02-0.05,0.03c-0.043,0.028-0.089,0.048-0.131,0.078
		c-0.096,0.071-0.183,0.151-0.265,0.234c-0.083,0.081-0.163,0.168-0.233,0.264c-0.023,0.033-0.038,0.069-0.06,0.104
		c-0.028,0.044-0.054,0.09-0.08,0.136c-0.049,0.088-0.091,0.179-0.126,0.272c-0.028,0.073-0.053,0.148-0.075,0.223
		c-0.008,0.032-0.016,0.062-0.022,0.093c-0.144,0.616-0.047,1.292,0.323,1.849l3.588,5.403l-5.403-3.589
		c-0.583-0.387-1.294-0.477-1.933-0.303c-0.063,0.015-0.125,0.037-0.185,0.058c-0.009,0.004-0.016,0.006-0.024,0.01
		c-0.123,0.044-0.242,0.1-0.358,0.17c-0.016,0.009-0.032,0.019-0.048,0.028c-0.043,0.028-0.089,0.048-0.131,0.079
		c-0.096,0.071-0.183,0.15-0.265,0.233c-0.083,0.082-0.163,0.169-0.234,0.265c-0.023,0.033-0.038,0.069-0.06,0.104
		c-0.028,0.044-0.055,0.09-0.079,0.136c-0.05,0.089-0.092,0.18-0.127,0.273c-0.027,0.072-0.053,0.146-0.074,0.221
		c-0.007,0.033-0.016,0.064-0.023,0.096c-0.144,0.617-0.048,1.291,0.323,1.848l3.589,5.404l-5.404-3.589
		c-0.126-0.083-0.257-0.153-0.394-0.208c-0.824-0.38-1.829-0.241-2.501,0.431c-0.007,0.007-0.01,0.015-0.017,0.021
		c-0.096,0.09-0.186,0.189-0.266,0.297c-0.633,0.863-0.511,2.021,0.23,2.752c0.022,0.026,0.04,0.054,0.064,0.079l12.172,12.172
		c0.87,0.87,2.287,0.875,3.15,0.013c0.537-0.539,0.738-1.295,0.6-1.998c0.471,0.03,0.954-0.097,1.369-0.402
		c0.108-0.078,0.206-0.169,0.297-0.264c0.095-0.091,0.185-0.188,0.265-0.297c0.426-0.582,0.503-1.295,0.286-1.925
		c-0.064-0.241-0.163-0.474-0.307-0.69l-3.714-5.592l5.592,3.714c0.216,0.144,0.45,0.244,0.692,0.308
		c0.629,0.217,1.341,0.139,1.923-0.286c0.109-0.079,0.207-0.17,0.297-0.264c0.095-0.091,0.185-0.188,0.265-0.297
		c0.426-0.582,0.503-1.295,0.286-1.923c-0.064-0.242-0.163-0.476-0.307-0.692l-3.715-5.591l5.592,3.714
		c0.216,0.144,0.45,0.244,0.692,0.308c0.629,0.216,1.341,0.139,1.923-0.286c0.109-0.079,0.207-0.17,0.298-0.265
		c0.095-0.091,0.185-0.188,0.265-0.297c0.426-0.581,0.503-1.294,0.286-1.923c-0.063-0.242-0.164-0.477-0.307-0.692l-3.715-5.593
		l5.593,3.714c0.216,0.144,0.45,0.244,0.692,0.308c0.629,0.217,1.341,0.139,1.923-0.286c0.109-0.079,0.207-0.17,0.297-0.264
		c0.095-0.091,0.186-0.189,0.265-0.297c0.426-0.582,0.503-1.294,0.287-1.922c-0.063-0.242-0.164-0.477-0.308-0.693l-3.714-5.592
		l5.592,3.714c0.216,0.143,0.45,0.243,0.692,0.307c0.628,0.217,1.342,0.14,1.924-0.286c0.109-0.079,0.207-0.17,0.297-0.264
		c0.095-0.09,0.185-0.188,0.264-0.297c0.426-0.581,0.503-1.293,0.286-1.921c-0.063-0.243-0.163-0.477-0.307-0.694l-3.714-5.592
		l5.495,3.649l0.032,0.032c0.87,0.87,2.287,0.875,3.15,0.012C46.607,18.203,46.601,16.786,45.731,15.916z M17.95,46.489
		c-0.748,0.747-1.982,0.729-2.751-0.04L4.129,35.379l13.361,8.875c0.217,0.144,0.453,0.244,0.695,0.308
		c0.078,0.028,0.157,0.051,0.237,0.069C18.599,45.278,18.448,45.991,17.95,46.489z M19.944,40.58l-8.199-5.445l-3.661-5.511
		c0.012,0.008,0.021,0.018,0.033,0.028l8.173,5.426L19.944,40.58z M24.979,35.547l-8.2-5.447l-3.662-5.512
		c0.013,0.009,0.023,0.02,0.035,0.028l8.171,5.428L24.979,35.547z M30.012,30.514l-8.2-5.447l-3.662-5.513
		c0.013,0.009,0.022,0.02,0.036,0.029l8.171,5.428L30.012,30.514z M35.046,25.48l-8.2-5.447l-3.662-5.513
		c0.013,0.009,0.023,0.02,0.036,0.029l8.171,5.427L35.046,25.48z M40.08,20.446L31.88,15l-3.663-5.514
		c0.013,0.009,0.022,0.02,0.036,0.029l8.171,5.427L40.08,20.446z M30.867,5.95c-0.243-0.162-0.508-0.27-0.781-0.33
		c-0.114-0.604,0.054-1.244,0.512-1.703c0.748-0.747,1.982-0.73,2.751,0.039l10.846,10.846L30.867,5.95z M45.56,18.878
		c-0.287,0.287-0.646,0.459-1.021,0.522c0.428-0.107,0.825-0.329,1.132-0.658C45.634,18.787,45.602,18.835,45.56,18.878z"/>
</g>
</svg>
