<?xml version="1.0" encoding="utf-8"?>
<!-- Generator: Adobe Illustrator 18.1.1, SVG Export Plug-In . SVG Version: 6.00 Build 0)  -->
<svg version="1.1" id="Слой_1" xmlns="http://www.w3.org/2000/svg" xmlns:xlink="http://www.w3.org/1999/xlink" x="0px" y="0px"
	 viewBox="0 0 56.901 61.5" enable-background="new 0 0 56.901 61.5" xml:space="preserve">
<g>
	<path fill="#1E0F00" d="M55.969,26.71h-2.743c-0.057,0-0.446-0.003-0.592-0.003c-2.002,0-3.634,1.867-3.701,4.459h-19.49
		c-0.455,0-0.829,0.301-0.902,0.762h-0.027c-0.074-0.461-0.45-0.762-0.901-0.762H8.222c-0.063-2.592-1.696-4.498-3.7-4.498
		c-0.135,0-0.267-0.014-0.398,0.002C4.08,26.654,4.022,26.66,3.971,26.66H1.226c-0.253,0-0.6-0.003-0.6,0.25v1.356v3.05v8.235h2.287
		l0.763,3.354h3.811l0.763-3.354h40.706l0.763,3.354h3.812l0.763-3.354h1.981v-8.235v-3.05v-1.254
		C56.275,26.762,56.224,26.71,55.969,26.71z"/>
	<path fill="#1E0F00" d="M9.156,30.349h18.477c0.377,0,0.7,0.189,0.881,0.488c0.177-0.299,0.502-0.488,0.878-0.488h18.576
		c0.094-1.604,0.777-4.085,2.381-4.593v-5.924c0-0.648-0.256-1.238-0.901-1.238H29.685c-0.647,0-1.171,0.523-1.171,1.171
		c0-0.648-0.527-1.171-1.173-1.171H7.579c-0.645,0-1.582,0.59-1.582,1.238v5.924C7.602,26.232,9.058,28.212,9.156,30.349z"/>
</g>
</svg>
