<?xml version="1.0" encoding="utf-8"?>
<!-- Generator: Adobe Illustrator 18.1.1, SVG Export Plug-In . SVG Version: 6.00 Build 0)  -->
<svg version="1.1" id="Слой_1" xmlns="http://www.w3.org/2000/svg" xmlns:xlink="http://www.w3.org/1999/xlink" x="0px" y="0px"
	 viewBox="0 0 53.667 61.5" enable-background="new 0 0 53.667 61.5" xml:space="preserve">
<g>
	<circle fill="none" cx="17.52" cy="30.75" r="14.711"/>
	<path fill="#1E0F00" d="M48.07,21.403l-0.005-0.027l-26.447-6.309c-0.107-0.028-0.216-0.052-0.324-0.078l-0.314-0.075v0.003
		c-1.115-0.243-2.272-0.374-3.46-0.374c-8.951,0-16.207,7.256-16.207,16.207S8.569,46.957,17.52,46.957
		c3.048,0,5.898-0.842,8.333-2.305v0.001l0.063-0.037c0.004-0.003,0.008-0.005,0.012-0.008l23.94-14.248
		c1.48-0.814,2.485-2.388,2.485-4.197C52.353,23.69,50.476,21.655,48.07,21.403z M17.52,45.461c-8.124,0-14.711-6.586-14.711-14.711
		S9.396,16.039,17.52,16.039c8.125,0,14.711,6.586,14.711,14.711S25.645,45.461,17.52,45.461z"/>
</g>
</svg>
