<?xml version="1.0" encoding="utf-8"?>
<!-- Generator: Adobe Illustrator 18.1.1, SVG Export Plug-In . SVG Version: 6.00 Build 0)  -->
<svg version="1.1" id="Слой_1" xmlns="http://www.w3.org/2000/svg" xmlns:xlink="http://www.w3.org/1999/xlink" x="0px" y="0px"
	 viewBox="0 0 53.667 61.5" enable-background="new 0 0 53.667 61.5" xml:space="preserve">
<g>
	<path fill="none" d="M26.882,8.356c-1.091-0.025-1.967,0.887-1.987,2.066c-0.02,1.185,0.828,2.142,1.907,2.155
		c1.086,0.011,1.954-0.915,1.962-2.095C28.771,9.321,27.938,8.379,26.882,8.356z"/>
	<path fill="#1E0F00" d="M47.765,35.783c-0.046-1.18-0.259-2.315-0.753-3.464c-2.602,3.274-5.319,6.294-9.176,7.781
		c0.178,0.206,0.308,0.353,0.432,0.504c1.02,1.247,1.082,3.046,0.077,4.306c-0.461,0.577-1.004,1.107-1.589,1.527
		c-1.338,0.963-2.766,1.731-4.401,1.88c-1.377,0.126-2.307-0.638-2.583-2.112c-0.054-0.296-0.084-0.6-0.09-0.902
		c-0.151-7.588-0.298-15.178-0.442-22.767c-0.003-0.142,0.028-0.285,0.05-0.491h14.692v-3.218H36.58h-7.474
		c0-0.81,0.036-1.565-0.013-2.313c-0.032-0.503,0.095-0.761,0.521-1.006c2.934-1.68,3.655-6.023,1.479-8.749
		c-1.438-1.801-3.266-2.397-5.379-2.024c-2.222,0.393-4.083,2.541-4.368,4.989c-0.285,2.442,0.813,4.709,2.832,5.891
		c0.156,0.092,0.353,0.3,0.359,0.462c0.036,0.885,0.017,1.773,0.017,2.776H9.681v3.241h14.733c0,0.236,0.002,0.404-0.001,0.571
		c-0.122,6.435-0.241,12.871-0.369,19.305c-0.028,1.38-0.008,2.771-0.159,4.137c-0.172,1.554-1.187,2.395-2.597,2.196
		c-2.343-0.33-4.369-1.425-5.956-3.36c-1.036-1.264-0.971-3.083,0.066-4.353c0.123-0.151,0.251-0.297,0.417-0.493
		c-3.854-1.483-6.567-4.511-9.241-7.86c-0.217,0.897-0.461,1.628-0.565,2.382c-0.567,4.111,1.029,7.554,2.85,10.946
		c0.094-0.063,0.151-0.103,0.21-0.141c0.863-0.544,1.509-0.409,2.071,0.464c1.388,2.156,3.039,4.02,5.028,5.524
		c1.988,1.501,4.197,2.464,6.471,3.29c1.469,0.534,3.013,0.911,4.203,2.17c0.842-0.949,1.929-1.343,3.012-1.744
		c0.704-0.261,1.41-0.521,2.116-0.775c4.384-1.571,7.955-4.354,10.598-8.517c0.469-0.739,1.112-0.918,1.856-0.517
		c0.131,0.071,0.26,0.149,0.411,0.236c0.47-0.958,0.947-1.858,1.365-2.791C47.185,40.564,47.861,38.275,47.765,35.783z
		 M26.803,12.577c-1.079-0.013-1.927-0.97-1.907-2.155c0.02-1.179,0.896-2.091,1.987-2.066c1.056,0.024,1.889,0.965,1.882,2.126
		C28.756,11.661,27.889,12.587,26.803,12.577z"/>
</g>
</svg>
