<?xml version="1.0" encoding="utf-8"?>
<!-- Generator: Adobe Illustrator 18.1.1, SVG Export Plug-In . SVG Version: 6.00 Build 0)  -->
<svg version="1.1" id="Слой_1" xmlns="http://www.w3.org/2000/svg" xmlns:xlink="http://www.w3.org/1999/xlink" x="0px" y="0px"
	 viewBox="0 0 33.174 50.406" enable-background="new 0 0 33.174 50.406" xml:space="preserve">
<g>
	<path fill="none" d="M22.393,18.346c0-3.513-4.381-4.126-4.425-4.132l-2.828,0.004c-0.115,0.02-4.36,0.628-4.36,4.128
		c0,1.4,0.481,2.33,1.471,2.843c0.816,0.423,1.799,0.477,2.563,0.477l0.326-0.001l3.219,0.001
		C20.237,21.665,22.393,21.288,22.393,18.346z"/>
	<path fill="none" d="M27.932,35.651c1.831-3.538,1.238-5.762,0.664-7.913c-0.195-0.731-0.38-1.423-0.469-2.154l-0.037-0.298
		c-0.316-2.575-0.373-3.039-0.373-6.361c0-3.287-3.418-9.684-9.684-9.684h-2.893c-6.266,0-9.684,6.396-9.684,9.684
		c0,3.33-0.058,3.796-0.376,6.381l-0.034,0.278c-0.089,0.731-0.273,1.423-0.469,2.155c-0.574,2.15-1.168,4.375,0.663,7.912
		c2.1,4.055,5.517,4.697,7.945,4.8h6.8C22.415,40.348,25.831,39.706,27.932,35.651z M11.791,22.076
		c-1.334-0.69-2.011-1.945-2.011-3.73c0-3.505,3.464-4.884,5.296-5.124l2.957-0.004c1.896,0.244,5.36,1.623,5.36,5.128
		c0,2.866-1.693,4.319-5.034,4.319h-3.545C13.936,22.665,12.8,22.599,11.791,22.076z"/>
	<path fill="#1E0F00" d="M24.462,40.45c1.601-0.753,3.176-2.058,4.358-4.341c2.009-3.881,1.336-6.403,0.742-8.63
		c-0.187-0.697-0.362-1.355-0.443-2.018l-0.036-0.299c-0.317-2.582-0.366-2.979-0.366-6.239c0-3.729-3.669-10.684-10.684-10.684
		h-2.893c-7.015,0-10.684,6.955-10.684,10.684c0,3.27-0.049,3.667-0.368,6.259l-0.034,0.279c-0.081,0.662-0.257,1.321-0.443,2.019
		c-0.594,2.226-1.267,4.748,0.741,8.629c1.182,2.282,2.757,3.588,4.358,4.341H2.125v1.715h28.925V40.45H24.462z M5.241,35.651
		c-1.831-3.537-1.237-5.762-0.663-7.912c0.195-0.732,0.38-1.424,0.469-2.155l0.034-0.278c0.318-2.585,0.376-3.051,0.376-6.381
		c0-3.287,3.418-9.684,9.684-9.684h2.893c6.266,0,9.684,6.396,9.684,9.684c0,3.322,0.057,3.786,0.373,6.361l0.037,0.298
		c0.089,0.731,0.273,1.423,0.469,2.154c0.574,2.151,1.167,4.375-0.664,7.913c-2.1,4.055-5.517,4.697-7.945,4.8h-6.8
		C10.758,40.348,7.341,39.706,5.241,35.651z"/>
	<path fill="#1E0F00" d="M23.393,18.346c0-3.505-3.464-4.884-5.36-5.128l-2.957,0.004c-1.832,0.24-5.296,1.619-5.296,5.124
		c0,1.785,0.677,3.04,2.011,3.73c1.009,0.522,2.146,0.589,3.023,0.589h3.545C21.7,22.665,23.393,21.212,23.393,18.346z
		 M14.814,21.665c-0.765,0-1.747-0.054-2.563-0.477c-0.989-0.513-1.471-1.442-1.471-2.843c0-3.5,4.245-4.108,4.36-4.128l2.828-0.004
		c0.044,0.006,4.425,0.619,4.425,4.132c0,2.942-2.156,3.319-4.034,3.319l-3.219-0.001L14.814,21.665z"/>
</g>
</svg>
