<?xml version="1.0" encoding="utf-8"?>
<!-- Generator: Adobe Illustrator 18.1.1, SVG Export Plug-In . SVG Version: 6.00 Build 0)  -->
<svg version="1.1" id="Слой_1" xmlns="http://www.w3.org/2000/svg" xmlns:xlink="http://www.w3.org/1999/xlink" x="0px" y="0px"
	 viewBox="0 0 80.717 100" enable-background="new 0 0 80.717 100" xml:space="preserve">
<g>
	<polygon fill="#12100B" points="2.676,96.407 2.676,81.202 0,81.202 0,99.562 2.494,99.562 14.859,84.451 14.859,99.562 
		17.526,99.562 17.526,81.202 15.04,81.202 2.676,96.407 	"/>
	<polygon fill="#12100B" points="31.104,91.301 23.108,91.301 23.108,85.898 20.436,85.898 20.436,99.562 23.108,99.562 
		23.108,93.526 31.104,93.526 31.104,99.562 33.779,99.562 33.779,85.898 31.104,85.898 31.104,91.301 	"/>
	<polygon fill="#12100B" points="49.172,85.898 46.215,85.898 39.187,91.535 39.187,85.898 36.53,85.898 36.53,99.562 
		39.187,99.562 39.187,94.049 41.292,92.315 47.418,99.562 50.504,99.562 43.271,90.734 49.172,85.898 	"/>
	<path fill="#12100B" d="M56.668,97.629c-1.759,0-2.728-0.715-2.728-2.014c0-1.452,0.831-2,3.705-2.442
		c1.224-0.188,2.192-0.256,2.971-0.311c0.426-0.03,0.792-0.056,1.109-0.095v2.404C61.725,96.173,59.755,97.629,56.668,97.629
		L56.668,97.629z M58.25,85.583c-3.696,0-4.45,0.337-4.593,0.44l-0.143,0.104v2.145l0.423-0.097
		c0.016-0.003,1.646-0.366,4.533-0.366c2.16,0,3.255,0.612,3.255,1.819v0.921c-0.47,0.084-1.029,0.116-1.659,0.153
		c-0.734,0.043-1.567,0.093-2.544,0.229c-2.247,0.306-3.809,0.852-4.776,1.67c-1,0.846-1.487,1.839-1.487,3.038
		c0,2.68,1.918,4.216,5.262,4.216c2.147,0,3.741-0.196,5.203-1.13v0.878l0.339,0.007c0.13,0.003,0.323,0.004,0.549,0.004
		l1.821-0.004v-8.961c0-1.391-0.06-2.449-0.83-3.402C62.705,86.127,60.954,85.583,58.25,85.583L58.25,85.583z"/>
	<path fill="#12100B" d="M73.677,97.995c-3.209,0-4.352-2.72-4.352-5.265c0-3.989,2.366-4.826,4.352-4.826
		c3.598,0,4.354,2.811,4.354,5.17C78.031,94.912,77.465,97.995,73.677,97.995L73.677,97.995z M73.799,85.898
		c-1.675,0-2.77,0.2-3.858,0.753c0.533-0.958,2.086-1.96,3.545-2.121c3.762-0.413,5.964-1.364,5.964-1.364v-2.254
		c0,0-1.956,1.013-6.275,1.669c-5.499,0.836-6.536,5.789-6.536,9.748c0,4.803,2.631,7.671,7.038,7.671c4.21,0,7.04-2.838,7.04-7.062
		C80.717,88.661,78.001,85.898,73.799,85.898L73.799,85.898z"/>
	<g>
		<defs>
			<path id="SVGID_1_" d="M7.291,41.088c0-17.907,14.566-32.474,32.471-32.474c17.904,0,32.474,14.567,32.474,32.474
				c0,17.904-14.569,32.47-32.474,32.47C21.858,73.558,7.291,58.992,7.291,41.088L7.291,41.088z M6.512,41.088
				c0,18.334,14.916,33.249,33.25,33.249c18.335,0,33.252-14.915,33.252-33.249c0-18.335-14.917-33.253-33.252-33.253
				C21.428,7.835,6.512,22.753,6.512,41.088L6.512,41.088z"/>
		</defs>
		<clipPath id="SVGID_2_">
			<use xlink:href="#SVGID_1_"  overflow="visible"/>
		</clipPath>
		<g clip-path="url(#SVGID_2_)">
			<defs>
				<rect id="SVGID_3_" x="6.512" y="7.835" width="66.502" height="66.502"/>
			</defs>
			<clipPath id="SVGID_4_">
				<use xlink:href="#SVGID_3_"  overflow="visible"/>
			</clipPath>
			<g transform="matrix(1 0 0 1 -2.300204e-007 1.859525e-006)" clip-path="url(#SVGID_4_)">
				
					<image overflow="visible" width="424" height="422" xlink:href="7321398C.jpg"  transform="matrix(0.1587 0 0 -0.1587 6.232 74.6032)">
				</image>
			</g>
		</g>
	</g>
	<g>
		<defs>
			<path id="SVGID_5_" d="M7.279,37.53c0-17.906,14.567-32.472,32.471-32.472c17.904,0,32.472,14.566,32.472,32.472
				C72.222,55.434,57.654,70,39.75,70C21.846,70,7.279,55.434,7.279,37.53L7.279,37.53z M6.499,37.53
				c0,18.334,14.916,33.25,33.251,33.25c18.335,0,33.251-14.915,33.251-33.25c0-18.335-14.916-33.251-33.251-33.251
				C21.415,4.279,6.499,19.195,6.499,37.53L6.499,37.53z"/>
		</defs>
		<clipPath id="SVGID_6_">
			<use xlink:href="#SVGID_5_"  overflow="visible"/>
		</clipPath>
		<g clip-path="url(#SVGID_6_)">
			<defs>
				<rect id="SVGID_7_" x="6.499" y="4.279" width="66.502" height="66.501"/>
			</defs>
			<clipPath id="SVGID_8_">
				<use xlink:href="#SVGID_7_"  overflow="visible"/>
			</clipPath>
			<g transform="matrix(1 0 0 1 -1.104127e-008 -1.054599e-006)" clip-path="url(#SVGID_8_)">
				
					<image overflow="visible" width="424" height="422" xlink:href="7321398D.jpg"  transform="matrix(0.1587 0 0 -0.1587 6.2251 71.0074)">
				</image>
			</g>
		</g>
	</g>
	<g>
		<defs>
			<path id="SVGID_9_" d="M3.973,38.807c0-17.905,14.567-32.473,32.471-32.473c17.906,0,32.472,14.568,32.472,32.473
				c0,17.905-14.566,32.472-32.472,32.472C18.54,71.279,3.973,56.712,3.973,38.807L3.973,38.807z M3.195,38.807
				c0,18.335,14.915,33.251,33.249,33.251c18.335,0,33.252-14.916,33.252-33.251c0-18.335-14.917-33.252-33.252-33.252
				C18.11,5.556,3.195,20.472,3.195,38.807L3.195,38.807z"/>
		</defs>
		<clipPath id="SVGID_10_">
			<use xlink:href="#SVGID_9_"  overflow="visible"/>
		</clipPath>
		<g clip-path="url(#SVGID_10_)">
			<defs>
				<rect id="SVGID_11_" x="3.195" y="5.556" width="66.502" height="66.503"/>
			</defs>
			<clipPath id="SVGID_12_">
				<use xlink:href="#SVGID_11_"  overflow="visible"/>
			</clipPath>
			<g transform="matrix(1 0 0 1 -2.066770e-009 1.378339e-007)" clip-path="url(#SVGID_12_)">
				
					<image overflow="visible" width="424" height="422" xlink:href="7321398B.jpg"  transform="matrix(0.1587 0 0 -0.1587 2.9195 72.3068)">
				</image>
			</g>
		</g>
	</g>
	<g>
		<defs>
			<path id="SVGID_13_" d="M6.388,38.807c0-17.905,14.566-32.473,32.471-32.473c17.905,0,32.473,14.568,32.473,32.473
				c0,17.905-14.568,32.472-32.473,32.472C20.954,71.279,6.388,56.712,6.388,38.807L6.388,38.807z M5.607,38.807
				c0,18.335,14.917,33.251,33.251,33.251c18.336,0,33.252-14.916,33.252-33.251c0-18.335-14.916-33.252-33.252-33.252
				C20.525,5.556,5.607,20.472,5.607,38.807L5.607,38.807z"/>
		</defs>
		<clipPath id="SVGID_14_">
			<use xlink:href="#SVGID_13_"  overflow="visible"/>
		</clipPath>
		<g clip-path="url(#SVGID_14_)">
			<defs>
				<rect id="SVGID_15_" x="5.607" y="5.556" width="66.503" height="66.503"/>
			</defs>
			<clipPath id="SVGID_16_">
				<use xlink:href="#SVGID_15_"  overflow="visible"/>
			</clipPath>
			<g transform="matrix(1 0 0 1 2.313257e-007 1.378339e-007)" clip-path="url(#SVGID_16_)">
				
					<image overflow="visible" width="424" height="422" xlink:href="73213994.jpg"  transform="matrix(0.1587 0 0 -0.1587 5.4444 72.3068)">
				</image>
			</g>
		</g>
	</g>
	<g>
		<defs>
			<path id="SVGID_17_" d="M8.099,35.003c0-18.872,15.114-34.224,33.69-34.224c18.579,0,33.694,15.352,33.694,34.224
				c0,18.873-15.114,34.227-33.694,34.227C23.213,69.23,8.099,53.876,8.099,35.003L8.099,35.003z M7.319,35.003
				c0,19.303,15.464,35.006,34.47,35.006c19.009,0,34.474-15.703,34.474-35.006C76.263,15.703,60.798,0,41.789,0
				C22.783,0,7.319,15.703,7.319,35.003L7.319,35.003z"/>
		</defs>
		<clipPath id="SVGID_18_">
			<use xlink:href="#SVGID_17_"  overflow="visible"/>
		</clipPath>
		<g clip-path="url(#SVGID_18_)">
			<defs>
				<rect id="SVGID_19_" x="7.319" y="0" width="68.944" height="70.009"/>
			</defs>
			<clipPath id="SVGID_20_">
				<use xlink:href="#SVGID_19_"  overflow="visible"/>
			</clipPath>
			<g transform="matrix(1 0 0 1 -1.980283e-007 -2.369239e-006)" clip-path="url(#SVGID_20_)">
				
					<image overflow="visible" width="440" height="444" xlink:href="73213997.jpg"  transform="matrix(0.1587 0 0 -0.1587 7.1277 70.1707)">
				</image>
			</g>
		</g>
	</g>
	<g>
		<defs>
			<path id="SVGID_21_" d="M9.357,36.262c0-18.871,15.113-34.224,33.691-34.224c18.579,0,33.694,15.353,33.694,34.224
				c0,18.872-15.115,34.227-33.694,34.227C24.471,70.489,9.357,55.134,9.357,36.262L9.357,36.262z M8.577,36.262
				c0,19.303,15.465,35.004,34.471,35.004c19.008,0,34.472-15.701,34.472-35.004c0-19.3-15.464-35.005-34.472-35.005
				C24.042,1.256,8.577,16.962,8.577,36.262L8.577,36.262z"/>
		</defs>
		<clipPath id="SVGID_22_">
			<use xlink:href="#SVGID_21_"  overflow="visible"/>
		</clipPath>
		<g clip-path="url(#SVGID_22_)">
			<defs>
				<rect id="SVGID_23_" x="8.577" y="1.256" width="68.943" height="70.009"/>
			</defs>
			<clipPath id="SVGID_24_">
				<use xlink:href="#SVGID_23_"  overflow="visible"/>
			</clipPath>
			<g transform="matrix(1 0 0 1 -3.051991e-008 -2.376293e-006)" clip-path="url(#SVGID_24_)">
				
					<image overflow="visible" width="440" height="444" xlink:href="73213995.jpg"  transform="matrix(0.1587 0 0 -0.1587 8.4167 71.4591)">
				</image>
			</g>
		</g>
	</g>
	<g>
		<defs>
			<path id="SVGID_25_" d="M4.031,36.331c0-17.531,13.564-31.79,30.237-31.79c16.671,0,30.236,14.259,30.236,31.79
				c0,17.528-13.565,31.79-30.236,31.79C17.594,68.121,4.031,53.859,4.031,36.331L4.031,36.331z M3.252,36.331
				C3.252,54.29,17.166,68.9,34.268,68.9c17.103,0,31.016-14.611,31.016-32.569c0-17.959-13.913-32.569-31.016-32.569
				C17.166,3.762,3.252,18.372,3.252,36.331L3.252,36.331z"/>
		</defs>
		<clipPath id="SVGID_26_">
			<use xlink:href="#SVGID_25_"  overflow="visible"/>
		</clipPath>
		<g clip-path="url(#SVGID_26_)">
			<defs>
				<rect id="SVGID_27_" x="3.252" y="3.762" width="62.032" height="65.139"/>
			</defs>
			<clipPath id="SVGID_28_">
				<use xlink:href="#SVGID_27_"  overflow="visible"/>
			</clipPath>
			<g transform="matrix(1 0 0 1 -5.619279e-008 5.241718e-007)" clip-path="url(#SVGID_28_)">
				
					<image overflow="visible" width="396" height="413" xlink:href="7321399B.jpg"  transform="matrix(0.1587 0 0 -0.1587 3.0569 69.1145)">
				</image>
			</g>
		</g>
	</g>
	<g>
		<defs>
			<path id="SVGID_29_" d="M5.32,36.331c0-17.531,13.564-31.79,30.237-31.79c16.673,0,30.237,14.259,30.237,31.79
				c0,17.528-13.564,31.79-30.237,31.79C18.884,68.121,5.32,53.859,5.32,36.331L5.32,36.331z M4.54,36.331
				C4.54,54.29,18.452,68.9,35.556,68.9c17.102,0,31.016-14.611,31.016-32.569c0-17.959-13.914-32.569-31.016-32.569
				C18.452,3.762,4.54,18.372,4.54,36.331L4.54,36.331z"/>
		</defs>
		<clipPath id="SVGID_30_">
			<use xlink:href="#SVGID_29_"  overflow="visible"/>
		</clipPath>
		<g clip-path="url(#SVGID_30_)">
			<defs>
				<rect id="SVGID_31_" x="4.54" y="3.762" width="62.032" height="65.139"/>
			</defs>
			<clipPath id="SVGID_32_">
				<use xlink:href="#SVGID_31_"  overflow="visible"/>
			</clipPath>
			<g transform="matrix(1 0 0 1 8.203801e-008 5.241718e-007)" clip-path="url(#SVGID_32_)">
				
					<image overflow="visible" width="396" height="413" xlink:href="7321399C.jpg"  transform="matrix(0.1587 0 0 -0.1587 4.3619 69.1145)">
				</image>
			</g>
		</g>
	</g>
</g>
</svg>
